<?xml version="1.0" encoding="utf-8"?>
<!-- Generator: Adobe Illustrator 18.1.1, SVG Export Plug-In . SVG Version: 6.00 Build 0)  -->
<svg version="1.1" id="Layer_1" xmlns="http://www.w3.org/2000/svg" xmlns:xlink="http://www.w3.org/1999/xlink" x="0px" y="0px"
	 viewBox="191.3 4.3 577.8 551.4" enable-background="new 191.3 4.3 577.8 551.4" xml:space="preserve">
<g>
	<g>
		<path fill="#FFFFFF" d="M764.6,527.6c0,13-10.9,23.6-24.7,23.6H220.4c-13.7,0-24.7-10.6-24.7-23.6V32.4c0-13,10.9-23.6,24.7-23.6
			h519.5c13.7,0,24.7,10.6,24.7,23.6V527.6z"/>
		<path fill="#003366" d="M739.9,555.7H220.4c-16.1,0-29.2-12.6-29.2-28.1V32.4c0-15.5,13.1-28.1,29.2-28.1h519.5
			c16.1,0,29.2,12.6,29.2,28.1v495.2C769.1,543.1,756,555.7,739.9,555.7z M220.4,13.3c-11.1,0-20.2,8.6-20.2,19.1v495.2
			c0,10.5,9,19.1,20.2,19.1h519.5c11.1,0,20.2-8.6,20.2-19.1V32.4c0-10.5-9-19.1-20.2-19.1H220.4z"/>
	</g>
	<g>
		<path fill="#003366" d="M446.7,134.3c0,3.5-2.5,6.3-6.7,6.3c-3.9,0-6.3-2.8-6.3-6.3s2.5-6.3,6.3-6.3
			C444.2,127.9,446.7,130.7,446.7,134.3z M435.4,206.5v-56.4h10.2v56.4H435.4z"/>
		<path fill="#003366" d="M464.7,165.6c0-6-0.4-10.6-0.4-15.2h8.8l0.4,9.2h0.4c3.2-5.3,8.5-10.2,18-10.2c7.8,0,13.4,4.6,15.9,11.3
			h0.4c1.8-3.2,4.2-5.6,6.3-7.4c3.5-2.5,7-3.9,12.3-3.9c7.4,0,18.7,4.9,18.7,24.3v33.1h-9.9v-31.7c0-10.9-4.2-17.3-12.3-17.3
			c-6,0-10.2,4.2-12.3,9.2c-0.4,1.4-0.7,3.2-0.7,5.3v34.9h-9.9v-33.8c0-8.8-3.9-15.5-11.6-15.5c-6.3,0-10.9,5.3-12.7,10.2
			c-0.7,1.4-0.7,3.2-0.7,4.9v33.8h-9.9v-41.2H464.7z"/>
		<path fill="#003366" d="M603.9,193.1c0,4.9,0.4,9.5,0.7,13.4h-9.2l-0.7-7h-0.4c-3.2,4.6-9.2,8.5-17.3,8.5
			c-11.3,0-17.3-8.1-17.3-16.2c0-13.7,12-21.1,33.8-21.1v-1.1c0-4.6-1.4-13-12.7-13c-5.3,0-10.9,1.4-14.8,4.2l-2.5-7
			c4.6-2.8,11.6-4.9,18.7-4.9c17.3,0,21.5,11.6,21.5,22.9L603.9,193.1L603.9,193.1z M594,178c-11.3-0.4-24,1.8-24,12.7
			c0,6.7,4.6,9.9,9.5,9.9c7.4,0,12.3-4.6,13.7-9.5c0.4-1.1,0.4-2.5,0.4-3.2V178H594z"/>
		<path fill="#003366" d="M634.5,136.7v13.4h14.8v7.8h-14.8v30.3c0,7,2.1,10.9,7.8,10.9c2.8,0,4.6-0.4,6-0.7l0.4,7.8
			c-2.1,0.7-5.3,1.4-9.2,1.4c-4.9,0-8.5-1.8-10.9-4.2c-2.8-3.2-3.9-8.1-3.9-14.8v-30.7h-8.8v-7.8h8.8v-10.6L634.5,136.7z"/>
		<path fill="#003366" d="M668,180.4c0.4,13.7,8.8,19.7,19.4,19.7c7.4,0,12-1.4,15.5-2.8l1.8,7c-3.5,1.8-9.9,3.5-19,3.5
			c-17.3,0-27.8-11.6-27.8-28.5s9.9-30.3,26.4-30.3c18.7,0,23.3,16.2,23.3,26.4c0,2.1,0,3.5-0.4,4.9L668,180.4L668,180.4z M698,173
			c0-6.3-2.8-16.6-14.1-16.6c-10.6,0-14.8,9.5-15.9,16.6H698z"/>
	</g>
	<g>
		<path fill="#003366" d="M454.1,279.1V313h-10.6v-32.8c0-9.2-3.5-16.9-13-16.9c-6.7,0-12,4.6-14.1,10.2c-0.7,1.4-0.7,3.2-0.7,4.9
			V313h-10.2V124.1H416v137.8l0,0v3.5h0.4c1.8-2.8,4.2-5.6,7.4-7.4s6.7-2.8,10.6-2.8C441.8,254.8,454.1,259.7,454.1,279.1z"/>
		<path fill="#003366" d="M512.2,299.6c0,4.9,0.4,9.9,0.7,13.7h-9.2l-0.7-7h-0.4c-3.2,4.6-9.2,8.5-17.6,8.5
			c-11.6,0-17.6-8.1-17.6-16.6c0-13.7,12.3-21.5,34.2-21.1v-1.1c0-4.6-1.4-13.4-13-13c-5.3,0-10.9,1.4-15.2,4.2l-2.5-7
			c4.6-2.8,11.6-4.9,19-4.9c17.6,0,21.9,12,21.9,23.3v21.1H512.2z M502,284.1c-11.3-0.4-24.3,1.8-24.3,13c0,6.7,4.6,9.9,9.5,9.9
			c7.4,0,12.3-4.6,14.1-9.5c0.4-1.1,0.4-2.5,0.4-3.2v-10.2H502z"/>
		<path fill="#003366" d="M529.9,271.7c0-6,0-10.6-0.4-15.5h9.2l0.7,9.5h0.4c2.8-5.3,9.5-10.6,19-10.6c7.8,0,20.1,4.6,20.1,24.3
			v33.8h-10.2v-32.8c0-9.2-3.5-16.9-13.4-16.9c-6.7,0-12,4.9-14.1,10.6c-0.4,1.4-0.7,3.2-0.7,4.9v34.2h-10.2v-41.6H529.9z"/>
		<path fill="#003366" d="M645.1,304.8c0,13.4-2.8,21.1-8.1,26.1c-5.6,4.9-13.7,6.7-20.8,6.7c-6.7,0-14.4-1.8-19-4.6l2.5-8.1
			c3.9,2.5,9.5,4.6,16.9,4.6c10.6,0,18.3-5.6,18.3-20.1v-6.3h-0.4c-3.2,5.3-9.2,9.5-18.3,9.5c-14.1,0-24.3-12-24.3-27.8
			c0-19.4,12.7-30.3,25.7-30.3c9.9,0,15.2,4.9,18,9.9h0.4l0.4-8.5h9.2c-0.4,3.9-0.4,8.8-0.4,15.5L645.1,304.8L645.1,304.8z
			 M634.9,278.8c0-1.8,0-3.2-0.7-4.6c-1.8-6-6.7-10.9-14.4-10.9c-9.9,0-16.9,8.5-16.9,21.5c0,11.3,5.6,20.4,16.9,20.4
			c6.3,0,12.3-3.9,14.4-10.6c0.7-1.8,0.7-3.9,0.7-5.6V278.8z"/>
		<path fill="#003366" d="M669.1,286.5c0.4,14.1,9.2,19.7,19.7,19.7c7.4,0,12-1.4,15.9-2.8l1.8,7.4c-3.5,1.8-9.9,3.5-19,3.5
			c-17.6,0-28.2-11.6-28.2-28.9c0-17.3,10.2-30.7,26.8-30.7c18.7,0,23.6,16.2,23.6,26.8c0,2.1,0,3.5-0.4,4.9H669.1z M699.4,279.1
			c0-6.3-2.8-16.9-14.4-16.9c-10.6,0-15.2,9.5-15.9,16.9H699.4z"/>
	</g>
	<g>
		<path fill="#003366" d="M390.7,303.4c-8.8,4.2-27.8,10.6-52.2,10.6c-55,0-90.6-37.4-90.6-93c0-56,38.4-96.9,98-96.9
			c19.7,0,37,4.9,45.8,9.9l-7.4,25.4c-7.8-4.2-20.4-8.8-38.4-8.8c-41.6,0-64.5,31.4-64.5,68.7c0,42.3,27.1,68,63.1,68
			c18.7,0,31.4-4.6,40.5-8.8L390.7,303.4z"/>
	</g>
	<g enable-background="new    ">
		<path fill="#003366" d="M262.5,389.3l-7.1,21.5h-9.1l23.3-68.4h10.6l23.3,68.4H294l-7.3-21.5H262.5z M285,382.4l-6.8-19.7
			c-1.5-4.5-2.5-8.5-3.6-12.5h-0.2c-1,4-2,8.2-3.4,12.4l-6.7,19.8H285z"/>
		<path fill="#003366" d="M354.3,338.8v59.4c0,4.4,0.2,9.3,0.4,12.7h-7.9l-0.4-8.5h-0.3c-2.6,5.5-8.5,9.6-16.5,9.6
			c-11.9,0-21.1-10-21.1-25c-0.1-16.3,10.1-26.3,22-26.3c7.6,0,12.6,3.6,14.8,7.4h0.2v-29.3H354.3z M345.5,381.7
			c0-1.1-0.1-2.6-0.4-3.8c-1.3-5.6-6.2-10.2-12.9-10.2c-9.2,0-14.7,8.1-14.7,18.9c0,9.9,5,18.2,14.5,18.2c6,0,11.5-4.1,13.1-10.7
			c0.3-1.2,0.4-2.4,0.4-3.9V381.7z"/>
		<path fill="#003366" d="M403.7,399.1c0,4.3,0.2,8.4,0.7,11.8h-8l-0.7-6.2h-0.3c-2.7,3.9-8,7.3-15,7.3c-9.9,0-15-7-15-14.1
			c0-11.9,10.6-18.4,29.5-18.3v-1c0-4-1.1-11.4-11.2-11.3c-4.7,0-9.4,1.3-12.9,3.7l-2-6c4.1-2.5,10-4.3,16.2-4.3
			c15,0,18.7,10.2,18.7,20V399.1z M395.1,385.8c-9.7-0.2-20.8,1.5-20.8,11.1c0,5.9,3.9,8.5,8.3,8.5c6.5,0,10.7-4.1,12.1-8.2
			c0.3-1,0.4-2,0.4-2.8V385.8z"/>
		<path fill="#003366" d="M418.1,377.8c0-6.3-0.2-11.4-0.4-16h7.9l0.5,8.4h0.2c3.6-6,9.4-9.4,17.5-9.4c12,0,20.9,10,20.9,24.9
			c0,17.7-10.9,26.4-22.4,26.4c-6.5,0-12.2-2.8-15.1-7.7h-0.2v26.7h-8.8V377.8z M426.9,390.9c0,1.3,0.1,2.5,0.4,3.7
			c1.6,6.2,7,10.5,13.4,10.5c9.4,0,14.9-7.7,14.9-19c0-9.7-5.2-18.2-14.6-18.2c-6.1,0-11.9,4.3-13.5,11c-0.3,1.1-0.6,2.4-0.6,3.6
			V390.9z"/>
		<path fill="#003366" d="M486.6,350v11.8h12.8v6.8h-12.8V395c0,6.1,1.7,9.5,6.7,9.5c2.4,0,3.9-0.2,5.2-0.6l0.4,6.8
			c-1.7,0.6-4.5,1.2-7.9,1.2c-4.2,0-7.5-1.4-9.6-3.8c-2.4-2.7-3.4-7.1-3.4-12.9v-26.8h-7.6v-6.8h7.6v-9.1L486.6,350z"/>
		<path fill="#003366" d="M543.9,399.1c0,4.3,0.2,8.4,0.7,11.8h-8l-0.7-6.2h-0.3c-2.7,3.9-8,7.3-15,7.3c-9.9,0-15-7-15-14.1
			c0-11.9,10.6-18.4,29.5-18.3v-1c0-4-1.1-11.4-11.2-11.3c-4.7,0-9.4,1.3-12.9,3.7l-2-6c4.1-2.5,10-4.3,16.2-4.3
			c15,0,18.7,10.2,18.7,20V399.1z M535.3,385.8c-9.7-0.2-20.8,1.5-20.8,11.1c0,5.9,3.9,8.5,8.3,8.5c6.5,0,10.7-4.1,12.1-8.2
			c0.3-1,0.4-2,0.4-2.8V385.8z"/>
		<path fill="#003366" d="M568.7,350v11.8h12.8v6.8h-12.8V395c0,6.1,1.7,9.5,6.7,9.5c2.4,0,3.9-0.2,5.2-0.6l0.4,6.8
			c-1.7,0.6-4.5,1.2-7.9,1.2c-4.2,0-7.5-1.4-9.6-3.8c-2.4-2.7-3.5-7.1-3.5-12.9v-26.8h-7.6v-6.8h7.6v-9.1L568.7,350z"/>
		<path fill="#003366" d="M601.5,347.9c0,3-2.1,5.5-5.7,5.5c-3.2,0-5.4-2.4-5.4-5.5s2.2-5.6,5.6-5.6
			C599.2,342.4,601.5,344.8,601.5,347.9z M591.5,410.8v-49.1h8.9v49.1H591.5z"/>
		<path fill="#003366" d="M659.7,385.9c0,18.2-12.7,26.1-24.5,26.1c-13.2,0-23.5-9.7-23.5-25.3c0-16.3,10.9-26,24.4-26
			C650.2,360.7,659.7,371,659.7,385.9z M620.9,386.4c0,10.8,6.1,18.9,14.8,18.9c8.5,0,14.9-8,14.9-19.1c0-8.3-4.2-18.8-14.7-18.8
			C625.4,367.4,620.9,377.2,620.9,386.4z"/>
		<path fill="#003366" d="M671,375c0-5.2-0.1-9.2-0.4-13.3h7.9l0.5,8.1h0.2c2.4-4.6,8.1-9.1,16.2-9.1c6.8,0,17.4,4.1,17.4,20.9v29.2
			h-8.9v-28.3c0-7.9-2.9-14.5-11.4-14.5c-5.8,0-10.3,4.2-12,9.1c-0.4,1.1-0.6,2.6-0.6,4.2v29.5H671V375z"/>
	</g>
</g>
</svg>
