<?xml version="1.0" encoding="utf-8"?>
<!-- Generator: Adobe Illustrator 18.1.1, SVG Export Plug-In . SVG Version: 6.00 Build 0)  -->
<svg version="1.1" id="Layer_1" xmlns="http://www.w3.org/2000/svg" xmlns:xlink="http://www.w3.org/1999/xlink" x="0px" y="0px"
	 viewBox="369.3 0 221.4 549.8" enable-background="new 369.3 0 221.4 549.8" xml:space="preserve">
<g>
	<rect x="371" y="0" fill="#003399" stroke="#020202" stroke-width="9.263800e-02" width="218.3" height="218.3"/>
	<g id="WzcW1U_6_">
		<g id="XMLID_6_">
			<path fill="#FFFFFF" d="M572.8,110c0,1,0,2,0,3.4c-1,20.2-16.9,26-29.3,35.1c2.7-5.1,4-12.1,4.7-19.9c0.7-7.8,1.3-15.5,4-21.3
				c-0.7,6.7,3,14.5,2.4,21.6c-0.3,4-1.7,6.7-3.7,10.1c2-1.7,3.7-4.4,5.4-6.7c1.7-2.4,3.7-4.4,5.7-6.4c4.4-4.4,9.8-9.4,10.5-17.5
				C573.1,108.3,572.1,110,572.8,110z"/>
			<path fill="#FFFFFF" d="M570.4,82c4,9.4,2.4,23.6-2.7,31.4c-3,5.1-7.8,8.4-10.1,13.5c1-15.5-7.4-23.6-6.4-40.1
				c3.7,9.4,12.1,16.9,9.1,30.7c1.7-5.4,2.7-10.1,4.7-15.2C567.7,96.1,570.7,90.4,570.4,82z"/>
			<path fill="#FFFFFF" d="M568.7,77.3c0.3,10.5-6.1,16.5-6.4,26c-1.7-7.1-5.1-12.1-8.8-17.2c-3.7-5.1-7.1-10.1-7.8-17.9
				c4.7,8.1,14.2,11.1,15.9,22.3c-0.7-11.1,4-24.3-1-32.4C565,62.1,568.4,69.8,568.7,77.3z"/>
			<path fill="#FFFFFF" d="M566.4,133.9c-0.7,6.7-4.7,12.1-8.4,15.9c-3.7,3.7-8.1,7.1-13.5,9.1c-5.4,2-11.8,1.7-18.6,3.7
				c-0.7,0.3,0.3-1,1-1.3c1.7-1.7,3.4-3.7,4.7-6.4c1.7-3,3-6.7,4-10.5c2.4-7.4,6.4-13.5,10.5-18.6c-0.7,2.7-1.7,5.4-2,8.1
				c-1,6.1-1.3,11.8-4,16.9c-1,2-3.7,4.7-5.4,6.4c-0.3,0-0.3,0.3-0.3,0.3c0,0.3-0.3,0.3-0.3,0.3c5.4-3.7,11.1-7.8,17.5-10.8
				C557.6,144.4,563.7,140.7,566.4,133.9z"/>
			<path fill="#FFFFFF" d="M559.6,62.4c0.3,5.4-0.7,11.5-0.3,17.9c-5.4-11.1-20.6-12.8-21.3-28.7c4,8.8,14.8,10.5,18.2,19.6
				c-1-4-2-9.1-3.4-13.8c-1-5.1-2.7-9.4-6.4-11.5C553.9,47.6,558.9,53.6,559.6,62.4z"/>
			<path fill="#FFFFFF" d="M551.5,61.1c0,1-1-0.3-1.3-0.7c-3.4-3-7.8-6.4-10.8-10.1c-3.4-4.7-6.4-9.8-10.8-13.2c0-0.3,0.3,0,0.3,0
				c8.8,3,16.2,6.7,19.6,15.2C549.8,55,550.2,58,551.5,61.1z"/>
			<path fill="#FFFFFF" d="M545.8,91.4c1.3,20.9-6.1,37.4-16.5,48.6c-9.8,10.8-24.3,20.6-43.5,21.9c-20.9,1.7-38.1-6.4-48.9-16.2
				c-11.8-10.5-20.6-24-21.9-43.5c-1.7-21.6,6.1-37.8,15.9-49.3c9.8-11.1,24.3-20.6,44.2-21.9c21.3-1.7,38.5,6.4,49.3,16.5
				c6.1,5.7,10.5,10.8,14.5,18.6C542.1,73.5,545.1,81.3,545.8,91.4z M533,95.5c3.7,0,7.1,0,10.8,0c-0.7-19.6-8.1-32.4-17.9-42.8
				c-2.7,2.4-5.4,4.7-7.4,7.8C526.2,68.8,532.3,79.3,533,95.5z M543.8,97.8c-3.7,0-7.1,0-10.8,0c-0.3,16.2-7.1,26.7-14.5,35.8
				c2.7,2.4,4.7,5.1,7.8,7.1C535.3,129.9,543.1,117.4,543.8,97.8z M520.8,95.5c3.4,0,6.7,0,10.1,0c-0.7-11.5-3.7-20.2-8.8-27
				c-0.7,0.3,0,2.4-1,2.7c-3-1.7-4.7-4.7-8.4-5.4c-1,0.7-2,1.7-2.7,2.7C515.8,75.2,520.5,83,520.8,95.5z M530.9,97.8
				c-3.4,0-6.7,0-10.1,0c-0.3,9.4-3,16.2-7.1,21.9c0,3-1.7,5.4-1.7,7.4c0.7,0.7,2.7,0,3,1c-0.3,2,0.7,2.7,2,3.4
				c0.7-1.3,2-1.7,2.4-3.4c-0.7,0.3-0.3-0.7-0.3-1c-0.3-0.3-1-0.3-1-1c0-1,0.7-1.3,1-2c0.3-1.3,0-2.7,0.3-3c2.4-0.3,2,3,2.4,4
				C526.9,117.7,530.3,109.3,530.9,97.8z M516.4,58.4c2.7-2.4,5.4-4.7,7.8-7.8c-10.8-9.4-23.3-16.9-42.8-17.5c0,3.7,0,7.1,0,10.8
				c1,0,2,0,2.7,0.3c0.7-0.3,0.7-1.3,1.7-1.3c0.7,0,2-0.7,3.4-0.7c1.7,0,3.7-0.3,4.4,0.7c-1,0.3-2.4,0-2.7,1c-0.7,0-2.7-0.3-2.7,0.7
				C500.2,45.9,509,51.3,516.4,58.4z M524.2,142.4c-2.4-2.7-4.7-5.4-7.8-7.8c-1,1.7-3,2-4,3.7c-0.7,0.7-0.7,2-1,2.7
				c-1,1.3-3,2.7-4.7,3.7c-1,0.7-4.4,2.7-5.7,2.7c-1,0-2-1-2.7-1c-1,0-2.4,0.7-3.7,1c-4,1-8.1,1.7-13.2,1.7c0,3.7,0,7.1,0,10.8
				C500.9,159.6,513.4,152.1,524.2,142.4z M512,95.5c2.4,0,4.4,0,6.7,0c0-2.7-0.7-5.1-1-7.4c-1.7,0-0.3,2.7-1,3.7
				c-1.7-0.3,0-2-0.3-3.4c0-0.3-0.3-0.3-0.3-0.3c-0.7,1-1,2.4-2.7,2.7C514.4,93.1,512,93.1,512,95.5z M518.8,97.8
				c-2,0-4.4-0.3-5.7,0.3c0.7,0.3,0.7,1.3,1,2c3.7,0.7,2,5.1-2,4.7c0,0.3,0,1,0,1.3c-2.4,0.3-2,2.7-2.7,4c-0.7,1-2,1.3-2,2.7
				c-1,0.7-2,1-2.4,2c1,0,1.7,0,2.4-0.3c0.7-1.3,1.3-3.7,2.7-3.4c0.7,3.7-0.7,7.1-2.7,9.1c-0.7,0-1.3,0-2,0c-0.3,0.3,1,1.3,1.7,2
				c0.7-0.7,1.7-1.3,2.7-1.3c1-1.3,1.7-3,2.7-4.7c0.7,0,0.3,0.3,1,0C516.4,111,518.5,105.3,518.8,97.8z M516.4,86.4
				c0.3-3-1-5.7-2.4-7.8c0,1.7,2,3.4,0.7,4.7c-1.3-1.7-3.4-2.7-4-5.1c1.3-0.7,2.4,0.7,3.4,0c-0.3-0.3-0.3-1-1-1c0,0.7-1.7,0.7-2,0
				c-0.3-0.7,0.7-0.3,0.3-1c-0.7-0.7-0.7,0.3-1,0.7c-0.3-0.7-1.7-1.3-1.3-1.7c0.7,0,1.3,0.3,2,0.3c0-0.3,0.3-0.3,0.3-0.7
				c-1.3-1.3-2-3.4-4-4c-2,2.4-4.4,4-6.4,6.7c1,1.3,2.4,2.7,3.4,4c2.4,0.3,3.4,1.7,4,3.4c0.7,0,1,0,1.7,0c-0.7,0.7-1,2,0.3,2
				c0.3-0.3,0-1.7,0.7-2c2.4,0,1.7,3,2,4.7c1.3,0,1-1.3,1-2.7C515.8,86.7,516.1,86.7,516.4,86.4z M515.1,133.6
				c-0.3-0.7-0.7-1.3-1.7-1.3c-0.3,0.7-0.7,1-0.3,2C514.1,134.3,514.4,133.9,515.1,133.6z M514.1,60.7c2.7-0.7-3.4-4.7-3.7-4.4
				C511.4,58.4,512.7,59.4,514.1,60.7z M511.7,74.9c0,0.3,0.7,1.7,1,1C512.4,75.6,512.4,74.9,511.7,74.9z M508.3,66.8
				c0.7,0,2.4-2.7,2.4-2.7c-2-0.3-2.4-2-3.7-2.7c1-0.7-0.3-2-1-2.7c-1,0-1,0.7-2.4,0.3c-1.7-1.7-2.4-4-4-5.7c-0.7-0.7-2-1-2-2.4
				c0.7-1,2.4-0.3,3.4-1c-5.1-2-10.5-3.7-16.9-4.4c-0.7,0.3,1.3,0.7,0.3,1c-1.3-0.3-2-1.3-3.4-1.3c0,3.4,0,6.7,0,10.1
				c8.8,0,16.2,3,21.9,7.1C504,63.4,508,66.8,508.3,66.8z M506.7,68.8c-0.3-1-1-1.7-1.7-2C505,67.8,505.3,68.5,506.7,68.8z
				 M505.6,69.2c-1.3-0.3-2.4-1.3-3.4-2.4c-0.3-1,0.7-1.3,0.3-1.7c-5.7-3.7-12.1-6.7-21.3-7.1c0,3,0,6.4,0,9.4
				c8.1,0.3,13.8,3.4,18.6,7.8C502.3,73.5,504,71.2,505.6,69.2z M500.9,121.8c0.7,0.3,1.7,0.3,2.7,0.3
				C503.6,120.8,500.6,119.1,500.9,121.8z M501.9,82.3c0.7-0.3,1,0.7,1,0c-0.7-0.3-0.7-1.7-1.7-2c-1,1.3,0,2,0.3,3.4
				c0.3,0,0.7,0,1,0C502.9,83,501.9,83,501.9,82.3z M500.9,79.6c0-0.7-0.7-1-1-1.3c-0.3,0.7-1.3,1.3-1.7,2c0.7,0.3,1,0.7,1.7,0.3
				C499.6,79.6,499.9,78.9,500.9,79.6z M499.9,115c0-0.3,0.7-0.3,0.3-1c-0.3-0.3-1-0.3-1.7-0.3C498.9,114.4,499.6,114.4,499.9,115z
				 M492.8,123.8c3-1,7.8-1.3,7.1-5.4c-0.3,0-0.3,0-0.7,0c-2,2.4-6.1,4.4-9.1,5.7c-1,0.3-2.7,0.3-3.4,1.3c1.7,0.7,3.4,0,5.7,0
				C492.5,124.8,492.5,124.1,492.8,123.8z M498.2,116.4c-0.3-0.7-1-0.7-1.7-1c0,0.7,0,1-0.3,1c-0.3,0-0.3-0.7-1-0.3
				c-0.3,0.7-1,2-0.3,3C496.2,118.4,497.5,117.7,498.2,116.4z M497.5,77.3c-0.7,0.3-1-0.3-1.7-0.3c-0.7,0.3-1,1.3-2,1.3
				c0-0.3-1.3-1-1-1.3c0.7,0,1.3,0,2,0c0.3-1,1.3-1.3,2.4-1.7c-4.4-2.7-8.8-5.7-15.9-5.7c0,3.7,0,7.8,0,11.5c1,0,2.4,0,3.4,0
				c0.3-2,1.3-3,3.4-3.4c0,2-1,2.7-2,4c2,0.7,5.7,3,6.4-0.3c-0.7-0.3-1.3-0.7-1-1.7c0.3-0.3,1.3-1.3,2-0.7c0,1-1,1-1,1.7
				c1-0.3,1.3-1,1.7-1.3C496.2,80,496.5,78.6,497.5,77.3z M495.2,144.7c-1.3-0.7-3.4-0.3-3.4-2c0-1,1-1.3,1.3-1.7
				c-0.7-1.7-2.4-2.4-4.7-2.4c0-1,0.7-1,0.7-2c-2.7,0.3-4.7,0.7-7.8,0.7c0,3.4,0,6.7,0,10.1C486.4,147.1,491.5,146.4,495.2,144.7z
				 M492.8,99.5c-0.3,0-0.7-0.3-1-0.3c-0.3,0.7-0.3,1.3,0.3,1.7C492.5,100.5,492.8,100.2,492.8,99.5z M491.1,101.5
				c-1-0.3-2-1-2.7-1.7c0.3-0.3,1-0.7,1-1.3c-2.4,0.3-3-1-4.7-1.3c-0.3,0-1,1-1,0.3c1-0.7,2-2.7,3.7-2c0-0.3,0-1,0-1.3
				c-0.3,0-1,0-1-0.3c-0.3-1.7,1.3-1,1.7-2c-0.3,0-1,0.3-1-0.3c-1,0-1,0.3-1.7,0.3c-0.7-0.3-0.3-1.3-0.3-2.4c-0.3,0-0.7,0-1,0
				c-0.3-1,0-1-0.3-1.7c-1-0.3-1,0.3-1.7,0.3c-1.7-0.3-1.3-3-1-4.7c-0.7-0.7-1,0.3-1.7,0.7c-0.3,0.7,0.3,0.7,0.3,1
				c-0.7,0.7-0.7,1.7-1,2.7c-1.3,1.7-4,1.7-5.1,3.7c0.7,0.3,1.3-0.7,1.7,0c-0.3,1-1.7,1.3-2.7,1c0,1,1.7,0.7,1.7,1.7
				c0.7-0.3,0.7-2.4,2-1.7c-0.3,0.7-1.3,0.7-1.3,2c0,0.7,1,0,1,0.3c0,3-1.7,4.4-3,6.1c-1-1-2.7-0.3-3.4-0.3c0.3-3,4.7-2.4,5.1-5.4
				c-1.3-0.3-2.7,3-4.7,1.3c0.3-0.3,0.3-1.3,1-1.3c0.3,0,0.3,0.7,1,0.3c0.7-0.3-0.3-1,0.3-1.3c0.7,0,1.3,0.7,1.7-0.3
				c-1.3-1-2,0.3-3.4,0.3c0-0.7,0.7-0.7,0.7-1.3c-0.3-0.3-0.3-0.7-0.7-1c-2-0.3-2.4,1.3-2.4,2.7c0.7,0,1.7-0.3,1.7,0.3
				c-0.3,1-0.7,2-1,2.7c-0.7,0-0.7-0.7-0.7,0.3c0.3,7.8,10.1,14.2,17.5,10.5c1,0,2.4-0.7,1.7-1c-0.7,0.3-1.3,0.7-2.4,0.7
				c-0.3-1.3-0.3-4,0.7-4.7c1.7,0,3.4,0,4,1.3c0.3,1-0.7,0.7-0.7,1c0.7,0.3,1.3-0.3,1.7-1c-0.7-0.7-1.3-1.3-2.4-2
				C488.8,103.2,490.1,102.6,491.1,101.5z M489.8,110.7c-1.3-0.3-2,1.7-3.7,0.3c-0.3,1,1.3,3,0.3,4c-0.3,0-0.3,0.3-0.3,0.3
				c-0.7-0.3-1.3-0.7-1.3-1.7c-0.7,0-1,0.3-2,0.3c-0.3-0.3,0-1.7-0.3-2.4c-0.7-0.3-0.7,0.3-1.3,0.3c0,2-0.3,4.7,0.3,6.4
				c1.3,0,1.3-1.3,2.7-1.7c0-0.7-0.3-1-0.7-1.3c0.3-0.3,0.3-1,1-1c0.3,0.3,0.3,1,0.3,1.7c2.4,0,4-1,3.4-3c0.7,0,1,0,1-0.3
				c-0.3-0.3-1,0-0.7-0.7C488.4,111,489.8,111.3,489.8,110.7z M486.7,120.1c0,1.7,3,1.3,4.4,1C490.5,120.1,488.1,120.8,486.7,120.1z
				 M488.1,122.5c-1-0.3-1.7-1-2.7-1c-0.7,1-4.4,0.7-3.4,2.7C483.7,123.1,486.4,123.5,488.1,122.5z M483,125.8c0,1.3,2,1,2.4,0.3
				C485.1,125.5,483.7,125.5,483,125.8z M478.3,114.7c0.7-0.3,0.7-1.3,0.7-2.7c-4-0.3-6.4-2-9.1-3.7c-2.4,3-5.7,5.1-7.8,8.4
				c3.7,3.4,8.1,6.1,14.2,6.7c0-0.7-0.7-1.3,0.3-1.3s1.7,0,2.7,0c0-3-0.7-3.4,0-5.7C479,115,478.3,115.4,478.3,114.7z M479,55.7
				c0-2.4,0-5.4,0-7.8c0-0.7,0.3-2-0.3-2.4h-0.3c-6.1,0.7-12.1,1.3-18.9,4.7c-2.7,1.3-4.7,2.4-7.4,4.4c-1,0.7-6.4,4-6.4,5.4
				c0,0,1.3,1.3,1.7,1.7c2,2,3.7,3.7,5.4,5.1C458.4,60.7,466.5,56.3,479,55.7z M479,160.2c0-3.7,0-7.1,0-10.8
				c-16.2-0.7-26.7-6.7-35.4-14.5c-2.7,2.4-5.4,4.7-7.4,7.8C446.6,152.1,459.4,159.6,479,160.2z M479,147.4c0-3.4,0-6.7,0-10.1
				c-10.8-0.3-18.2-4-24.3-9.1c-1.7,0-2.4-0.7-3.4-1c-2,2-4.4,3.7-6.1,6.4C453.7,140.7,463.5,146.7,479,147.4z M479,81.3
				c0-3.7,0-7.8,0-11.5c-7.8,0.3-12.8,3.4-17.2,7.1c1,1.7,3.7,1.7,5.4,2.7c0.7,0,1,0,1.7,0c1.3,0.7,2.4,2,2,3.7
				C473.6,83.7,475.6,81.3,479,81.3z M479,67.5c0-3,0-6.4,0-9.4c-11.5,0.7-18.9,4.7-25.3,10.5c2,2.7,4,4.7,6.7,6.7
				C464.8,70.8,470.6,67.8,479,67.5z M479,43.5c0-3.7,0-7.1,0-10.8c-19.6,0.7-32,8.1-42.8,17.5c2.4,2.7,4.7,5.4,7.8,7.8
				C452.3,50.3,462.8,44.2,479,43.5z M478.7,83.7c-2.4,0-4,1-5.4,2C475.3,87,477.6,85,478.7,83.7z M473.9,127.5c0.7-1,2-1,2.7-1.7
				c-7.4-0.7-12.1-4-16.9-7.4c-1.7,2.4-4.4,4-6.1,6.4c4.4,4.7,10.8,8.4,17.9,9.4c-1.7-0.3-2.7-1.7-3.4-2.7c0.3-1,1-1.7,1-3
				C470.9,128.2,471.9,126.5,473.9,127.5z M468.5,106.6c-1.7-2.4-3.4-5.1-3.7-9.1c-0.7,0-0.3,1.3-1.7,1c-0.7,0-0.3-1-1-1
				c-3,0-6.4-0.3-9.1,0.3c0.7,7.4,3.4,12.8,7.4,16.9C462.8,112,465.5,109.3,468.5,106.6z M465.5,80c0-0.7-0.3-0.7-1-0.7
				C464.5,79.6,464.8,80,465.5,80z M459.8,80c0.7,0.3,1-0.3,1.7-0.3c-0.3-0.7-1-1-1.7-1.3C459.4,78.9,459.4,79.6,459.8,80z
				 M453,95.5c2.4,0,4.7,0,7.1,0c0-1-1.7-0.3-1.7-1.3c-0.3-0.3,0-1-0.3-1.3c-1-0.3-2.7,1-2.7-0.3c0.3-0.7,1.3-0.7,2.4-1
				c0.7-2,1.3-3.7,2-5.7c-1.3-4-5.1-1.7-4,2c-1.3,1-1.7,2.4-2,4.4c1.3,0,0.3-2,1.3-2C455,92.8,453.7,93.4,453,95.5z M458.4,76.9
				c-2-2.7-4-4.7-6.7-6.7c-4.4,4.7-8.4,11.1-9.4,18.2c2-0.7,2.7,2,3.4,4c1,0,1.3,0,2,0.3c0.3-0.7,0-1-0.3-1.7c1-1.3,1.7-3,3.7-3.4
				C453.7,84,455.7,80,458.4,76.9z M452.3,122.8c1.7-2.4,4.4-4,6.1-6.4c-4-4.7-7.1-10.5-7.8-18.6c-0.7,0-2-0.3-2.4,0.3
				c0.3,1-0.3,1.7-0.3,2.7c0,0.7,0.3,1.7,0.3,2.7c0,1.7-0.3,4-0.3,5.7c0.3,2.7,2.7,5.1,0.3,6.4C450,117.7,450.7,120.8,452.3,122.8z
				 M450.7,95.5c0-2,0.3-3.7,0.7-5.4c-1.7-1.3-3.7,0.3-2.7,2.7c-0.3,0.3-0.3,0.7-1,0.7c0,0.7,0.7,1,0.3,2
				C449,95.5,450,95.5,450.7,95.5z M445.6,129.5c0.7-0.7,2-1.7,2-2.7c-3.4,0-4.7-3.7-7.1-5.4c-3.4,1-4.4-3-6.4-3.4
				c2.7,4.7,5.7,9.1,9.1,13.2C443.9,131.2,444.9,130.2,445.6,129.5z M450.3,68.1c-2.4-2-4.4-4.7-7.1-6.7
				c-7.8,8.4-13.5,18.6-14.2,33.7c2.7,0,5.7,0,8.4,0c-0.3-2,1.3-3,1.7-4.4c0.7-2.4,1-4.7,1.7-6.7C443.2,77.6,446.3,72.9,450.3,68.1z
				 M441.9,60c-2.4-2.7-4.7-5.4-7.8-7.8c-9.4,10.8-16.9,23.3-17.5,42.8c1,0,2,0,2.7,0c0-2.4,2-2.7,3.7-3.4c1.3,1,1.3,3,3,3.4
				c0.3-0.7-1-1.3-0.3-2c0.7-1,1,1.7,1.3,0.3C428.4,78.9,433.8,68.5,441.9,60z M434.1,140.7c3-2,5.1-5.1,7.8-7.1
				c-5.4-6.7-10.8-13.8-12.8-24.3c-1.3-0.7-1-3.4-1.7-4.7c-0.3,0.3,0,2-0.3,2.4c-1-1.3-1.3-3-2.7-4.4c0,1,0.3,2.4-0.3,2.7
				c-0.7-1.7-1.7-3.4-2.4-5.1c-1.7,1-1.7,3.7-1.7,6.1c-1-2-1.3-6.1-0.3-8.4c-1,0-1.7,0-2.7,0C417.3,117.4,424.7,129.9,434.1,140.7z
				 M437.5,97.8c-1.3,0-2.4,0-3.7,0c-0.7,0.3,0.3,0.3,0.7,0.3C435.1,98.2,437.2,98.5,437.5,97.8z"/>
			<path fill="#FFFFFF" d="M552.2,157.2c-3.7,7.1-11.8,13.8-22.9,14.5c-10.1,0.7-18.6-3.7-27.7-4.7c1.7-1,3.4-1,5.1-1.7
				c11.1-3.7,16.9-14.8,26.3-20.6c-4.7,7.4-7.1,18.9-18.2,20.9c3.4,0,6.7-0.7,10.1-1C536.3,164.3,547.1,163.6,552.2,157.2z"/>
			<path fill="#FFFFFF" d="M536.7,172.7c0,1.3-1.7,2.4-3,3.4c-4.4,3.4-11.1,6.4-19.2,5.7c-6.4-0.3-10.8-3.4-15.2-6.4
				c-4-3-8.4-7.1-15.2-6.1c7.8,3.7,14.8,8.8,20.9,14.5c-0.7,1.7-2.7,2.4-3.7,4c-4.7-4.7-8.8-9.8-14.8-13.8c-1.7-1-4.7-3-6.4-3.4
				c-1.7,0-4.7,2-6.4,3.4c-5.7,3.7-10.5,8.8-14.8,13.8c-1.3-1.3-3-2-4-4c6.1-5.4,12.8-10.8,20.9-14.2c-7.4-1.3-11.8,3.7-16.9,7.1
				c-3.7,2.4-7.8,4.7-13.2,5.1c-10.1,1-17.5-3.4-22.6-9.1c0-0.3,0.3,0,0.3,0c4.7,2,9.4,3.7,14.5,3.4c6.1-0.3,11.1-3.4,16.2-5.7
				c6.1-2.7,13.5-5.1,21.9-3.4c1,0.3,2,1,3.4,1c2.4,0,5.1-1.3,7.8-1.3c7.1-0.3,12.8,1.7,18.2,4c6.4,2.7,11.8,6.1,20.2,5.7
				C530.3,175.8,533.3,174.4,536.7,172.7z"/>
			<path fill="#FFFFFF" d="M516.8,99.9c0.3,0.3,0.3,0.7,0.3,1c-0.3-0.3-1-0.3-1-1C516.1,99.9,516.4,99.9,516.8,99.9z"/>
			<path fill="#FFFFFF" d="M505.3,80c0.7-0.3,0.7,0.3,1,0.3C506.3,81,505.3,80.6,505.3,80z"/>
			<path fill="#FFFFFF" d="M478.3,106.6c0.7,0,0.7,0.7,0.7,1.7C478.3,108.6,478.3,107.6,478.3,106.6z"/>
			<path fill="#FFFFFF" d="M478.3,116.4c0.3,1.3-1.3,1.7-2,1C475.3,116.4,477.3,115.7,478.3,116.4z"/>
			<path fill="#FFFFFF" d="M456,166.3c0.7,0.3,1.7,0.3,2.4,1c-9.1,1-17.2,5.4-27.3,4.7c-11.5-0.7-18.2-7.1-23.3-14.5
				c3.7,3,9.1,5.7,15.9,6.7c6.7,1,14.5,0.7,21.3,1.7c-3.4-1.3-6.4-2.7-8.4-4.7c-4.4-4.4-5.7-11.5-9.8-15.9
				c9.8,5.1,15.2,16.5,26.7,20.6C454.4,166,455,166,456,166.3z"/>
			<path fill="#FFFFFF" d="M424.7,144.4c2.4,7.1,5.1,14.5,10.1,18.2c-5.1-1.7-10.5-1.7-15.2-2.7c-4.4-1-8.4-3-11.8-5.4
				c-6.4-5.1-12.1-11.1-14.2-20.6c3,6.4,8.4,10.5,15.2,13.2c6.4,2.7,12.5,6.4,17.5,10.8c-3-3.4-6.7-7.4-8.4-13.5
				c-1.7-6.1-1.3-12.8-4-18.2C418.3,130.6,422.3,137,424.7,144.4z"/>
			<path fill="#FFFFFF" d="M431.1,36.8c-3.4,3.7-7.1,8.1-10.1,12.8c-3.4,4.7-7.4,8.1-11.8,11.5c0,0.3-0.7,0.7-0.3,0
				c2-6.4,3.4-11.8,7.4-15.9C420,40.8,425.3,39.1,431.1,36.8z"/>
			<path fill="#FFFFFF" d="M422,111c1,1,2,3.4,1.7,4.7C422.3,114.7,422.3,112.7,422,111z"/>
			<path fill="#FFFFFF" d="M422,52c0,15.5-15.9,17.5-20.9,28.7c0-6.1-0.7-12.1-0.3-17.5c0.7-9.4,5.4-14.5,12.8-17.2
				c0.3,0,0,0.3,0,0.3c-6.7,4.7-6.4,16.9-9.8,25.3C407.1,62.4,417.9,60.4,422,52z"/>
			<path fill="#FFFFFF" d="M407.8,106.9c5.7,11.1,2,31.4,8.8,41.5c-12.8-8.8-28.7-14.8-29.3-35.8c0-0.7,0-1.3,0-2
				c0.7-0.3,0-1.3,0.3-2c1,7.1,5.4,11.8,9.8,16.2c2.4,2.4,4.4,4.4,6.4,7.1c2,2.4,3.7,5.1,5.7,7.4c-1.7-3.4-3.4-6.4-3.7-10.5
				C404.8,121.4,408.8,114.4,407.8,106.9z"/>
			<path fill="#FFFFFF" d="M408.5,86.7c2,16.2-7.4,24.3-5.7,40.1c-3-4.7-7.1-8.8-10.1-13.8c-3.4-5.1-5.1-11.1-5.1-18.6
				c0-4.4,0.7-8.4,2-12.1c0.3,14.5,8.1,21.3,9.4,34.4h0.3v0.3c0,0,0,0,0-0.3l0,0c0-2.4-0.3-5.4-0.3-7.8
				C399.7,99.9,406.5,94.5,408.5,86.7z"/>
			<path fill="#FFFFFF" d="M414.2,68.5c-1,15.2-13.5,20.6-16.2,34.4c-0.7-8.4-6.4-15.2-6.4-25c0-8.4,3.7-15.2,7.8-20.2
				c-4.4,8.1,0.3,20.9-1,32.7C400,79.6,409.5,76.6,414.2,68.5z"/>
		</g>
	</g>
	<rect x="369.3" y="227" fill="#003399" stroke="#020202" stroke-width="9.507600e-02" width="106.6" height="106.6"/>
	<rect x="484" y="227" fill="#003399" stroke="#020202" stroke-width="9.507600e-02" width="106.6" height="106.6"/>
	<rect x="369.3" y="341.7" fill="#003399" stroke="#020202" stroke-width="9.507600e-02" width="106.6" height="106.6"/>
	<rect x="484" y="341.7" fill="#003399" stroke="#020202" stroke-width="9.507600e-02" width="106.6" height="106.6"/>
	<g>
		<path fill="#FFFFFF" d="M406.5,245.6v40.5c0,15.2,6.7,21.6,15.9,21.6c10.1,0,16.5-6.7,16.5-21.6v-40.5h8.8v39.8
			c0,20.9-11.1,29.3-26,29.3c-13.8,0-24.6-7.8-24.6-29v-40.1H406.5z"/>
	</g>
	<g>
		<path fill="#FFFFFF" d="M511.7,314.4v-68.5h9.8l21.9,34.4c5.1,8.1,9.1,15.2,12.1,22.3h0.3c-0.7-9.1-1-17.5-1-28v-28.7h8.4v68.1
			h-8.8L533,279.3c-4.7-7.8-9.4-15.5-12.8-22.9h-0.3c0.3,8.8,0.7,16.9,0.7,28v29.3h-8.8V314.4z"/>
	</g>
	<g>
		<path fill="#FFFFFF" d="M394.7,361.6c5.4-1,11.8-1.7,18.9-1.7c12.8,0,21.6,3,27.7,8.4c6.1,5.7,9.8,13.5,9.8,24.6
			c0,11.1-3.7,20.2-9.8,26.7c-6.4,6.4-16.9,9.8-30.4,9.8c-6.4,0-11.5-0.3-15.9-0.7v-67.1H394.7z M403.4,422c2.4,0.3,5.4,0.3,8.8,0.3
			c18.9,0,29-10.5,29-29c0-16.2-9.1-26.3-27.7-26.3c-4.7,0-8.1,0.3-10.5,1v54H403.4z"/>
	</g>
	<g>
		<path fill="#FFFFFF" d="M516.4,361.6c4.4-0.7,9.8-1.3,16.9-1.3c8.8,0,15.2,2,19.2,5.7c3.7,3.4,6.1,8.1,6.1,14.2
			c0,6.1-1.7,11.1-5.4,14.5c-4.7,5.1-12.1,7.4-20.9,7.4c-2.7,0-5.1,0-7.1-0.7v27.3h-8.8V361.6L516.4,361.6z M525.2,394.7
			c2,0.7,4.4,0.7,7.4,0.7c10.8,0,17.2-5.4,17.2-14.5c0-9.1-6.4-13.5-16.2-13.5c-3.7,0-6.7,0.3-8.4,0.7V394.7z"/>
	</g>
</g>
<g enable-background="new    ">
	<path fill="#666666" d="M382.5,484.9h-7l-2.1,10.9h8l-0.6,2.8h-11.1l5.4-28.5h10.5l-0.6,2.7h-7.5l-1.9,9.6h7.1L382.5,484.9z"/>
	<path fill="#666666" d="M384,498.5l2.5-13.5c0.6-3,0.8-5.4,1.1-7h2.7l-0.3,3.3h0.1c1.6-2.5,3.4-3.6,5.3-3.6c2.2,0,3.2,1.7,3.3,3.6
		c1.6-2.5,3.5-3.6,5.4-3.6c2.4,0,3.4,1.9,3.4,4.1c0,1-0.2,2.2-0.5,3.7l-2.5,13h-3l2.5-13c0.2-1.1,0.3-2.1,0.3-3.2c0-1.2-0.5-2-1.7-2
		c-1.9,0-4,2.8-4.8,6.8l-2.2,11.4h-3l2.5-13c0.2-1.1,0.3-2,0.3-3.1c0-1.2-0.5-2-1.7-2c-1.7,0-4,3-4.7,6.8l-2.2,11.4H384z"/>
	<path fill="#666666" d="M407.6,506.7l4-21.4c0.6-2.9,0.9-5.5,1.1-7.2h2.7l-0.4,3.3h0.1c1.3-2.2,3.3-3.7,5.3-3.6
		c3,0,3.8,2.8,3.8,5.8c0,6.4-3.3,15.3-9.4,15.3c-0.9,0-1.9-0.3-2.5-0.7h-0.1l-1.6,8.5H407.6z M412.6,495.6c0.6,0.4,1.2,0.8,2,0.8
		c4.7,0,6.4-9.4,6.4-12.5c0-1.9-0.4-3.6-2-3.6c-2,0-4.2,3.3-4.9,7.2L412.6,495.6z"/>
	<path fill="#666666" d="M439.9,484.4c0,5.2-2.5,14.5-8.9,14.5c-3.8,0-5-3.3-5-6.9c0-5.5,2.9-14.2,9.1-14.2
		C439.3,477.7,439.9,481.6,439.9,484.4z M429.2,491.6c0,2.3,0.2,4.7,2.3,4.7c3.7,0,5.3-8.7,5.3-12.2c0-2.1-0.4-4-2.2-4
		C431.3,480.2,429.2,487.6,429.2,491.6z"/>
	<path fill="#666666" d="M446,478l0.1,11.5c0,2.2,0,3.6-0.2,5.2h0.1c0.5-1.5,1.1-3.1,1.9-5l5-11.7h2.4l0.4,11.6
		c0,2.2,0.1,3.5-0.1,5.1h0.2c0.5-1.5,1-3.1,1.8-5.3l4.5-11.4h3l-8.9,20.5h-2.6l-0.6-11.1c-0.1-1.6,0-3.3,0.1-5.2h-0.1
		c-0.6,1.9-1.1,3.6-1.8,5.2l-4.8,11.1h-2.7l-1-20.5H446z"/>
	<path fill="#666666" d="M475,497.5c-1.5,0.8-3,1.3-4.8,1.3c-4.3,0-5.7-3.3-5.7-7.2c0-5.5,3.1-13.8,9-13.8c3,0,4.2,2.2,4.2,4.6
		c0,5-4.4,7.1-10,7.1c-0.1,0.6-0.3,2.9,0.1,4.2c0.5,1.7,1.5,2.6,3.1,2.6c1.6,0,2.7-0.6,3.7-1.1L475,497.5z M472.9,480.3
		c-1.9,0-3.8,2.2-5,6.7c3.3,0,6.8-1.1,6.8-4.4C474.7,481.1,474.1,480.3,472.9,480.3z"/>
	<path fill="#666666" d="M478,498.5l2.6-13.8c0.5-2.8,0.8-5.2,0.9-6.7h2.7c-0.1,1.1-0.1,2.2-0.3,3.9h0.1c1.3-2.5,3-4.2,5.1-4.2
		c0.2,0,0.4,0,0.6,0l-0.6,3.2c-0.1,0-0.3,0-0.4,0c-2.7,0-5,3.8-5.5,6.9l-2,10.8H478z"/>
	<path fill="#666666" d="M498.9,497.5c-1.5,0.8-3,1.3-4.8,1.3c-4.3,0-5.7-3.3-5.7-7.2c0-5.5,3.1-13.8,9-13.8c3,0,4.2,2.2,4.2,4.6
		c0,5-4.4,7.1-10,7.1c-0.1,0.6-0.3,2.9,0.1,4.2c0.5,1.7,1.5,2.6,3.1,2.6c1.6,0,2.7-0.6,3.7-1.1L498.9,497.5z M496.9,480.3
		c-1.9,0-3.8,2.2-5,6.7c3.3,0,6.8-1.1,6.8-4.4C498.7,481.1,498,480.3,496.9,480.3z"/>
	<path fill="#666666" d="M519.1,469.2l-4.2,22.1c-0.4,2.2-0.8,5.3-0.9,7.2h-2.6l0.3-3.2h-0.1c-1,2.1-2.9,3.5-4.9,3.5
		c-2.6,0-4.1-2.4-4.1-6.1c0-7,3.6-15,9.6-15c0.8,0,1.7,0.3,2.2,0.7l1.8-9.2H519.1z M513.8,481.1c-0.4-0.6-1-0.9-1.9-0.9
		c-3.9,0-6.2,7.8-6.2,11.9c0,2.4,0.5,4.1,2.2,4.1c1.5,0,3.5-1.9,4.3-5.9L513.8,481.1z"/>
	<path fill="#666666" d="M530,470h3.1l-4.9,25.8h7.8l-0.5,2.7h-10.9L530,470z"/>
	<path fill="#666666" d="M538,498.5l3.9-20.5h3l-3.9,20.5H538z M542.6,472.9c0.1-1.1,0.9-2.2,2.1-2.2c1.2,0,1.7,0.9,1.7,2
		c-0.1,1.4-1,2.2-2.2,2.2C543,474.8,542.5,474,542.6,472.9z"/>
	<path fill="#666666" d="M550.7,478l0.3,11.6c0,2.2,0,3.5-0.1,5h0.2c0.5-1.4,1-2.9,1.8-4.9l4.7-11.7h3.1l-9.1,20.5h-2.9l-1.2-20.5
		H550.7z"/>
	<path fill="#666666" d="M570.6,497.5c-1.5,0.8-3,1.3-4.8,1.3c-4.3,0-5.7-3.3-5.7-7.2c0-5.5,3.1-13.8,9-13.8c3,0,4.2,2.2,4.2,4.6
		c0,5-4.4,7.1-10,7.1c-0.1,0.6-0.3,2.9,0.1,4.2c0.5,1.7,1.5,2.6,3.1,2.6c1.6,0,2.7-0.6,3.7-1.1L570.6,497.5z M568.6,480.3
		c-1.9,0-3.8,2.2-5,6.7c3.3,0,6.8-1.1,6.8-4.4C570.4,481.1,569.8,480.3,568.6,480.3z"/>
	<path fill="#666666" d="M573.8,495.3c0.6,0.4,1.7,1,3.2,1c2.1,0,3.3-1.5,3.3-3.5c0-1.8-0.9-2.9-2.1-4c-1.4-1.3-2.7-3-2.7-5
		c0-3.5,2.5-6.2,6.4-6.2c1.4,0,2.6,0.3,3.2,0.8l-0.8,2.4c-0.6-0.4-1.5-0.6-2.4-0.6c-2.1,0-3.3,1.4-3.3,3.2c0,1.6,0.9,2.5,1.9,3.4
		c1.6,1.4,2.9,3.3,2.9,5.4c0,4.4-2.9,6.6-6.7,6.6c-1.6,0-3.2-0.6-3.8-1.1L573.8,495.3z"/>
</g>
<g enable-background="new    ">
	<path fill="#666666" d="M375.2,521.2c1.4-0.3,3-0.4,4.5-0.4c2.2,0,4.1,0.6,5.2,1.8c1.1,1.1,1.6,2.7,1.6,4.4c0,4-2.5,7.6-5.9,8.7
		v0.1c1.7,0.7,2.6,2.7,2.6,6.4c0,3.9,0.3,6.4,0.4,7.2h-3c-0.2-0.8-0.3-3.6-0.3-7.1c-0.1-4-1-5.5-3.6-5.5h-1.4l-2.3,12.6h-3
		L375.2,521.2z M375.7,534.4h1.5c3.4,0,6.1-3.1,6.1-7.2c0-2.2-1-3.9-3.7-3.9c-0.6,0-1.3,0-1.8,0.2L375.7,534.4z"/>
	<path fill="#666666" d="M397.6,548.4c-1.5,0.8-3,1.3-4.8,1.3c-4.3,0-5.7-3.3-5.7-7.2c0-5.5,3.1-13.8,9-13.8c3,0,4.2,2.2,4.2,4.6
		c0,5-4.4,7.1-10,7.1c-0.1,0.6-0.3,2.9,0.1,4.2c0.5,1.7,1.5,2.6,3.1,2.6c1.6,0,2.7-0.6,3.7-1.1L397.6,548.4z M395.5,531.2
		c-1.9,0-3.8,2.2-5,6.7c3.3,0,6.8-1.1,6.8-4.4C397.4,532.1,396.7,531.2,395.5,531.2z"/>
	<path fill="#666666" d="M400.7,546.3c0.6,0.4,1.7,1,3.2,1c2.1,0,3.3-1.5,3.3-3.5c0-1.8-0.9-2.9-2.1-4c-1.4-1.3-2.7-3-2.7-5
		c0-3.5,2.5-6.2,6.4-6.2c1.4,0,2.6,0.3,3.2,0.8l-0.8,2.4c-0.6-0.4-1.5-0.6-2.4-0.6c-2.1,0-3.3,1.4-3.3,3.2c0,1.6,0.9,2.5,1.9,3.4
		c1.6,1.4,2.9,3.3,2.9,5.4c0,4.4-2.9,6.6-6.7,6.6c-1.6,0-3.2-0.6-3.8-1.1L400.7,546.3z"/>
	<path fill="#666666" d="M412.6,549.5l3.9-20.5h3l-3.9,20.5H412.6z M417.1,523.8c0.1-1.1,0.9-2.2,2.1-2.2c1.2,0,1.7,0.9,1.7,2
		c-0.1,1.4-1,2.2-2.2,2.2C417.6,525.7,417.1,524.9,417.1,523.8z"/>
	<path fill="#666666" d="M420.1,549.5l5.5-29.3h3l-5.5,29.3H420.1z"/>
	<path fill="#666666" d="M427.7,549.5l3.9-20.5h3l-3.9,20.5H427.7z M432.3,523.8c0.1-1.1,0.9-2.2,2.1-2.2c1.2,0,1.7,0.9,1.7,2
		c-0.1,1.4-1,2.2-2.2,2.2C432.8,525.7,432.3,524.9,432.3,523.8z"/>
	<path fill="#666666" d="M446.6,548.4c-1.5,0.8-3,1.3-4.8,1.3c-4.3,0-5.7-3.3-5.7-7.2c0-5.5,3.1-13.8,9-13.8c3,0,4.2,2.2,4.2,4.6
		c0,5-4.4,7.1-10,7.1c-0.1,0.6-0.3,2.9,0.1,4.2c0.5,1.7,1.5,2.6,3.1,2.6c1.6,0,2.7-0.6,3.7-1.1L446.6,548.4z M444.5,531.2
		c-1.9,0-3.8,2.2-5,6.7c3.3,0,6.8-1.1,6.8-4.4C446.4,532.1,445.7,531.2,444.5,531.2z"/>
	<path fill="#666666" d="M449.6,549.5l2.5-13.5c0.6-3,0.8-5.4,1.1-7h2.7l-0.3,3.2h0.1c1.7-2.5,3.5-3.6,5.5-3.6
		c2.5,0,3.5,1.9,3.5,4.1c0,1.2-0.2,2.2-0.4,3.4l-2.5,13.3h-3l2.5-13.3c0.2-0.9,0.3-1.8,0.3-2.8c0-1.3-0.5-2.1-1.8-2.1
		c-1.9,0-4.2,2.9-4.9,6.8l-2.2,11.4H449.6z"/>
	<path fill="#666666" d="M474.7,524.2l-1,4.8h3.9l-0.5,2.3h-3.9L471,543c-0.2,1.1-0.3,2.1-0.3,2.6c0,1,0.4,1.6,1.4,1.6
		c0.5,0,0.8,0,1.2-0.1l-0.3,2.4c-0.7,0.3-1.5,0.3-2.2,0.3c-2.2,0-3.4-1.3-3.4-3.3c0-0.8,0.1-1.7,0.4-3.3l2.2-11.8h-2.5l0.4-2.3h2.5
		l0.6-3.5L474.7,524.2z"/>
	<path fill="#666666" d="M483,549.5l5.4-28.5h2.9l2.9,15.4c0.6,2.9,1.1,5.5,1.4,8.2h0.1c0.4-3,0.8-6.4,1.4-9.7l2.6-13.9h2.7
		l-5.4,28.5h-2.7l-3-14.9c-0.6-2.8-1.1-5.5-1.4-8.9h-0.1c-0.4,2.9-0.9,6.6-1.6,10l-2.6,13.8H483z"/>
	<path fill="#666666" d="M511.3,549.5c0-1.1,0.2-2.3,0.3-3.9h-0.1c-2,3.5-3.8,4.2-5.3,4.2c-2.4,0-3.9-2-3.9-5.8
		c0-6.2,3.3-15.4,11.2-15.4c1.4,0,2.9,0.3,3.8,0.7l-2.4,11.7c-0.5,2.8-0.9,6.1-0.9,8.4H511.3z M513.8,531.3
		c-0.4-0.1-0.8-0.2-1.3-0.2c-4.5,0-7.1,7.5-7.2,12c-0.1,2.6,0.4,4.1,1.9,4.1c2.1,0,4.3-4,5.1-8.1L513.8,531.3z"/>
	<path fill="#666666" d="M526.4,524.2l-1,4.8h3.9l-0.5,2.3H525l-2.2,11.7c-0.2,1.1-0.3,2.1-0.3,2.6c0,1,0.4,1.6,1.4,1.6
		c0.5,0,0.8,0,1.2-0.1l-0.3,2.4c-0.7,0.3-1.5,0.3-2.2,0.3c-2.2,0-3.4-1.3-3.4-3.3c0-0.8,0.1-1.7,0.4-3.3l2.2-11.8h-2.5l0.4-2.3h2.5
		l0.6-3.5L526.4,524.2z"/>
	<path fill="#666666" d="M528.2,549.5l3.9-20.5h3l-3.9,20.5H528.2z M532.8,523.8c0.1-1.1,0.9-2.2,2.1-2.2c1.2,0,1.7,0.9,1.7,2
		c-0.1,1.4-1,2.2-2.2,2.2C533.2,525.7,532.7,524.9,532.8,523.8z"/>
	<path fill="#666666" d="M550.2,535.3c0,5.2-2.5,14.5-8.9,14.5c-3.8,0-5-3.3-5-6.9c0-5.5,2.9-14.2,9.1-14.2
		C549.6,528.7,550.2,532.6,550.2,535.3z M539.5,542.6c0,2.3,0.2,4.7,2.3,4.7c3.7,0,5.3-8.7,5.3-12.2c0-2.1-0.4-4-2.2-4
		C541.6,531.2,539.5,538.5,539.5,542.6z"/>
	<path fill="#666666" d="M551.4,549.5l2.5-13.5c0.6-3,0.8-5.4,1.1-7h2.7l-0.3,3.2h0.1c1.7-2.5,3.5-3.6,5.5-3.6
		c2.5,0,3.5,1.9,3.5,4.1c0,1.2-0.2,2.2-0.4,3.4l-2.5,13.3h-3l2.5-13.3c0.2-0.9,0.3-1.8,0.3-2.8c0-1.3-0.5-2.1-1.8-2.1
		c-1.9,0-4.2,2.9-4.9,6.8l-2.2,11.4H551.4z"/>
	<path fill="#666666" d="M568.1,546.3c0.6,0.4,1.7,1,3.2,1c2.1,0,3.3-1.5,3.3-3.5c0-1.8-0.9-2.9-2.1-4c-1.4-1.3-2.7-3-2.7-5
		c0-3.5,2.5-6.2,6.4-6.2c1.4,0,2.6,0.3,3.2,0.8l-0.8,2.4c-0.6-0.4-1.5-0.6-2.4-0.6c-2.1,0-3.3,1.4-3.3,3.2c0,1.6,0.9,2.5,1.9,3.4
		c1.6,1.4,2.9,3.3,2.9,5.4c0,4.4-2.9,6.6-6.7,6.6c-1.6,0-3.2-0.6-3.8-1.1L568.1,546.3z"/>
</g>
</svg>
