<?xml version="1.0" encoding="utf-8"?>
<!-- Generator: Adobe Illustrator 18.1.1, SVG Export Plug-In . SVG Version: 6.00 Build 0)  -->
<svg version="1.1" id="Layer_1" xmlns="http://www.w3.org/2000/svg" xmlns:xlink="http://www.w3.org/1999/xlink" x="0px" y="0px"
	 viewBox="0 0 330 119.7" enable-background="new 0 0 330 119.7" xml:space="preserve">
<g>
	<path fill="#999999" d="M107.9,63.5c-17.5,0-31.7-14.2-31.7-31.7S90.4,0,107.9,0s31.7,14.2,31.7,31.7S125.4,63.5,107.9,63.5z
		 M107.9,12.7c-10.5,0-19,8.5-19,19s8.5,19,19,19s19-8.5,19-19S118.4,12.7,107.9,12.7z"/>
	<polygon fill="#FFFFFF" points="211.6,118.6 152.3,59.3 211.6,0 228.5,16.9 186,59.3 228.5,101.7 	"/>
	<polygon fill="#FFFFFF" points="270.7,118.6 253.8,101.7 296.3,59.3 253.8,16.9 270.7,0 330,59.3 	"/>
	<g>
		<circle fill="#555555" cx="31.7" cy="31.7" r="25.4"/>
		<path fill="#999999" d="M31.7,63.5C14.2,63.5,0,49.2,0,31.7S14.2,0,31.7,0s31.7,14.2,31.7,31.7S49.2,63.5,31.7,63.5z M31.7,12.7
			c-10.5,0-19,8.5-19,19s8.5,19,19,19s19-8.5,19-19S42.2,12.7,31.7,12.7z"/>
	</g>
</g>
</svg>
