<?xml version="1.0" encoding="utf-8"?>
<!-- Generator: Adobe Illustrator 18.1.1, SVG Export Plug-In . SVG Version: 6.00 Build 0)  -->
<svg version="1.1" id="Layer_1" xmlns="http://www.w3.org/2000/svg" xmlns:xlink="http://www.w3.org/1999/xlink" x="0px" y="0px"
	 viewBox="0 0 205 158" enable-background="new 0 0 205 158" xml:space="preserve">
<g>
	<rect x="0" y="0" fill="#EDF4FE" width="205" height="158"/>
	<path fill="#F7931E" stroke="#000000" stroke-width="3" stroke-miterlimit="10" d="M107.1,21.8l15.5,31.3c0.7,1.5,2.2,2.5,3.8,2.8
		l34.6,5c4.2,0.6,5.8,5.7,2.8,8.7l-25,24.4c-1.2,1.2-1.7,2.9-1.5,4.5l5.9,34.4c0.7,4.2-3.7,7.3-7.4,5.4l-30.9-16.3
		c-1.5-0.8-3.3-0.8-4.7,0l-30.9,16.3c-3.7,2-8.1-1.2-7.4-5.4l5.9-34.4c0.3-1.7-0.3-3.3-1.5-4.5l-25-24.4c-3-2.9-1.4-8.1,2.8-8.7
		l34.6-5c1.7-0.2,3.1-1.3,3.8-2.8l15.5-31.3C99.8,18.1,105.2,18.1,107.1,21.8z"/>
</g>
<g>
	<rect x="660.7" y="-7.5" fill="#EDF4FE" width="205" height="158"/>
	<g>
		<g>
			<path fill="#0055AA" stroke="#000000" stroke-width="2" stroke-miterlimit="10" d="M821.2,11.5h-116c-1.1,0-2,0.9-2,2v76
				c0,1.1,0.9,2,2,2h56v13.2L737.7,128c-0.8,0.8-0.8,2,0,2.8c0.8,0.8,2,0.8,2.8,0l22.6-22.6l22.6,22.6c0.4,0.4,0.9,0.6,1.4,0.6
				s1-0.2,1.4-0.6c0.8-0.8,0.8-2,0-2.8l-23.4-23.4V91.5h56c1.1,0,2-0.9,2-2v-76C823.2,12.4,822.3,11.5,821.2,11.5z M811.2,77.5
				c0,1.1-0.9,2-2,2h-92c-1.1,0-2-0.9-2-2v-24v-28c0-1.1,0.9-2,2-2h92c1.1,0,2,0.9,2,2V77.5z"/>
		</g>
		<path fill="#F15A24" d="M778.9,58.1c-1.8-1.8-4.4-2.4-6.7-1.5l-4.8-4.8l4.8-4.8c0.7,0.2,1.4,0.4,2.2,0.4c1.7,0,3.4-0.7,4.6-1.9
			c1.9-1.9,2.4-4.6,1.4-7c-0.1-0.2-0.2-0.3-0.5-0.4c-0.2,0-0.4,0-0.5,0.2l-2.6,3.1H774v-2.9l3-2.7c0.2-0.1,0.2-0.3,0.2-0.5
			c0-0.2-0.2-0.4-0.3-0.4c-0.8-0.3-1.7-0.5-2.5-0.5c-1.7,0-3.4,0.7-4.6,1.9c-1.8,1.8-2.4,4.4-1.5,6.7l-4.8,4.8l-4.8-4.8
			c0.8-2.4,0.3-5-1.5-6.7c-1.9-1.9-4.6-2.4-7-1.4c-0.2,0.1-0.3,0.2-0.4,0.4c0,0.2,0,0.4,0.2,0.5l3.1,2.7v2.9H750l-2.6-3.1
			c-0.1-0.2-0.3-0.2-0.5-0.2c-0.2,0-0.4,0.2-0.5,0.4c-1,2.4-0.5,5.2,1.4,7.1c1.8,1.8,4.4,2.3,6.7,1.5l4.8,4.8l-4.8,4.8
			c-0.7-0.2-1.4-0.4-2.2-0.4c-1.7,0-3.4,0.7-4.6,1.9c-1.9,1.9-2.4,4.7-1.4,7.1c0.1,0.2,0.2,0.3,0.4,0.3c0.2,0,0.4,0,0.5-0.2l2.6-3
			h2.9V65l-3.1,2.7c-0.2,0.1-0.2,0.3-0.2,0.5c0,0.2,0.2,0.4,0.4,0.4c0.8,0.3,1.7,0.5,2.5,0.5h0c1.7,0,3.3-0.7,4.5-1.9
			c1.8-1.8,2.3-4.4,1.5-6.7l4.8-4.8l4.8,4.8c-0.8,2.4-0.3,5,1.5,6.7c1.2,1.2,2.9,1.9,4.6,1.9c0.9,0,1.7-0.2,2.5-0.5
			c0.2-0.1,0.3-0.2,0.4-0.4c0-0.2,0-0.4-0.2-0.5l-3-2.6v-2.7h2.7l2.7,3c0.1,0.2,0.3,0.2,0.5,0.2c0.2,0,0.4-0.2,0.4-0.3
			C781.3,62.8,780.8,60,778.9,58.1z"/>
	</g>
</g>
<g>
	<rect x="936.7" y="-5.5" fill="#EDF4FE" width="205" height="158"/>
	<g>
		<path fill="#0088FF" stroke="#000000" stroke-width="3" stroke-miterlimit="10" d="M992.9,81.4c0.4,0,0.8-0.1,1.1-0.3l90.1-59.3
			l-1.6,14.2c-0.1,1.1,0.7,2.2,1.8,2.3c0.1,0,0.2,0,0.2,0c1,0,1.9-0.8,2.1-1.8l2.1-18.6c0-0.1,0-0.2,0-0.3c0-0.1,0-0.3,0-0.4
			c0-0.1-0.1-0.3-0.2-0.4c0-0.1,0-0.2-0.1-0.3c0,0,0,0-0.1-0.1c-0.1-0.1-0.2-0.2-0.3-0.3c-0.1-0.1-0.2-0.2-0.3-0.2
			c-0.1-0.1-0.2-0.1-0.3-0.1c-0.1-0.1-0.3-0.1-0.4-0.1c0,0-0.1,0-0.1,0l-18.6-2.1c-1.1-0.1-2.2,0.7-2.3,1.8
			c-0.1,1.1,0.7,2.2,1.8,2.3l12.9,1.4l-89,58.6c-1,0.6-1.2,1.9-0.6,2.9C991.6,81.1,992.3,81.4,992.9,81.4z"/>
		<path fill="#003366" stroke="#000000" stroke-width="3" stroke-miterlimit="10" d="M1099.2,129.3h-6.2V52.8c0-1.1-0.9-2.1-2.1-2.1
			h-16.6c-1.1,0-2.1,0.9-2.1,2.1v76.6h-8.3V73.5c0-1.1-0.9-2.1-2.1-2.1h-16.6c-1.1,0-2.1,0.9-2.1,2.1v55.9h-8.3V94.1
			c0-1.1-0.9-2.1-2.1-2.1h-16.6c-1.1,0-2.1,0.9-2.1,2.1v35.2h-8.3v-14.5c0-1.1-0.9-2.1-2.1-2.1h-16.6c-1.1,0-2.1,0.9-2.1,2.1v14.5
			h-6.2c-1.1,0-2.1,0.9-2.1,2.1c0,1.1,0.9,2.1,2.1,2.1h8.3h16.6h12.4h16.6h12.4h16.6h12.4h16.6h8.3c1.1,0,2.1-0.9,2.1-2.1
			C1101.2,130.2,1100.3,129.3,1099.2,129.3z"/>
	</g>
</g>
<g>
	<rect x="1209.7" y="-4.5" fill="#EDF4FE" width="205" height="158"/>
	<g>
		<path fill="#00FF00" stroke="#000000" stroke-width="3" stroke-miterlimit="10" d="M1242.5,102.7c0,0.9,0.5,1.7,1.3,2.1l63.7,29.6
			v-1.5v-3.6V85.6v0l-65-30.4V102.7z"/>
		<path fill="#FF0000" stroke="#000000" stroke-width="3" stroke-miterlimit="10" d="M1370.9,48.3c1.4-1.5,2.2-3.3,2.2-5.2
			c0-6.3-8.6-11.1-19.9-11.1c-5.4,0-10.1,1.1-13.7,2.9l-9.6-4.2c1.4-1.5,2.2-3.3,2.2-5.2c0-6.3-8.6-11.1-19.9-11.1
			c-11.3,0-19.9,4.8-19.9,11.1c0,1.9,0.8,3.7,2.2,5.2l-8.1,3.5c-3.3-1.4-7.5-2.2-12.2-2.2c-11.3,0-19.9,4.8-19.9,11.1
			c0,1.5,0.5,3,1.4,4.3l-10.5,3.9l64.8,30.2l69.2-30.3L1370.9,48.3z M1274.1,49.6c-8.7,0-15.3-3.4-15.3-6.5c0-3.1,6.5-6.5,15.3-6.5
			c8.7,0,15.3,3.4,15.3,6.5C1289.3,46.2,1282.8,49.6,1274.1,49.6z M1312.2,64.3c-8.7,0-15.3-3.4-15.3-6.5c0-3.1,6.5-6.5,15.3-6.5
			c8.7,0,15.2,3.4,15.2,6.5C1327.4,60.8,1320.9,64.3,1312.2,64.3z M1312.2,32c-8.7,0-15.3-3.4-15.3-6.5c0-3.1,6.5-6.5,15.3-6.5
			c8.7,0,15.2,3.4,15.2,6.5C1327.4,28.6,1320.9,32,1312.2,32z M1353.2,49.6c-8.7,0-15.3-3.4-15.3-6.5c0-3.1,6.5-6.5,15.3-6.5
			c8.7,0,15.2,3.4,15.2,6.5C1368.4,46.2,1361.9,49.6,1353.2,49.6z"/>
		<path fill="#0000FF" stroke="#000000" stroke-width="3" stroke-miterlimit="10" d="M1312.2,85.7L1312.2,85.7v43.7v3.5v1.5
			l68.3-29.6c0.9-0.4,1.4-1.2,1.4-2.1V55.2L1312.2,85.7z"/>
	</g>
</g>
<g>
	<rect x="376.7" y="-3.5" fill="#EDF4FE" width="205" height="158"/>
	<g>
		<path fill="#55BBFF" stroke="#020202" stroke-width="3" stroke-miterlimit="10" d="M419.2,55.5v78c0,1.1,0.9,2,2,2h116
			c1.1,0,2-0.9,2-2v-78H419.2z M479.2,73.5c0-1.1,0.9-2,2-2h24c0.7,0,1.3,0.3,1.7,0.9c0.4,0.5,0.4,1.2,0.2,1.9l-6.9,17.3h1.7
			c1.1,0,2,0.9,2,2s-0.9,2-2,2h-3.3l-7.4,18.6c-0.3,0.8-1.1,1.3-1.9,1.3c-0.2,0-0.5,0-0.7-0.1c-1-0.4-1.5-1.6-1.1-2.6l6.8-17.1h-7.5
			c-1.1,0-2-0.9-2-2s0.9-2,2-2h9.1l6.4-16h-19V78c0,1.1-0.9,2-2,2c-1.1,0-2-0.9-2-2V73.5z M456.6,84.9c-0.8,0.8-2,0.8-2.8,0
			c-0.8-0.8-0.8-2,0-2.8l10-10c0.6-0.6,1.4-0.8,2.2-0.4c0.7,0.3,1.2,1,1.2,1.8v38h8c1.1,0,2,0.9,2,2s-0.9,2-2,2h-20
			c-1.1,0-2-0.9-2-2s0.9-2,2-2h8V78.3L456.6,84.9z"/>
		<path fill="#55BBFF" stroke="#020202" stroke-width="3" stroke-miterlimit="10" d="M539.2,51.5v-22c0-1.1-0.9-2-2-2h-18v-10
			c0-1.1-0.9-2-2-2h-16c-1.1,0-2,0.9-2,2v10h-40v-10c0-1.1-0.9-2-2-2h-16c-1.1,0-2,0.9-2,2v10h-18c-1.1,0-2,0.9-2,2v22H539.2z
			 M503.2,19.5h12v16h-12V19.5z M455.2,35.5h-12v-16h12V35.5z"/>
	</g>
</g>
</svg>
