<?xml version="1.0" encoding="utf-8"?>
<!-- Generator: Adobe Illustrator 18.1.1, SVG Export Plug-In . SVG Version: 6.00 Build 0)  -->
<svg version="1.1" id="Layer_1" xmlns="http://www.w3.org/2000/svg" xmlns:xlink="http://www.w3.org/1999/xlink" x="0px" y="0px"
	 viewBox="0 0 205 158" enable-background="new 0 0 205 158" xml:space="preserve">
<g>
	<rect x="-360.1" y="-275.7" fill="#EDF4FE" width="205" height="158"/>
	<path fill="#F7931E" stroke="#000000" stroke-width="3" stroke-miterlimit="10" d="M-253-253.9l15.5,31.3c0.7,1.5,2.2,2.5,3.8,2.8
		l34.6,5c4.2,0.6,5.8,5.7,2.8,8.7l-25,24.4c-1.2,1.2-1.7,2.9-1.5,4.5l5.9,34.4c0.7,4.2-3.7,7.3-7.4,5.4l-30.9-16.3
		c-1.5-0.8-3.3-0.8-4.7,0l-30.9,16.3c-3.7,2-8.1-1.2-7.4-5.4l5.9-34.4c0.3-1.7-0.3-3.3-1.5-4.5l-25-24.4c-3-2.9-1.4-8.1,2.8-8.7
		l34.6-5c1.7-0.2,3.1-1.3,3.8-2.8l15.5-31.3C-260.3-257.7-254.9-257.7-253-253.9z"/>
</g>
<g>
	<rect x="300.5" y="-283.3" fill="#EDF4FE" width="205" height="158"/>
	<g>
		<g>
			<path fill="#0055AA" stroke="#000000" stroke-width="2" stroke-miterlimit="10" d="M461-264.3H345c-1.1,0-2,0.9-2,2v76
				c0,1.1,0.9,2,2,2h56v13.2l-23.4,23.4c-0.8,0.8-0.8,2,0,2.8c0.8,0.8,2,0.8,2.8,0l22.6-22.6l22.6,22.6c0.4,0.4,0.9,0.6,1.4,0.6
				s1-0.2,1.4-0.6c0.8-0.8,0.8-2,0-2.8L405-171.1v-13.2h56c1.1,0,2-0.9,2-2v-76C463-263.4,462.2-264.3,461-264.3z M451-198.3
				c0,1.1-0.9,2-2,2h-92c-1.1,0-2-0.9-2-2v-24v-28c0-1.1,0.9-2,2-2h92c1.1,0,2,0.9,2,2V-198.3z"/>
		</g>
		<path fill="#F15A24" d="M418.8-217.6c-1.8-1.8-4.4-2.4-6.7-1.5l-4.8-4.8l4.8-4.8c0.7,0.2,1.4,0.4,2.2,0.4c1.7,0,3.4-0.7,4.6-1.9
			c1.9-1.9,2.4-4.6,1.4-7c-0.1-0.2-0.2-0.3-0.5-0.4c-0.2,0-0.4,0-0.5,0.2l-2.6,3.1h-2.7v-2.9l3-2.7c0.2-0.1,0.2-0.3,0.2-0.5
			c0-0.2-0.2-0.4-0.3-0.4c-0.8-0.3-1.7-0.5-2.5-0.5c-1.7,0-3.4,0.7-4.6,1.9c-1.8,1.8-2.4,4.4-1.5,6.7l-4.8,4.8l-4.8-4.8
			c0.8-2.4,0.3-5-1.5-6.7c-1.9-1.9-4.6-2.4-7-1.4c-0.2,0.1-0.3,0.2-0.4,0.4c0,0.2,0,0.4,0.2,0.5l3.1,2.7v2.9h-2.9l-2.6-3.1
			c-0.1-0.2-0.3-0.2-0.5-0.2c-0.2,0-0.4,0.2-0.5,0.4c-1,2.4-0.5,5.2,1.4,7.1c1.8,1.8,4.4,2.3,6.7,1.5l4.8,4.8l-4.8,4.8
			c-0.7-0.2-1.4-0.4-2.2-0.4c-1.7,0-3.4,0.7-4.6,1.9c-1.9,1.9-2.4,4.7-1.4,7.1c0.1,0.2,0.2,0.3,0.4,0.3c0.2,0,0.4,0,0.5-0.2l2.6-3
			h2.9v2.7l-3.1,2.7c-0.2,0.1-0.2,0.3-0.2,0.5c0,0.2,0.2,0.4,0.4,0.4c0.8,0.3,1.7,0.5,2.5,0.5h0c1.7,0,3.3-0.7,4.5-1.9
			c1.8-1.8,2.3-4.4,1.5-6.7l4.8-4.8l4.8,4.8c-0.8,2.4-0.3,5,1.5,6.7c1.2,1.2,2.9,1.9,4.6,1.9c0.9,0,1.7-0.2,2.5-0.5
			c0.2-0.1,0.3-0.2,0.4-0.4c0-0.2,0-0.4-0.2-0.5l-3-2.6v-2.7h2.7l2.7,3c0.1,0.2,0.3,0.2,0.5,0.2c0.2,0,0.4-0.2,0.4-0.3
			C421.2-212.9,420.7-215.7,418.8-217.6z"/>
	</g>
</g>
<g>
	<rect x="576.5" y="-281.3" fill="#EDF4FE" width="205" height="158"/>
	<g>
		<path fill="#0088FF" stroke="#000000" stroke-width="3" stroke-miterlimit="10" d="M632.8-194.3c0.4,0,0.8-0.1,1.1-0.3l90.1-59.3
			l-1.6,14.2c-0.1,1.1,0.7,2.2,1.8,2.3c0.1,0,0.2,0,0.2,0c1,0,1.9-0.8,2.1-1.8l2.1-18.6c0-0.1,0-0.2,0-0.3c0-0.1,0-0.3,0-0.4
			c0-0.1-0.1-0.3-0.2-0.4c0-0.1,0-0.2-0.1-0.3c0,0,0,0-0.1-0.1c-0.1-0.1-0.2-0.2-0.3-0.3c-0.1-0.1-0.2-0.2-0.3-0.2
			c-0.1-0.1-0.2-0.1-0.3-0.1c-0.1-0.1-0.3-0.1-0.4-0.1c0,0-0.1,0-0.1,0l-18.6-2.1c-1.1-0.1-2.2,0.7-2.3,1.8
			c-0.1,1.1,0.7,2.2,1.8,2.3l12.9,1.4l-89,58.6c-1,0.6-1.2,1.9-0.6,2.9C631.5-194.7,632.1-194.3,632.8-194.3z"/>
		<path fill="#003366" stroke="#000000" stroke-width="3" stroke-miterlimit="10" d="M739-146.4h-6.2V-223c0-1.1-0.9-2.1-2.1-2.1
			h-16.6c-1.1,0-2.1,0.9-2.1,2.1v76.6h-8.3v-55.9c0-1.1-0.9-2.1-2.1-2.1h-16.6c-1.1,0-2.1,0.9-2.1,2.1v55.9h-8.3v-35.2
			c0-1.1-0.9-2.1-2.1-2.1h-16.6c-1.1,0-2.1,0.9-2.1,2.1v35.2h-8.3v-14.5c0-1.1-0.9-2.1-2.1-2.1h-16.6c-1.1,0-2.1,0.9-2.1,2.1v14.5
			H619c-1.1,0-2.1,0.9-2.1,2.1s0.9,2.1,2.1,2.1h8.3h16.6h12.4h16.6h12.4h16.6h12.4h16.6h8.3c1.1,0,2.1-0.9,2.1-2.1
			S740.2-146.4,739-146.4z"/>
	</g>
</g>
<g>
	<rect x="849.5" y="-280.3" fill="#EDF4FE" width="205" height="158"/>
	<g>
		<path fill="#00FF00" stroke="#000000" stroke-width="3" stroke-miterlimit="10" d="M882.4-173c0,0.9,0.5,1.7,1.3,2.1l63.7,29.6
			v-1.5v-3.6v-43.7v0l-65-30.4V-173z"/>
		<path fill="#FF0000" stroke="#000000" stroke-width="3" stroke-miterlimit="10" d="M1010.8-227.4c1.4-1.5,2.2-3.3,2.2-5.2
			c0-6.3-8.6-11.1-19.9-11.1c-5.4,0-10.1,1.1-13.7,2.9l-9.6-4.2c1.4-1.5,2.2-3.3,2.2-5.2c0-6.3-8.6-11.1-19.9-11.1
			c-11.3,0-19.9,4.8-19.9,11.1c0,1.9,0.8,3.7,2.2,5.2l-8.1,3.5c-3.3-1.4-7.5-2.2-12.2-2.2c-11.3,0-19.9,4.8-19.9,11.1
			c0,1.5,0.5,3,1.4,4.3l-10.5,3.9l64.8,30.2l69.2-30.3L1010.8-227.4z M914-226.1c-8.7,0-15.3-3.4-15.3-6.5c0-3.1,6.5-6.5,15.3-6.5
			c8.7,0,15.3,3.4,15.3,6.5C929.2-229.5,922.7-226.1,914-226.1z M952-211.5c-8.7,0-15.3-3.4-15.3-6.5c0-3.1,6.5-6.5,15.3-6.5
			c8.7,0,15.2,3.4,15.2,6.5C967.3-214.9,960.8-211.5,952-211.5z M952-243.7c-8.7,0-15.3-3.4-15.3-6.5c0-3.1,6.5-6.5,15.3-6.5
			c8.7,0,15.2,3.4,15.2,6.5C967.3-247.1,960.8-243.7,952-243.7z M993.1-226.1c-8.7,0-15.3-3.4-15.3-6.5c0-3.1,6.5-6.5,15.3-6.5
			c8.7,0,15.2,3.4,15.2,6.5C1008.3-229.5,1001.8-226.1,993.1-226.1z"/>
		<path fill="#0000FF" stroke="#000000" stroke-width="3" stroke-miterlimit="10" d="M952-190.1L952-190.1v43.7v3.5v1.5l68.3-29.6
			c0.9-0.4,1.4-1.2,1.4-2.1v-47.6L952-190.1z"/>
	</g>
</g>
<g>
	<rect x="16.5" y="-279.3" fill="#EDF4FE" width="205" height="158"/>
	<g>
		<path fill="#55BBFF" stroke="#020202" stroke-width="3" stroke-miterlimit="10" d="M59-220.3v78c0,1.1,0.9,2,2,2h116
			c1.1,0,2-0.9,2-2v-78H59z M119-202.3c0-1.1,0.9-2,2-2h24c0.7,0,1.3,0.3,1.7,0.9c0.4,0.5,0.4,1.2,0.2,1.9l-6.9,17.3h1.7
			c1.1,0,2,0.9,2,2s-0.9,2-2,2h-3.3l-7.4,18.6c-0.3,0.8-1.1,1.3-1.9,1.3c-0.2,0-0.5,0-0.7-0.1c-1-0.4-1.5-1.6-1.1-2.6l6.8-17.1h-7.5
			c-1.1,0-2-0.9-2-2s0.9-2,2-2h9.1l6.4-16h-19v2.5c0,1.1-0.9,2-2,2s-2-0.9-2-2V-202.3z M96.5-190.9c-0.8,0.8-2,0.8-2.8,0
			c-0.8-0.8-0.8-2,0-2.8l10-10c0.6-0.6,1.4-0.8,2.2-0.4c0.7,0.3,1.2,1,1.2,1.8v38h8c1.1,0,2,0.9,2,2s-0.9,2-2,2H95c-1.1,0-2-0.9-2-2
			s0.9-2,2-2h8v-33.2L96.5-190.9z"/>
		<path fill="#55BBFF" stroke="#020202" stroke-width="3" stroke-miterlimit="10" d="M179-224.3v-22c0-1.1-0.9-2-2-2h-18v-10
			c0-1.1-0.9-2-2-2h-16c-1.1,0-2,0.9-2,2v10H99v-10c0-1.1-0.9-2-2-2H81c-1.1,0-2,0.9-2,2v10H61c-1.1,0-2,0.9-2,2v22H179z M143-256.3
			h12v16h-12V-256.3z M95-240.3H83v-16h12V-240.3z"/>
	</g>
</g>
<rect x="-297.1" y="10.3" fill="#EDF4FE" width="205" height="158"/>
<path fill="#A3BCCC" stroke="#000000" stroke-width="3" stroke-miterlimit="10" d="M-122.1,29.3h-145c-1.4,0-2.5,1.1-2.5,2.5v115
	c0,1.4,1.1,2.5,2.5,2.5h145c1.4,0,2.5-1.1,2.5-2.5v-115C-119.6,30.4-120.7,29.3-122.1,29.3z M-202.1,134.3h-45
	c-1.4,0-2.5-1.1-2.5-2.5c0-1.4,1.1-2.5,2.5-2.5h45c1.4,0,2.5,1.1,2.5,2.5C-199.6,133.2-200.7,134.3-202.1,134.3z M-202.1,124.3h-45
	c-1.4,0-2.5-1.1-2.5-2.5s1.1-2.5,2.5-2.5h45c1.4,0,2.5,1.1,2.5,2.5S-200.7,124.3-202.1,124.3z M-202.1,114.3h-45
	c-1.4,0-2.5-1.1-2.5-2.5s1.1-2.5,2.5-2.5h45c1.4,0,2.5,1.1,2.5,2.5S-200.7,114.3-202.1,114.3z M-202.1,104.3h-45
	c-1.4,0-2.5-1.1-2.5-2.5s1.1-2.5,2.5-2.5h45c1.4,0,2.5,1.1,2.5,2.5S-200.7,104.3-202.1,104.3z M-202.1,94.3h-40
	c-1.4,0-2.5-1.1-2.5-2.5s1.1-2.5,2.5-2.5h40c1.4,0,2.5,1.1,2.5,2.5S-200.7,94.3-202.1,94.3z M-152.1,134.3h-35
	c-1.4,0-2.5-1.1-2.5-2.5c0-1.4,1.1-2.5,2.5-2.5h35c1.4,0,2.5,1.1,2.5,2.5C-149.6,133.2-150.7,134.3-152.1,134.3z M-142.1,124.3h-45
	c-1.4,0-2.5-1.1-2.5-2.5s1.1-2.5,2.5-2.5h45c1.4,0,2.5,1.1,2.5,2.5S-140.7,124.3-142.1,124.3z M-142.1,114.3h-45
	c-1.4,0-2.5-1.1-2.5-2.5s1.1-2.5,2.5-2.5h45c1.4,0,2.5,1.1,2.5,2.5S-140.7,114.3-142.1,114.3z M-142.1,104.3h-45
	c-1.4,0-2.5-1.1-2.5-2.5s1.1-2.5,2.5-2.5h45c1.4,0,2.5,1.1,2.5,2.5S-140.7,104.3-142.1,104.3z M-142.1,94.3h-45
	c-1.4,0-2.5-1.1-2.5-2.5s1.1-2.5,2.5-2.5h45c1.4,0,2.5,1.1,2.5,2.5S-140.7,94.3-142.1,94.3z M-134.6,71.8c0,1.4-1.1,2.5-2.5,2.5
	h-115c-1.4,0-2.5-1.1-2.5-2.5v-25c0-1.4,1.1-2.5,2.5-2.5h115c1.4,0,2.5,1.1,2.5,2.5V71.8z"/>
<rect x="0" y="0" fill="#EDF4FE" width="205" height="158"/>
<path fill="#7AC943" stroke="#000000" stroke-width="3" stroke-miterlimit="10" d="M150.1,52.1h-23c-1-5.1-5.5-9.7-11-12.7
	l16.8-16.8c0.8-0.8,0.8-2.1,0-2.9c-0.8-0.8-2.1-0.8-2.9,0l-17.9,17.9c-3.2-1.2-6.5-1.9-9.6-1.9s-6.4,0.7-9.6,1.9L75,19.6
	c-0.8-0.8-2.1-0.8-2.9,0c-0.8,0.8-0.8,2.1,0,2.9l16.8,16.8c-5.5,3.1-10,7.7-11,12.7h-23c-8,0-14.5,6.5-14.5,14.5v57.9
	c0,8,6.5,14.5,14.5,14.5h95.2c8,0,14.5-6.5,14.5-14.5V66.6C164.6,58.6,158.1,52.1,150.1,52.1z M127.3,116.2
	c0,2.4-1.4,14.5-29.9,14.5H81.8c-25.2,0-29-9.5-29-15.2V73.8c0-13.4,21.8-13.4,29-13.4h15.7c19.8,0,29.9,4.8,29.9,14.1V116.2z
	 M143.9,116.2c-5.7,0-10.3-4.6-10.3-10.3c0-5.7,4.6-10.3,10.3-10.3s10.3,4.6,10.3,10.3C154.2,111.6,149.6,116.2,143.9,116.2z
	 M143.9,87.3c-5.7,0-10.3-4.6-10.3-10.3s4.6-10.3,10.3-10.3s10.3,4.6,10.3,10.3S149.6,87.3,143.9,87.3z"/>
</svg>
