<?xml version="1.0" encoding="utf-8"?>
<!-- Generator: Adobe Illustrator 18.1.1, SVG Export Plug-In . SVG Version: 6.00 Build 0)  -->
<svg version="1.1" id="Layer_1" xmlns="http://www.w3.org/2000/svg" xmlns:xlink="http://www.w3.org/1999/xlink" x="0px" y="0px"
	 viewBox="0 0 205 158" enable-background="new 0 0 205 158" xml:space="preserve">
<g>
	<rect x="-63" y="-286" fill="#EDF4FE" width="205" height="158"/>
	<path fill="#F7931E" stroke="#000000" stroke-width="3" stroke-miterlimit="10" d="M44.1-264.2l15.5,31.3c0.7,1.5,2.2,2.5,3.8,2.8
		l34.6,5c4.2,0.6,5.8,5.7,2.8,8.7l-25,24.4c-1.2,1.2-1.7,2.9-1.5,4.5l5.9,34.4c0.7,4.2-3.7,7.3-7.4,5.4l-30.9-16.3
		c-1.5-0.8-3.3-0.8-4.7,0L6.2-147.6c-3.7,2-8.1-1.2-7.4-5.4l5.9-34.4c0.3-1.7-0.3-3.3-1.5-4.5l-25-24.4c-3-2.9-1.4-8.1,2.8-8.7
		l34.6-5c1.7-0.2,3.1-1.3,3.8-2.8l15.5-31.3C36.8-267.9,42.2-267.9,44.1-264.2z"/>
</g>
<g>
	<rect x="597.7" y="-293.5" fill="#EDF4FE" width="205" height="158"/>
	<g>
		<g>
			<path fill="#0055AA" stroke="#000000" stroke-width="2" stroke-miterlimit="10" d="M758.2-274.5h-116c-1.1,0-2,0.9-2,2v76
				c0,1.1,0.9,2,2,2h56v13.2L674.7-158c-0.8,0.8-0.8,2,0,2.8c0.8,0.8,2,0.8,2.8,0l22.6-22.6l22.6,22.6c0.4,0.4,0.9,0.6,1.4,0.6
				s1-0.2,1.4-0.6c0.8-0.8,0.8-2,0-2.8l-23.4-23.4v-13.2h56c1.1,0,2-0.9,2-2v-76C760.2-273.6,759.3-274.5,758.2-274.5z M748.2-208.5
				c0,1.1-0.9,2-2,2h-92c-1.1,0-2-0.9-2-2v-24v-28c0-1.1,0.9-2,2-2h92c1.1,0,2,0.9,2,2V-208.5z"/>
		</g>
		<path fill="#F15A24" d="M715.9-227.9c-1.8-1.8-4.4-2.4-6.7-1.5l-4.8-4.8l4.8-4.8c0.7,0.2,1.4,0.4,2.2,0.4c1.7,0,3.4-0.7,4.6-1.9
			c1.9-1.9,2.4-4.6,1.4-7c-0.1-0.2-0.2-0.3-0.5-0.4c-0.2,0-0.4,0-0.5,0.2l-2.6,3.1H711v-2.9l3-2.7c0.2-0.1,0.2-0.3,0.2-0.5
			c0-0.2-0.2-0.4-0.3-0.4c-0.8-0.3-1.7-0.5-2.5-0.5c-1.7,0-3.4,0.7-4.6,1.9c-1.8,1.8-2.4,4.4-1.5,6.7l-4.8,4.8l-4.8-4.8
			c0.8-2.4,0.3-5-1.5-6.7c-1.9-1.9-4.6-2.4-7-1.4c-0.2,0.1-0.3,0.2-0.4,0.4c0,0.2,0,0.4,0.2,0.5l3.1,2.7v2.9H687l-2.6-3.1
			c-0.1-0.2-0.3-0.2-0.5-0.2c-0.2,0-0.4,0.2-0.5,0.4c-1,2.4-0.5,5.2,1.4,7.1c1.8,1.8,4.4,2.3,6.7,1.5l4.8,4.8l-4.8,4.8
			c-0.7-0.2-1.4-0.4-2.2-0.4c-1.7,0-3.4,0.7-4.6,1.9c-1.9,1.9-2.4,4.7-1.4,7.1c0.1,0.2,0.2,0.3,0.4,0.3c0.2,0,0.4,0,0.5-0.2l2.6-3
			h2.9v2.7l-3.1,2.7c-0.2,0.1-0.2,0.3-0.2,0.5c0,0.2,0.2,0.4,0.4,0.4c0.8,0.3,1.7,0.5,2.5,0.5h0c1.7,0,3.3-0.7,4.5-1.9
			c1.8-1.8,2.3-4.4,1.5-6.7l4.8-4.8l4.8,4.8c-0.8,2.4-0.3,5,1.5,6.7c1.2,1.2,2.9,1.9,4.6,1.9c0.9,0,1.7-0.2,2.5-0.5
			c0.2-0.1,0.3-0.2,0.4-0.4c0-0.2,0-0.4-0.2-0.5l-3-2.6v-2.7h2.7l2.7,3c0.1,0.2,0.3,0.2,0.5,0.2c0.2,0,0.4-0.2,0.4-0.3
			C718.3-223.2,717.8-226,715.9-227.9z"/>
	</g>
</g>
<g>
	<rect x="873.7" y="-291.5" fill="#EDF4FE" width="205" height="158"/>
	<g>
		<path fill="#0088FF" stroke="#000000" stroke-width="3" stroke-miterlimit="10" d="M929.9-204.6c0.4,0,0.8-0.1,1.1-0.3l90.1-59.3
			l-1.6,14.2c-0.1,1.1,0.7,2.2,1.8,2.3c0.1,0,0.2,0,0.2,0c1,0,1.9-0.8,2.1-1.8l2.1-18.6c0-0.1,0-0.2,0-0.3c0-0.1,0-0.3,0-0.4
			c0-0.1-0.1-0.3-0.2-0.4c0-0.1,0-0.2-0.1-0.3c0,0,0,0-0.1-0.1c-0.1-0.1-0.2-0.2-0.3-0.3c-0.1-0.1-0.2-0.2-0.3-0.2
			c-0.1-0.1-0.2-0.1-0.3-0.1c-0.1-0.1-0.3-0.1-0.4-0.1c0,0-0.1,0-0.1,0l-18.6-2.1c-1.1-0.1-2.2,0.7-2.3,1.8
			c-0.1,1.1,0.7,2.2,1.8,2.3l12.9,1.4l-89,58.6c-1,0.6-1.2,1.9-0.6,2.9C928.6-204.9,929.3-204.6,929.9-204.6z"/>
		<path fill="#003366" stroke="#000000" stroke-width="3" stroke-miterlimit="10" d="M1036.2-156.7h-6.2v-76.6
			c0-1.1-0.9-2.1-2.1-2.1h-16.6c-1.1,0-2.1,0.9-2.1,2.1v76.6h-8.3v-55.9c0-1.1-0.9-2.1-2.1-2.1h-16.6c-1.1,0-2.1,0.9-2.1,2.1v55.9
			H972v-35.2c0-1.1-0.9-2.1-2.1-2.1h-16.6c-1.1,0-2.1,0.9-2.1,2.1v35.2h-8.3v-14.5c0-1.1-0.9-2.1-2.1-2.1h-16.6
			c-1.1,0-2.1,0.9-2.1,2.1v14.5h-6.2c-1.1,0-2.1,0.9-2.1,2.1c0,1.1,0.9,2.1,2.1,2.1h8.3H941h12.4H970h12.4h16.6h12.4h16.6h8.3
			c1.1,0,2.1-0.9,2.1-2.1C1038.2-155.8,1037.3-156.7,1036.2-156.7z"/>
	</g>
</g>
<g>
	<rect x="1146.7" y="-290.5" fill="#EDF4FE" width="205" height="158"/>
	<g>
		<path fill="#00FF00" stroke="#000000" stroke-width="3" stroke-miterlimit="10" d="M1179.5-183.3c0,0.9,0.5,1.7,1.3,2.1l63.7,29.6
			v-1.5v-3.6v-43.7v0l-65-30.4V-183.3z"/>
		<path fill="#FF0000" stroke="#000000" stroke-width="3" stroke-miterlimit="10" d="M1307.9-237.7c1.4-1.5,2.2-3.3,2.2-5.2
			c0-6.3-8.6-11.1-19.9-11.1c-5.4,0-10.1,1.1-13.7,2.9l-9.6-4.2c1.4-1.5,2.2-3.3,2.2-5.2c0-6.3-8.6-11.1-19.9-11.1
			c-11.3,0-19.9,4.8-19.9,11.1c0,1.9,0.8,3.7,2.2,5.2l-8.1,3.5c-3.3-1.4-7.5-2.2-12.2-2.2c-11.3,0-19.9,4.8-19.9,11.1
			c0,1.5,0.5,3,1.4,4.3l-10.5,3.9l64.8,30.2l69.2-30.3L1307.9-237.7z M1211.1-236.4c-8.7,0-15.3-3.4-15.3-6.5
			c0-3.1,6.5-6.5,15.3-6.5c8.7,0,15.3,3.4,15.3,6.5C1226.3-239.8,1219.8-236.4,1211.1-236.4z M1249.2-221.7
			c-8.7,0-15.3-3.4-15.3-6.5c0-3.1,6.5-6.5,15.3-6.5c8.7,0,15.2,3.4,15.2,6.5C1264.4-225.2,1257.9-221.7,1249.2-221.7z M1249.2-254
			c-8.7,0-15.3-3.4-15.3-6.5c0-3.1,6.5-6.5,15.3-6.5c8.7,0,15.2,3.4,15.2,6.5C1264.4-257.4,1257.9-254,1249.2-254z M1290.2-236.4
			c-8.7,0-15.3-3.4-15.3-6.5c0-3.1,6.5-6.5,15.3-6.5c8.7,0,15.2,3.4,15.2,6.5C1305.4-239.8,1298.9-236.4,1290.2-236.4z"/>
		<path fill="#0000FF" stroke="#000000" stroke-width="3" stroke-miterlimit="10" d="M1249.2-200.3L1249.2-200.3v43.7v3.5v1.5
			l68.3-29.6c0.9-0.4,1.4-1.2,1.4-2.1v-47.6L1249.2-200.3z"/>
	</g>
</g>
<g>
	<rect x="313.7" y="-289.5" fill="#EDF4FE" width="205" height="158"/>
	<g>
		<path fill="#55BBFF" stroke="#020202" stroke-width="3" stroke-miterlimit="10" d="M356.2-230.5v78c0,1.1,0.9,2,2,2h116
			c1.1,0,2-0.9,2-2v-78H356.2z M416.2-212.5c0-1.1,0.9-2,2-2h24c0.7,0,1.3,0.3,1.7,0.9c0.4,0.5,0.4,1.2,0.2,1.9l-6.9,17.3h1.7
			c1.1,0,2,0.9,2,2c0,1.1-0.9,2-2,2h-3.3l-7.4,18.6c-0.3,0.8-1.1,1.3-1.9,1.3c-0.2,0-0.5,0-0.7-0.1c-1-0.4-1.5-1.6-1.1-2.6l6.8-17.1
			h-7.5c-1.1,0-2-0.9-2-2c0-1.1,0.9-2,2-2h9.1l6.4-16h-19v2.5c0,1.1-0.9,2-2,2c-1.1,0-2-0.9-2-2V-212.5z M393.6-201.1
			c-0.8,0.8-2,0.8-2.8,0c-0.8-0.8-0.8-2,0-2.8l10-10c0.6-0.6,1.4-0.8,2.2-0.4c0.7,0.3,1.2,1,1.2,1.8v38h8c1.1,0,2,0.9,2,2
			c0,1.1-0.9,2-2,2h-20c-1.1,0-2-0.9-2-2c0-1.1,0.9-2,2-2h8v-33.2L393.6-201.1z"/>
		<path fill="#55BBFF" stroke="#020202" stroke-width="3" stroke-miterlimit="10" d="M476.2-234.5v-22c0-1.1-0.9-2-2-2h-18v-10
			c0-1.1-0.9-2-2-2h-16c-1.1,0-2,0.9-2,2v10h-40v-10c0-1.1-0.9-2-2-2h-16c-1.1,0-2,0.9-2,2v10h-18c-1.1,0-2,0.9-2,2v22H476.2z
			 M440.2-266.5h12v16h-12V-266.5z M392.2-250.5h-12v-16h12V-250.5z"/>
	</g>
</g>
<rect x="0" y="0" fill="#EDF4FE" width="205" height="158"/>
<path fill="#A3BCCC" stroke="#000000" stroke-width="3" stroke-miterlimit="10" d="M175,19H30c-1.4,0-2.5,1.1-2.5,2.5v115
	c0,1.4,1.1,2.5,2.5,2.5h145c1.4,0,2.5-1.1,2.5-2.5v-115C177.5,20.1,176.4,19,175,19z M95,124H50c-1.4,0-2.5-1.1-2.5-2.5
	s1.1-2.5,2.5-2.5h45c1.4,0,2.5,1.1,2.5,2.5S96.4,124,95,124z M95,114H50c-1.4,0-2.5-1.1-2.5-2.5s1.1-2.5,2.5-2.5h45
	c1.4,0,2.5,1.1,2.5,2.5S96.4,114,95,114z M95,104H50c-1.4,0-2.5-1.1-2.5-2.5S48.6,99,50,99h45c1.4,0,2.5,1.1,2.5,2.5
	S96.4,104,95,104z M95,94H50c-1.4,0-2.5-1.1-2.5-2.5S48.6,89,50,89h45c1.4,0,2.5,1.1,2.5,2.5S96.4,94,95,94z M95,84H55
	c-1.4,0-2.5-1.1-2.5-2.5S53.6,79,55,79h40c1.4,0,2.5,1.1,2.5,2.5S96.4,84,95,84z M145,124h-35c-1.4,0-2.5-1.1-2.5-2.5
	s1.1-2.5,2.5-2.5h35c1.4,0,2.5,1.1,2.5,2.5S146.4,124,145,124z M155,114h-45c-1.4,0-2.5-1.1-2.5-2.5s1.1-2.5,2.5-2.5h45
	c1.4,0,2.5,1.1,2.5,2.5S156.4,114,155,114z M155,104h-45c-1.4,0-2.5-1.1-2.5-2.5s1.1-2.5,2.5-2.5h45c1.4,0,2.5,1.1,2.5,2.5
	S156.4,104,155,104z M155,94h-45c-1.4,0-2.5-1.1-2.5-2.5s1.1-2.5,2.5-2.5h45c1.4,0,2.5,1.1,2.5,2.5S156.4,94,155,94z M155,84h-45
	c-1.4,0-2.5-1.1-2.5-2.5s1.1-2.5,2.5-2.5h45c1.4,0,2.5,1.1,2.5,2.5S156.4,84,155,84z M162.5,61.5c0,1.4-1.1,2.5-2.5,2.5H45
	c-1.4,0-2.5-1.1-2.5-2.5v-25c0-1.4,1.1-2.5,2.5-2.5h115c1.4,0,2.5,1.1,2.5,2.5V61.5z"/>
<rect x="297.1" y="-10.3" fill="#EDF4FE" width="205" height="158"/>
<path fill="#7AC943" stroke="#000000" stroke-width="3" stroke-miterlimit="10" d="M447.2,41.8h-23c-1-5.1-5.5-9.7-11-12.7L430,12.3
	c0.8-0.8,0.8-2.1,0-2.9c-0.8-0.8-2.1-0.8-2.9,0l-17.9,17.9c-3.2-1.2-6.5-1.9-9.6-1.9s-6.4,0.7-9.6,1.9L372.1,9.3
	c-0.8-0.8-2.1-0.8-2.9,0c-0.8,0.8-0.8,2.1,0,2.9L386,29.1c-5.5,3.1-10,7.7-11,12.7h-23c-8,0-14.5,6.5-14.5,14.5v57.9
	c0,8,6.5,14.5,14.5,14.5h95.2c8,0,14.5-6.5,14.5-14.5V56.3C461.7,48.3,455.2,41.8,447.2,41.8z M424.4,106c0,2.4-1.4,14.5-29.9,14.5
	h-15.7c-25.2,0-29-9.5-29-15.2V63.5c0-13.4,21.8-13.4,29-13.4h15.7c19.8,0,29.9,4.8,29.9,14.1V106z M441,106
	c-5.7,0-10.3-4.6-10.3-10.3c0-5.7,4.6-10.3,10.3-10.3c5.7,0,10.3,4.6,10.3,10.3C451.3,101.3,446.7,106,441,106z M441,77
	c-5.7,0-10.3-4.6-10.3-10.3s4.6-10.3,10.3-10.3c5.7,0,10.3,4.6,10.3,10.3S446.7,77,441,77z"/>
</svg>
