<?xml version="1.0" encoding="utf-8"?>
<!-- Generator: Adobe Illustrator 18.1.1, SVG Export Plug-In . SVG Version: 6.00 Build 0)  -->
<svg version="1.1" id="Layer_1" xmlns="http://www.w3.org/2000/svg" xmlns:xlink="http://www.w3.org/1999/xlink" x="0px" y="0px"
	 viewBox="0 0 205 158" enable-background="new 0 0 205 158" xml:space="preserve">
<g>
	<rect x="-936.7" y="5.5" fill="#EDF4FE" width="205" height="158"/>
	<path fill="#F7931E" stroke="#000000" stroke-width="3" stroke-miterlimit="10" d="M-829.6,27.4l15.5,31.3c0.7,1.5,2.2,2.5,3.8,2.8
		l34.6,5c4.2,0.6,5.8,5.7,2.8,8.7l-25,24.4c-1.2,1.2-1.7,2.9-1.5,4.5l5.9,34.4c0.7,4.2-3.7,7.3-7.4,5.4l-30.9-16.3
		c-1.5-0.8-3.3-0.8-4.7,0l-30.9,16.3c-3.7,2-8.1-1.2-7.4-5.4l5.9-34.4c0.3-1.7-0.3-3.3-1.5-4.5l-25-24.4c-3-2.9-1.4-8.1,2.8-8.7
		l34.6-5c1.7-0.2,3.1-1.3,3.8-2.8l15.5-31.3C-836.9,23.6-831.5,23.6-829.6,27.4z"/>
</g>
<g>
	<rect x="-276" y="-2" fill="#EDF4FE" width="205" height="158"/>
	<g>
		<g>
			<path fill="#0055AA" stroke="#000000" stroke-width="2" stroke-miterlimit="10" d="M-115.5,17h-116c-1.1,0-2,0.9-2,2v76
				c0,1.1,0.9,2,2,2h56v13.2l-23.4,23.4c-0.8,0.8-0.8,2,0,2.8c0.8,0.8,2,0.8,2.8,0l22.6-22.6l22.6,22.6c0.4,0.4,0.9,0.6,1.4,0.6
				c0.5,0,1-0.2,1.4-0.6c0.8-0.8,0.8-2,0-2.8l-23.4-23.4V97h56c1.1,0,2-0.9,2-2V19C-113.5,17.9-114.4,17-115.5,17z M-125.5,83
				c0,1.1-0.9,2-2,2h-92c-1.1,0-2-0.9-2-2V59V31c0-1.1,0.9-2,2-2h92c1.1,0,2,0.9,2,2V83z"/>
		</g>
		<path fill="#F15A24" d="M-157.8,63.7c-1.8-1.8-4.4-2.4-6.7-1.5l-4.8-4.8l4.8-4.8c0.7,0.2,1.4,0.4,2.2,0.4c1.7,0,3.4-0.7,4.6-1.9
			c1.9-1.9,2.4-4.6,1.4-7c-0.1-0.2-0.2-0.3-0.5-0.4c-0.2,0-0.4,0-0.5,0.2l-2.6,3.1h-2.7V44l3-2.7c0.2-0.1,0.2-0.3,0.2-0.5
			c0-0.2-0.2-0.4-0.3-0.4c-0.8-0.3-1.7-0.5-2.5-0.5c-1.7,0-3.4,0.7-4.6,1.9c-1.8,1.8-2.4,4.4-1.5,6.7l-4.8,4.8l-4.8-4.8
			c0.8-2.4,0.3-5-1.5-6.7c-1.9-1.9-4.6-2.4-7-1.4c-0.2,0.1-0.3,0.2-0.4,0.4c0,0.2,0,0.4,0.2,0.5l3.1,2.7v2.9h-2.9l-2.6-3.1
			c-0.1-0.2-0.3-0.2-0.5-0.2c-0.2,0-0.4,0.2-0.5,0.4c-1,2.4-0.5,5.2,1.4,7.1c1.8,1.8,4.4,2.3,6.7,1.5l4.8,4.8l-4.8,4.8
			c-0.7-0.2-1.4-0.4-2.2-0.4c-1.7,0-3.4,0.7-4.6,1.9c-1.9,1.9-2.4,4.7-1.4,7.1c0.1,0.2,0.2,0.3,0.4,0.3c0.2,0,0.4,0,0.5-0.2l2.6-3
			h2.9v2.7l-3.1,2.7c-0.2,0.1-0.2,0.3-0.2,0.5c0,0.2,0.2,0.4,0.4,0.4c0.8,0.3,1.7,0.5,2.5,0.5h0c1.7,0,3.3-0.7,4.5-1.9
			c1.8-1.8,2.3-4.4,1.5-6.7l4.8-4.8l4.8,4.8c-0.8,2.4-0.3,5,1.5,6.7c1.2,1.2,2.9,1.9,4.6,1.9c0.9,0,1.7-0.2,2.5-0.5
			c0.2-0.1,0.3-0.2,0.4-0.4c0-0.2,0-0.4-0.2-0.5l-3-2.6v-2.7h2.7l2.7,3c0.1,0.2,0.3,0.2,0.5,0.2c0.2,0,0.4-0.2,0.4-0.3
			C-155.3,68.3-155.9,65.5-157.8,63.7z"/>
	</g>
</g>
<g>
	<rect x="0" y="0" fill="#EDF4FE" width="205" height="158"/>
	<g>
		<path fill="#0088FF" stroke="#000000" stroke-width="3" stroke-miterlimit="10" d="M56.3,86.9c0.4,0,0.8-0.1,1.1-0.3l90.1-59.3
			L146,41.5c-0.1,1.1,0.7,2.2,1.8,2.3c0.1,0,0.2,0,0.2,0c1,0,1.9-0.8,2.1-1.8l2.1-18.6c0-0.1,0-0.2,0-0.3c0-0.1,0-0.3,0-0.4
			c0-0.1-0.1-0.3-0.2-0.4c0-0.1,0-0.2-0.1-0.3c0,0,0,0-0.1-0.1c-0.1-0.1-0.2-0.2-0.3-0.3c-0.1-0.1-0.2-0.2-0.3-0.2
			c-0.1-0.1-0.2-0.1-0.3-0.1c-0.1-0.1-0.3-0.1-0.4-0.1c0,0-0.1,0-0.1,0L131.7,19c-1.1-0.1-2.2,0.7-2.3,1.8c-0.1,1.1,0.7,2.2,1.8,2.3
			l12.9,1.4l-89,58.6c-1,0.6-1.2,1.9-0.6,2.9C54.9,86.6,55.6,86.9,56.3,86.9z"/>
		<path fill="#003366" stroke="#000000" stroke-width="3" stroke-miterlimit="10" d="M162.5,134.9h-6.2V58.3c0-1.1-0.9-2.1-2.1-2.1
			h-16.6c-1.1,0-2.1,0.9-2.1,2.1v76.6h-8.3V79c0-1.1-0.9-2.1-2.1-2.1h-16.6c-1.1,0-2.1,0.9-2.1,2.1v55.9h-8.3V99.7
			c0-1.1-0.9-2.1-2.1-2.1H79.7c-1.1,0-2.1,0.9-2.1,2.1v35.2h-8.3v-14.5c0-1.1-0.9-2.1-2.1-2.1H50.8c-1.1,0-2.1,0.9-2.1,2.1v14.5
			h-6.2c-1.1,0-2.1,0.9-2.1,2.1s0.9,2.1,2.1,2.1h8.3h16.6h12.4h16.6h12.4h16.6h12.4h16.6h8.3c1.1,0,2.1-0.9,2.1-2.1
			S163.6,134.9,162.5,134.9z"/>
	</g>
</g>
<g>
	<rect x="273" y="1" fill="#EDF4FE" width="205" height="158"/>
	<g>
		<path fill="#00FF00" stroke="#000000" stroke-width="3" stroke-miterlimit="10" d="M305.8,108.3c0,0.9,0.5,1.7,1.3,2.1l63.7,29.6
			v-1.5v-3.6V91.2v0l-65-30.4V108.3z"/>
		<path fill="#FF0000" stroke="#000000" stroke-width="3" stroke-miterlimit="10" d="M434.2,53.9c1.4-1.5,2.2-3.3,2.2-5.2
			c0-6.3-8.6-11.1-19.9-11.1c-5.4,0-10.1,1.1-13.7,2.9l-9.6-4.2c1.4-1.5,2.2-3.3,2.2-5.2c0-6.3-8.6-11.1-19.9-11.1
			s-19.9,4.8-19.9,11.1c0,1.9,0.8,3.7,2.2,5.2l-8.1,3.5c-3.3-1.4-7.5-2.2-12.2-2.2c-11.3,0-19.9,4.8-19.9,11.1c0,1.5,0.5,3,1.4,4.3
			l-10.5,3.9l64.8,30.2l69.2-30.3L434.2,53.9z M337.4,55.1c-8.7,0-15.3-3.4-15.3-6.5c0-3.1,6.5-6.5,15.3-6.5s15.3,3.4,15.3,6.5
			C352.7,51.7,346.2,55.1,337.4,55.1z M375.5,69.8c-8.7,0-15.3-3.4-15.3-6.5c0-3.1,6.5-6.5,15.3-6.5c8.7,0,15.2,3.4,15.2,6.5
			C390.7,66.4,384.2,69.8,375.5,69.8z M375.5,37.6c-8.7,0-15.3-3.4-15.3-6.5c0-3.1,6.5-6.5,15.3-6.5c8.7,0,15.2,3.4,15.2,6.5
			C390.7,34.2,384.2,37.6,375.5,37.6z M416.5,55.1c-8.7,0-15.3-3.4-15.3-6.5c0-3.1,6.5-6.5,15.3-6.5c8.7,0,15.2,3.4,15.2,6.5
			C431.8,51.7,425.2,55.1,416.5,55.1z"/>
		<path fill="#0000FF" stroke="#000000" stroke-width="3" stroke-miterlimit="10" d="M375.5,91.2L375.5,91.2v43.7v3.5v1.5l68.3-29.6
			c0.9-0.4,1.4-1.2,1.4-2.1V60.7L375.5,91.2z"/>
	</g>
</g>
<g>
	<rect x="-560" y="2" fill="#EDF4FE" width="205" height="158"/>
	<g>
		<path fill="#55BBFF" stroke="#020202" stroke-width="3" stroke-miterlimit="10" d="M-517.5,61v78c0,1.1,0.9,2,2,2h116
			c1.1,0,2-0.9,2-2V61H-517.5z M-457.5,79c0-1.1,0.9-2,2-2h24c0.7,0,1.3,0.3,1.7,0.9c0.4,0.5,0.4,1.2,0.2,1.9l-6.9,17.3h1.7
			c1.1,0,2,0.9,2,2s-0.9,2-2,2h-3.3l-7.4,18.6c-0.3,0.8-1.1,1.3-1.9,1.3c-0.2,0-0.5,0-0.7-0.1c-1-0.4-1.5-1.6-1.1-2.6l6.8-17.1h-7.5
			c-1.1,0-2-0.9-2-2s0.9-2,2-2h9.1l6.4-16h-19v2.5c0,1.1-0.9,2-2,2s-2-0.9-2-2V79z M-480.1,90.4c-0.8,0.8-2,0.8-2.8,0
			c-0.8-0.8-0.8-2,0-2.8l10-10c0.6-0.6,1.4-0.8,2.2-0.4c0.7,0.3,1.2,1,1.2,1.8v38h8c1.1,0,2,0.9,2,2s-0.9,2-2,2h-20
			c-1.1,0-2-0.9-2-2s0.9-2,2-2h8V83.8L-480.1,90.4z"/>
		<path fill="#55BBFF" stroke="#020202" stroke-width="3" stroke-miterlimit="10" d="M-397.5,57V35c0-1.1-0.9-2-2-2h-18V23
			c0-1.1-0.9-2-2-2h-16c-1.1,0-2,0.9-2,2v10h-40V23c0-1.1-0.9-2-2-2h-16c-1.1,0-2,0.9-2,2v10h-18c-1.1,0-2,0.9-2,2v22H-397.5z
			 M-433.5,25h12v16h-12V25z M-481.5,41h-12V25h12V41z"/>
	</g>
</g>
</svg>
