<?xml version="1.0" encoding="utf-8"?>
<!-- Generator: Adobe Illustrator 18.1.1, SVG Export Plug-In . SVG Version: 6.00 Build 0)  -->
<svg version="1.1" id="Layer_1" xmlns="http://www.w3.org/2000/svg" xmlns:xlink="http://www.w3.org/1999/xlink" x="0px" y="0px"
	 viewBox="116.7 0 726.6 560" enable-background="new 116.7 0 726.6 560" xml:space="preserve">
<g>
	<rect x="-106.6" y="-1013.7" fill="#EDF4FE" width="726.6" height="560"/>
	<path fill="#F7931E" stroke="#000000" stroke-width="3" stroke-miterlimit="10" d="M273-936.4l54.9,110.9c2.5,5.3,7.8,8.9,13.5,9.9
		l122.6,17.7c14.9,2.1,20.6,20.2,9.9,30.8l-88.6,86.5c-4.3,4.3-6,10.3-5.3,15.9L401-542.6c2.5,14.9-13.1,25.9-26.2,19.1l-109.5-57.8
		c-5.3-2.8-11.7-2.8-16.7,0l-109.9,58.1c-13.1,7.1-28.7-4.3-26.2-19.1l20.9-121.9c1.1-6-1.1-11.7-5.3-15.9l-88.6-86.5
		c-10.6-10.3-5-28.7,9.9-30.8L172-815.2c6-0.7,11-4.6,13.5-9.9l54.9-110.9C247.1-949.5,266.3-949.5,273-936.4z"/>
</g>
<g>
	<rect x="2235.1" y="-1040.3" fill="#EDF4FE" width="726.6" height="560"/>
	<g>
		<g>
			<path fill="#0055AA" stroke="#000000" stroke-width="2" stroke-miterlimit="10" d="M2804-972.9h-411.1c-3.9,0-7.1,3.2-7.1,7.1
				v269.4c0,3.9,3.2,7.1,7.1,7.1h198.5v46.8l-83.3,82.6c-2.8,2.8-2.8,7.1,0,9.9s7.1,2.8,9.9,0l80.1-80.1l80.1,80.1
				c1.4,1.4,3.2,2.1,5,2.1c1.8,0,3.5-0.7,5-2.1c2.8-2.8,2.8-7.1,0-9.9l-82.9-82.9v-46.8h198.5c3.9,0,7.1-3.2,7.1-7.1v-269.4
				C2811.1-969.7,2807.9-972.9,2804-972.9z M2768.6-739c0,3.9-3.2,7.1-7.1,7.1h-326.1c-3.9,0-7.1-3.2-7.1-7.1v-85.1v-99.2
				c0-3.9,3.2-7.1,7.1-7.1h326.1c3.9,0,7.1,3.2,7.1,7.1V-739z"/>
		</g>
		<path fill="#F15A24" d="M2654.1-807.7c-6.4-6.4-15.6-8.5-23.7-5.3l-17-17l17-17c2.5,0.7,5,1.4,7.8,1.4c6,0,12.1-2.5,16.3-6.7
			c6.7-6.7,8.5-16.3,5-24.8c-0.4-0.7-0.7-1.1-1.8-1.4c-0.7,0-1.4,0-1.8,0.7l-9.2,11h-9.9v-10.3l10.6-9.6c0.7-0.4,0.7-1.1,0.7-1.8
			c0-0.7-0.7-1.4-1.1-1.4c-2.8-1.1-6-1.8-8.9-1.8c-6,0-12.1,2.5-16.3,6.7c-6.4,6.4-8.5,15.6-5.3,23.7l-17,17l-17-17
			c2.8-8.5,1.1-17.7-5.3-23.7c-6.7-6.7-16.3-8.5-24.8-5c-0.7,0.4-1.1,0.7-1.4,1.4c0,0.7,0,1.4,0.7,1.8l11,9.6v10.3h-11l-9.2-11
			c-0.4-0.7-1.1-0.7-1.8-0.7c-0.7,0-1.4,0.7-1.8,1.4c-3.5,8.5-1.8,18.4,5,25.2c6.4,6.4,15.6,8.2,23.7,5.3l17,17l-17,17
			c-2.5-0.7-5-1.4-7.8-1.4c-6,0-12.1,2.5-16.3,6.7c-6.7,6.7-8.5,16.7-5,25.2c0.4,0.7,0.7,1.1,1.4,1.1s1.4,0,1.8-0.7l9.2-10.6h10.3
			v9.6l-11,9.6c-0.7,0.4-0.7,1.1-0.7,1.8s0.7,1.4,1.4,1.4c2.8,1.1,6,1.8,8.9,1.8l0,0c6,0,11.7-2.5,15.9-6.7
			c6.4-6.4,8.2-15.6,5.3-23.7l17-17l17,17c-2.8,8.5-1.1,17.7,5.3,23.7c4.3,4.3,10.3,6.7,16.3,6.7c3.2,0,6-0.7,8.9-1.8
			c0.7-0.4,1.1-0.7,1.4-1.4c0-0.7,0-1.4-0.7-1.8l-10.6-9.2v-9.6h9.6l9.6,10.6c0.4,0.7,1.1,0.7,1.8,0.7s1.4-0.7,1.4-1.1
			C2662.6-791.1,2660.8-801,2654.1-807.7z"/>
	</g>
</g>
<g>
	<rect x="3213.4" y="-1033.2" fill="#EDF4FE" width="726.6" height="560"/>
	<g>
		<path fill="#0088FF" stroke="#000000" stroke-width="3" stroke-miterlimit="10" d="M3412.6-725.2c1.4,0,2.8-0.4,3.9-1.1
			l319.3-210.2l-5.7,50.3c-0.4,3.9,2.5,7.8,6.4,8.2c0.4,0,0.7,0,0.7,0c3.5,0,6.7-2.8,7.4-6.4l7.4-65.9c0-0.4,0-0.7,0-1.1
			c0-0.4,0-1.1,0-1.4c0-0.4-0.4-1.1-0.7-1.4c0-0.4,0-0.7-0.4-1.1c0,0,0,0-0.4-0.4s-0.7-0.7-1.1-1.1c-0.4-0.4-0.7-0.7-1.1-0.7
			c-0.4-0.4-0.7-0.4-1.1-0.4c-0.4-0.4-1.1-0.4-1.4-0.4h-0.4l-65.9-7.4c-3.9-0.4-7.8,2.5-8.2,6.4c-0.4,3.9,2.5,7.8,6.4,8.2l45.7,5
			l-315.4,207.7c-3.5,2.1-4.3,6.7-2.1,10.3C3407.9-726.2,3410.4-725.2,3412.6-725.2z"/>
		<path fill="#003366" stroke="#000000" stroke-width="3" stroke-miterlimit="10" d="M3789.3-555.4h-22v-271.5
			c0-3.9-3.2-7.4-7.4-7.4h-58.8c-3.9,0-7.4,3.2-7.4,7.4v271.5h-29.4v-198.1c0-3.9-3.2-7.4-7.4-7.4h-58.8c-3.9,0-7.4,3.2-7.4,7.4
			v198.1h-28.7v-124.8c0-3.9-3.2-7.4-7.4-7.4h-58.8c-3.9,0-7.4,3.2-7.4,7.4v124.8h-29.4v-51.4c0-3.9-3.2-7.4-7.4-7.4h-58.8
			c-3.9,0-7.4,3.2-7.4,7.4v51.4h-22c-3.9,0-7.4,3.2-7.4,7.4c0,3.9,3.2,7.4,7.4,7.4h29.4h59.5h43.9h58.8h43.9h58.8h43.9h58.8h29.4
			c3.9,0,7.4-3.2,7.4-7.4C3796.4-552.2,3793.2-555.4,3789.3-555.4z"/>
	</g>
</g>
<g>
	<rect x="4181" y="-1029.6" fill="#EDF4FE" width="726.6" height="560"/>
	<g>
		<path fill="#00FF00" stroke="#000000" stroke-width="3" stroke-miterlimit="10" d="M4297.2-649.7c0,3.2,1.8,6,4.6,7.4l225.8,104.9
			v-5.3v-12.8v-154.9l0,0L4297.2-818V-649.7z"/>
		<path fill="#FF0000" stroke="#000000" stroke-width="3" stroke-miterlimit="10" d="M4752.3-842.5c5-5.3,7.8-11.7,7.8-18.4
			c0-22.3-30.5-39.3-70.5-39.3c-19.1,0-35.8,3.9-48.6,10.3l-34-14.9c5-5.3,7.8-11.7,7.8-18.4c0-22.3-30.5-39.3-70.5-39.3
			s-70.5,17-70.5,39.3c0,6.7,2.8,13.1,7.8,18.4l-28.7,12.4c-11.7-5-26.6-7.8-43.2-7.8c-40.1,0-70.5,17-70.5,39.3
			c0,5.3,1.8,10.6,5,15.2l-37.2,13.8l229.7,107l245.3-107.4L4752.3-842.5z M4409.2-837.9c-30.8,0-54.2-12.1-54.2-23s23-23,54.2-23
			c30.8,0,54.2,12.1,54.2,23C4463.1-849.9,4440.1-837.9,4409.2-837.9z M4544.3-785.8c-30.8,0-54.2-12.1-54.2-23s23-23,54.2-23
			c30.8,0,53.9,12.1,53.9,23C4598.1-798.2,4575.1-785.8,4544.3-785.8z M4544.3-900.3c-30.8,0-54.2-12.1-54.2-23s23-23,54.2-23
			c30.8,0,53.9,12.1,53.9,23C4598.1-912.3,4575.1-900.3,4544.3-900.3z M4689.6-837.9c-30.8,0-54.2-12.1-54.2-23s23-23,54.2-23
			c30.8,0,53.9,12.1,53.9,23C4743.4-849.9,4720.4-837.9,4689.6-837.9z"/>
		<path fill="#0000FF" stroke="#000000" stroke-width="3" stroke-miterlimit="10" d="M4544.3-709.9L4544.3-709.9V-555v12.4v5.3
			l242.1-104.9c3.2-1.4,5-4.3,5-7.4v-168.7L4544.3-709.9z"/>
	</g>
</g>
<g>
	<rect x="1228.6" y="-1026.1" fill="#EDF4FE" width="726.6" height="560"/>
	<g>
		<path fill="#55BBFF" stroke="#020202" stroke-width="3" stroke-miterlimit="10" d="M1379.2-817v276.5c0,3.9,3.2,7.1,7.1,7.1h411.1
			c3.9,0,7.1-3.2,7.1-7.1V-817H1379.2z M1591.8-753.2c0-3.9,3.2-7.1,7.1-7.1h85.1c2.5,0,4.6,1.1,6,3.2c1.4,1.8,1.4,4.3,0.7,6.7
			l-24.5,61.3h6c3.9,0,7.1,3.2,7.1,7.1c0,3.9-3.2,7.1-7.1,7.1h-11.7l-26.2,65.9c-1.1,2.8-3.9,4.6-6.7,4.6c-0.7,0-1.8,0-2.5-0.4
			c-3.5-1.4-5.3-5.7-3.9-9.2l24.1-60.6h-26.6c-3.9,0-7.1-3.2-7.1-7.1s3.2-7.1,7.1-7.1h32.3l22.7-56.7h-67.3v8.9
			c0,3.9-3.2,7.1-7.1,7.1c-3.9,0-7.1-3.2-7.1-7.1v-16.7H1591.8z M1511.7-712.8c-2.8,2.8-7.1,2.8-9.9,0c-2.8-2.8-2.8-7.1,0-9.9
			l35.4-35.4c2.1-2.1,5-2.8,7.8-1.4c2.5,1.1,4.3,3.5,4.3,6.4v134.7h28.4c3.9,0,7.1,3.2,7.1,7.1c0,3.9-3.2,7.1-7.1,7.1h-70.9
			c-3.9,0-7.1-3.2-7.1-7.1c0-3.9,3.2-7.1,7.1-7.1h28.4v-117.7L1511.7-712.8z"/>
		<path fill="#55BBFF" stroke="#020202" stroke-width="3" stroke-miterlimit="10" d="M1804.5-831.1v-78c0-3.9-3.2-7.1-7.1-7.1h-63.8
			v-35.4c0-3.9-3.2-7.1-7.1-7.1h-56.7c-3.9,0-7.1,3.2-7.1,7.1v35.4H1521v-35.4c0-3.9-3.2-7.1-7.1-7.1h-56.7c-3.9,0-7.1,3.2-7.1,7.1
			v35.4h-63.8c-3.9,0-7.1,3.2-7.1,7.1v78H1804.5z M1676.9-944.6h42.5v56.7h-42.5V-944.6z M1506.8-887.8h-42.5v-56.7h42.5V-887.8z"/>
	</g>
</g>
<rect x="116.7" fill="#EDF4FE" width="726.6" height="560"/>
<rect x="1169.7" y="-36.5" fill="#EDF4FE" width="726.6" height="560"/>
<path fill="#7AC943" stroke="#000000" stroke-width="3" stroke-miterlimit="10" d="M1701.7,148.2h-81.5c-3.5-18.1-19.5-34.4-39-45
	l59.5-59.5c2.8-2.8,2.8-7.4,0-10.3c-2.8-2.8-7.4-2.8-10.3,0L1567,96.8c-11.3-4.3-23-6.7-34-6.7c-11,0-22.7,2.5-34,6.7L1435.5,33
	c-2.8-2.8-7.4-2.8-10.3,0c-2.8,2.8-2.8,7.4,0,10.3l59.5,59.9c-19.5,11-35.4,27.3-39,45h-81.5c-28.4,0-51.4,23-51.4,51.4v205.2
	c0,28.4,23,51.4,51.4,51.4h337.4c28.4,0,51.4-23,51.4-51.4V199.5C1753.1,171.2,1730.1,148.2,1701.7,148.2z M1620.9,375.7
	c0,8.5-5,51.4-106,51.4h-55.6c-89.3,0-102.8-33.7-102.8-53.9V225.1c0-47.5,77.3-47.5,102.8-47.5h55.6c70.2,0,106,17,106,50V375.7z
	 M1679.7,375.7c-20.2,0-36.5-16.3-36.5-36.5c0-20.2,16.3-36.5,36.5-36.5c20.2,0,36.5,16.3,36.5,36.5
	C1716.3,359,1699.9,375.7,1679.7,375.7z M1679.7,272.9c-20.2,0-36.5-16.3-36.5-36.5s16.3-36.5,36.5-36.5c20.2,0,36.5,16.3,36.5,36.5
	S1699.9,272.9,1679.7,272.9z"/>
<rect x="137" y="66" fill="none" width="681" height="429"/>
<text transform="matrix(1 0 0 1 164.4375 80.9097)"><tspan x="0" y="0" fill="#FFFFFF" font-family="'MyriadPro-Regular'" font-size="21">Morbi mattis ullamcorper velit. Cras varius. Cras risus ipsum, faucibus ut, </tspan><tspan x="-7.4" y="25.2" fill="#FFFFFF" font-family="'MyriadPro-Regular'" font-size="21">ullamcorper id, varius ac, leo. Phasellus a est. Vivamus laoreet. Praesent ac </tspan><tspan x="-11.7" y="50.4" fill="#FFFFFF" font-family="'MyriadPro-Regular'" font-size="21">sem eget est egestas volutpat. Nullam dictum felis eu pede mollis pretium. </tspan><tspan x="11.2" y="75.6" fill="#FFFFFF" font-family="'MyriadPro-Regular'" font-size="21">Phasellus accumsan cursus velit. Pellentesque commodo eros a enim. </tspan><tspan x="-12.7" y="100.8" fill="#FFFFFF" font-family="'MyriadPro-Regular'" font-size="21">Vivamus laoreet. Curabitur ullamcorper ultricies nisi. Vivamus consectetuer </tspan><tspan x="-19.4" y="126" fill="#FFFFFF" font-family="'MyriadPro-Regular'" font-size="21">hendrerit lacus. Aenean tellus metus, bibendum sed, posuere ac, mattis non, </tspan><tspan x="-15.8" y="151.2" fill="#FFFFFF" font-family="'MyriadPro-Regular'" font-size="21">nunc. Nulla porta dolor. Pellentesque posuere. Pellentesque egestas, neque </tspan><tspan x="-16.6" y="176.4" fill="#FFFFFF" font-family="'MyriadPro-Regular'" font-size="21">sit amet convallis pulvinar, justo nulla eleifend augue, ac auctor orci leo non </tspan><tspan x="-7.7" y="201.6" fill="#FFFFFF" font-family="'MyriadPro-Regular'" font-size="21">est. Quisque libero metus, condimentum nec, tempor a, commodo mollis, </tspan><tspan x="2.2" y="226.8" fill="#FFFFFF" font-family="'MyriadPro-Regular'" font-size="21">magna. Nullam accumsan lorem in dui. Morbi nec metus. Curabitur nisi. </tspan><tspan x="5.4" y="252" fill="#FFFFFF" font-family="'MyriadPro-Regular'" font-size="21">Phasellus magna. Donec id justo. Praesent egestas tristique nibh. Nunc </tspan><tspan x="-26.1" y="277.2" fill="#FFFFFF" font-family="'MyriadPro-Regular'" font-size="21">nonummy metus. Fusce convallis metus id felis luctus adipiscing. Suspendisse </tspan><tspan x="-8.5" y="302.4" fill="#FFFFFF" font-family="'MyriadPro-Regular'" font-size="21">pulvinar, augue ac venenatis condimentum, sem libero volutpat nibh, nec </tspan><tspan x="-15.5" y="327.6" fill="#FFFFFF" font-family="'MyriadPro-Regular'" font-size="21">pellentesque velit pede quis nunc. Vestibulum ullamcorper mauris at ligula. </tspan><tspan x="12.1" y="352.8" fill="#FFFFFF" font-family="'MyriadPro-Regular'" font-size="21">Class aptent taciti sociosqu ad litora torquent per conubia nostra, per </tspan><tspan x="-21.6" y="378" fill="#FFFFFF" font-family="'MyriadPro-Regular'" font-size="21">inceptos hymenaeos. Etiam ultricies nisi vel augue. Cras risus ipsum, faucibus </tspan><tspan x="173.3" y="403.2" fill="#FFFFFF" font-family="'MyriadPro-Regular'" font-size="21">ut, ullamcorper id, varius ac, leo. </tspan></text>
<circle fill="#A3BCCC" cx="418.5" cy="218.5" r="126.5"/>
<g>
	<defs>
		<circle id="SVGID_1_" cx="418.5" cy="218.5" r="126.5"/>
	</defs>
	<clipPath id="SVGID_2_">
		<use xlink:href="#SVGID_1_"  overflow="visible"/>
	</clipPath>
	<g clip-path="url(#SVGID_2_)">
		<path fill="#FFFFFF" d="M357.2,100.2c-1.3,0.7-3.9,1.3-7.3,1.3c-7.8,0-13.6-4.9-13.6-14c0-8.7,5.9-14.5,14.4-14.5
			c3.4,0,5.6,0.7,6.6,1.2l-0.9,2.9c-1.3-0.7-3.2-1.1-5.5-1.1c-6.5,0-10.8,4.1-10.8,11.4c0,6.8,3.9,11.1,10.6,11.1
			c2.2,0,4.4-0.5,5.9-1.1L357.2,100.2z"/>
		<path fill="#FFFFFF" d="M377.7,95.7c0,2.1,0,3.9,0.2,5.5h-3.2l-0.2-3.2h-0.1c-0.9,1.6-3,3.7-6.6,3.7c-3.1,0-6.8-1.8-6.8-8.7V81.3
			h3.6v10.9c0,3.8,1.2,6.4,4.4,6.4c2.4,0,4.1-1.7,4.8-3.3c0.2-0.5,0.3-1.1,0.3-1.8V81.3h3.6V95.7z"/>
		<path fill="#FFFFFF" d="M383.7,87.5c0-2.3,0-4.3-0.2-6.2h3.2l0.2,3.9h0.1c0.9-2.7,3.1-4.3,5.5-4.3c0.4,0,0.7,0,1,0.1v3.4
			c-0.4-0.1-0.7-0.1-1.2-0.1c-2.5,0-4.3,1.9-4.8,4.6c-0.1,0.5-0.1,1.1-0.1,1.7v10.6h-3.6V87.5z"/>
		<path fill="#FFFFFF" d="M410.8,96.4c0,1.7,0.1,3.4,0.3,4.8h-3.2l-0.3-2.5h-0.1c-1.1,1.6-3.2,3-6.1,3c-4,0-6.1-2.8-6.1-5.7
			c0-4.8,4.3-7.4,11.9-7.4v-0.4c0-1.6-0.5-4.6-4.5-4.6c-1.9,0-3.8,0.5-5.2,1.5l-0.8-2.4c1.6-1,4.1-1.7,6.6-1.7
			c6.1,0,7.5,4.1,7.5,8.1V96.4z M407.4,91c-3.9-0.1-8.4,0.6-8.4,4.5c0,2.4,1.6,3.4,3.4,3.4c2.6,0,4.3-1.6,4.9-3.3
			c0.1-0.4,0.2-0.8,0.2-1.1V91z"/>
		<path fill="#FFFFFF" d="M416.7,72h3.6v12.5h0.1c1.3-2.2,3.6-3.6,6.8-3.6c5,0,8.4,4.1,8.4,10.1c0,7.1-4.5,10.6-8.9,10.6
			c-2.9,0-5.2-1.1-6.7-3.7h-0.1l-0.2,3.2h-3.1c0.1-1.4,0.2-3.4,0.2-5.1V72z M420.2,93.2c0,0.5,0,0.9,0.2,1.3
			c0.7,2.5,2.8,4.2,5.4,4.2c3.8,0,6-3.1,6-7.6c0-4-2-7.4-5.9-7.4c-2.4,0-4.7,1.7-5.5,4.4c-0.1,0.5-0.2,0.9-0.2,1.5V93.2z"/>
		<path fill="#FFFFFF" d="M444,75.7c0,1.2-0.9,2.2-2.3,2.2c-1.3,0-2.2-1-2.2-2.2s0.9-2.3,2.3-2.3C443.1,73.4,444,74.4,444,75.7z
			 M440,101.1V81.3h3.6v19.8H440z"/>
		<path fill="#FFFFFF" d="M453.9,76.5v4.8h5.2V84h-5.2v10.7c0,2.5,0.7,3.9,2.7,3.9c1,0,1.6-0.1,2.1-0.2l0.2,2.7
			c-0.7,0.2-1.8,0.5-3.2,0.5c-1.7,0-3-0.6-3.9-1.5c-1-1.1-1.4-2.9-1.4-5.2V84h-3.1v-2.7h3.1v-3.7L453.9,76.5z"/>
		<path fill="#FFFFFF" d="M479.8,95.7c0,2.1,0,3.9,0.2,5.5h-3.2l-0.2-3.2h-0.1c-0.9,1.6-3,3.7-6.6,3.7c-3.1,0-6.8-1.8-6.8-8.7V81.3
			h3.6v10.9c0,3.8,1.2,6.4,4.4,6.4c2.4,0,4.1-1.7,4.8-3.3c0.2-0.5,0.3-1.1,0.3-1.8V81.3h3.6V95.7z"/>
		<path fill="#FFFFFF" d="M485.8,87.5c0-2.3,0-4.3-0.2-6.2h3.2l0.2,3.9h0.1c0.9-2.7,3.1-4.3,5.5-4.3c0.4,0,0.7,0,1,0.1v3.4
			c-0.4-0.1-0.7-0.1-1.2-0.1c-2.5,0-4.3,1.9-4.8,4.6c-0.1,0.5-0.1,1.1-0.1,1.7v10.6h-3.6V87.5z"/>
		<path fill="#FFFFFF" d="M260.2,144.9c0,2.1,0,3.9,0.2,5.5h-3.2l-0.2-3.2h-0.1c-0.9,1.6-3,3.7-6.6,3.7c-3.1,0-6.8-1.8-6.8-8.7
			v-11.6h3.6v10.9c0,3.8,1.2,6.4,4.4,6.4c2.4,0,4.1-1.7,4.8-3.3c0.2-0.5,0.3-1.1,0.3-1.8v-12.1h3.6V144.9z"/>
		<path fill="#FFFFFF" d="M266.2,121.2h3.6v29.1h-3.6V121.2z"/>
		<path fill="#FFFFFF" d="M275.9,121.2h3.6v29.1h-3.6V121.2z"/>
		<path fill="#FFFFFF" d="M299.5,145.6c0,1.7,0.1,3.4,0.3,4.8h-3.2l-0.3-2.5h-0.1c-1.1,1.6-3.2,3-6.1,3c-4,0-6.1-2.8-6.1-5.7
			c0-4.8,4.3-7.4,11.9-7.4v-0.4c0-1.6-0.5-4.6-4.5-4.6c-1.9,0-3.8,0.5-5.2,1.5l-0.8-2.4c1.6-1,4.1-1.7,6.6-1.7
			c6.1,0,7.5,4.1,7.5,8.1V145.6z M296,140.2c-3.9-0.1-8.4,0.6-8.4,4.5c0,2.4,1.6,3.4,3.4,3.4c2.6,0,4.3-1.6,4.9-3.3
			c0.1-0.4,0.2-0.8,0.2-1.1V140.2z"/>
		<path fill="#FFFFFF" d="M305.3,135.8c0-2.1-0.1-3.7-0.2-5.4h3.2l0.2,3.2h0.1c1.1-1.9,3-3.6,6.3-3.6c2.7,0,4.7,1.6,5.6,4h0.1
			c0.6-1.1,1.4-2,2.3-2.6c1.2-0.9,2.5-1.4,4.3-1.4c2.7,0,6.6,1.7,6.6,8.6v11.6h-3.5v-11.2c0-3.9-1.4-6.1-4.3-6.1
			c-2.1,0-3.6,1.5-4.3,3.2c-0.2,0.5-0.3,1.1-0.3,1.8v12.3h-3.5v-11.9c0-3.2-1.4-5.4-4.1-5.4c-2.2,0-3.9,1.8-4.5,3.6
			c-0.2,0.5-0.3,1.1-0.3,1.8v11.9h-3.5V135.8z"/>
		<path fill="#FFFFFF" d="M353.6,149.6c-0.9,0.5-3,1.1-5.7,1.1c-6,0-9.9-4.1-9.9-10.1c0-6.1,4.2-10.6,10.7-10.6c2.1,0,4,0.5,5,1.1
			l-0.8,2.7c-0.9-0.5-2.2-0.9-4.2-0.9c-4.6,0-7,3.4-7,7.5c0,4.6,3,7.4,6.9,7.4c2,0,3.4-0.5,4.4-0.9L353.6,149.6z"/>
		<path fill="#FFFFFF" d="M375.6,140.2c0,7.3-5.1,10.5-9.9,10.5c-5.3,0-9.5-3.9-9.5-10.2c0-6.6,4.4-10.5,9.8-10.5
			C371.7,130.1,375.6,134.2,375.6,140.2z M359.9,140.4c0,4.3,2.5,7.6,6,7.6c3.4,0,6-3.2,6-7.7c0-3.4-1.7-7.6-5.9-7.6
			C361.7,132.8,359.9,136.7,359.9,140.4z"/>
		<path fill="#FFFFFF" d="M380.1,136.7c0-2.3,0-4.3-0.2-6.2h3.2l0.2,3.9h0.1c0.9-2.7,3.1-4.3,5.5-4.3c0.4,0,0.7,0,1,0.1v3.4
			c-0.4-0.1-0.7-0.1-1.2-0.1c-2.5,0-4.3,1.9-4.8,4.6c-0.1,0.5-0.1,1.1-0.1,1.7v10.6h-3.6V136.7z"/>
		<path fill="#FFFFFF" d="M393.7,136.9c0-2.5-0.1-4.6-0.2-6.5h3.2l0.2,3.4h0.1c1.4-2.4,3.8-3.8,7.1-3.8c4.8,0,8.4,4.1,8.4,10
			c0,7.1-4.4,10.7-9.1,10.7c-2.6,0-4.9-1.1-6.1-3.1h-0.1v10.8h-3.6V136.9z M397.3,142.2c0,0.5,0,1,0.2,1.5c0.7,2.5,2.8,4.2,5.4,4.2
			c3.8,0,6-3.1,6-7.7c0-3.9-2.1-7.3-5.9-7.3c-2.5,0-4.8,1.7-5.5,4.4c-0.1,0.5-0.2,1-0.2,1.4V142.2z"/>
		<path fill="#FFFFFF" d="M419,141c0.1,4.9,3.2,6.9,6.8,6.9c2.6,0,4.2-0.5,5.5-1l0.7,2.6c-1.3,0.6-3.5,1.3-6.6,1.3
			c-6.1,0-9.8-4.1-9.8-10c0-6,3.5-10.7,9.3-10.7c6.5,0,8.2,5.7,8.2,9.3c0,0.7,0,1.3-0.1,1.7H419z M429.6,138.5c0-2.3-0.9-5.8-5-5.8
			c-3.7,0-5.2,3.3-5.5,5.8H429.6z"/>
		<path fill="#FFFFFF" d="M437.6,136.7c0-2.3,0-4.3-0.2-6.2h3.2l0.2,3.9h0.1c0.9-2.7,3.1-4.3,5.5-4.3c0.4,0,0.7,0,1,0.1v3.4
			c-0.4-0.1-0.7-0.1-1.2-0.1c-2.5,0-4.3,1.9-4.8,4.6c-0.1,0.5-0.1,1.1-0.1,1.7v10.6h-3.6V136.7z"/>
		<path fill="#FFFFFF" d="M476.3,144.9c0,2.1,0,3.9,0.2,5.5h-3.2l-0.2-3.2h-0.1c-0.9,1.6-3,3.7-6.6,3.7c-3.1,0-6.8-1.8-6.8-8.7
			v-11.6h3.6v10.9c0,3.8,1.2,6.4,4.4,6.4c2.4,0,4.1-1.7,4.8-3.3c0.2-0.5,0.3-1.1,0.3-1.8v-12.1h3.6V144.9z"/>
		<path fill="#FFFFFF" d="M482.2,121.2h3.6v29.1h-3.6V121.2z"/>
		<path fill="#FFFFFF" d="M496.3,125.7v4.8h5.2v2.7h-5.2v10.7c0,2.5,0.7,3.9,2.7,3.9c1,0,1.6-0.1,2.1-0.2l0.2,2.7
			c-0.7,0.2-1.8,0.5-3.2,0.5c-1.7,0-3-0.6-3.9-1.5c-1-1.1-1.4-2.9-1.4-5.2v-10.8h-3.1v-2.7h3.1v-3.7L496.3,125.7z"/>
		<path fill="#FFFFFF" d="M505.5,136.7c0-2.3,0-4.3-0.2-6.2h3.2l0.2,3.9h0.1c0.9-2.7,3.1-4.3,5.5-4.3c0.4,0,0.7,0,1,0.1v3.4
			c-0.4-0.1-0.7-0.1-1.2-0.1c-2.5,0-4.3,1.9-4.8,4.6c-0.1,0.5-0.1,1.1-0.1,1.7v10.6h-3.6V136.7z"/>
		<path fill="#FFFFFF" d="M523.1,124.9c0,1.2-0.9,2.2-2.3,2.2c-1.3,0-2.2-1-2.2-2.2s0.9-2.3,2.3-2.3
			C522.2,122.6,523.1,123.6,523.1,124.9z M519.1,150.3v-19.8h3.6v19.8H519.1z"/>
		<path fill="#FFFFFF" d="M542.8,149.6c-0.9,0.5-3,1.1-5.7,1.1c-6,0-9.9-4.1-9.9-10.1c0-6.1,4.2-10.6,10.7-10.6c2.1,0,4,0.5,5,1.1
			l-0.8,2.7c-0.9-0.5-2.2-0.9-4.2-0.9c-4.6,0-7,3.4-7,7.5c0,4.6,3,7.4,6.9,7.4c2.1,0,3.4-0.5,4.4-0.9L542.8,149.6z"/>
		<path fill="#FFFFFF" d="M551,124.9c0,1.2-0.9,2.2-2.3,2.2c-1.3,0-2.2-1-2.2-2.2s0.9-2.3,2.3-2.3C550.1,122.6,551,123.6,551,124.9z
			 M547,150.3v-19.8h3.6v19.8H547z"/>
		<path fill="#FFFFFF" d="M558.6,141c0.1,4.9,3.2,6.9,6.8,6.9c2.6,0,4.2-0.5,5.5-1l0.7,2.6c-1.3,0.6-3.5,1.3-6.6,1.3
			c-6.1,0-9.8-4.1-9.8-10c0-6,3.5-10.7,9.3-10.7c6.5,0,8.2,5.7,8.2,9.3c0,0.7,0,1.3-0.1,1.7H558.6z M569.2,138.5
			c0-2.3-0.9-5.8-5-5.8c-3.7,0-5.2,3.3-5.5,5.8H569.2z"/>
		<path fill="#FFFFFF" d="M576.7,146.7c1.1,0.7,3,1.4,4.8,1.4c2.6,0,3.8-1.3,3.8-3c0-1.7-1-2.6-3.7-3.6c-3.6-1.3-5.3-3.2-5.3-5.6
			c0-3.2,2.6-5.8,6.8-5.8c2,0,3.8,0.5,4.8,1.2l-0.9,2.6c-0.8-0.5-2.2-1.2-4.1-1.2c-2.1,0-3.3,1.2-3.3,2.7c0,1.6,1.1,2.4,3.7,3.4
			c3.4,1.3,5.2,3,5.2,5.9c0,3.5-2.7,6-7.4,6c-2.2,0-4.2-0.6-5.6-1.4L576.7,146.7z"/>
		<path fill="#FFFFFF" d="M309.5,185c0-2.1,0-3.7-0.2-5.4h3.2l0.2,3.3h0.1c1-1.8,3.3-3.7,6.6-3.7c2.7,0,7,1.6,7,8.4v11.8h-3.6v-11.4
			c0-3.2-1.2-5.9-4.6-5.9c-2.3,0-4.2,1.7-4.8,3.7c-0.2,0.5-0.2,1.1-0.2,1.7v11.9h-3.6V185z"/>
		<path fill="#FFFFFF" d="M336.2,174.1c0,1.2-0.9,2.2-2.3,2.2c-1.3,0-2.2-1-2.2-2.2s0.9-2.3,2.3-2.3
			C335.3,171.8,336.2,172.8,336.2,174.1z M332.2,199.5v-19.8h3.6v19.8H332.2z"/>
		<path fill="#FFFFFF" d="M341.3,195.9c1.1,0.7,3,1.4,4.8,1.4c2.6,0,3.8-1.3,3.8-3c0-1.7-1-2.6-3.6-3.6c-3.6-1.3-5.3-3.2-5.3-5.6
			c0-3.2,2.6-5.8,6.8-5.8c2,0,3.8,0.5,4.8,1.2l-0.9,2.6c-0.8-0.5-2.2-1.2-4.1-1.2c-2.1,0-3.3,1.2-3.3,2.7c0,1.6,1.1,2.4,3.7,3.4
			c3.4,1.3,5.2,3,5.2,5.9c0,3.5-2.7,6-7.4,6c-2.2,0-4.2-0.6-5.6-1.4L341.3,195.9z"/>
		<path fill="#FFFFFF" d="M362.1,174.1c0,1.2-0.9,2.2-2.3,2.2c-1.3,0-2.2-1-2.2-2.2s0.9-2.3,2.3-2.3
			C361.2,171.8,362.1,172.8,362.1,174.1z M358.1,199.5v-19.8h3.6v19.8H358.1z"/>
		<path fill="#FFFFFF" d="M366.8,197.4c0-1.5,1-2.6,2.5-2.6c1.4,0,2.4,1.1,2.4,2.6c0,1.5-1,2.6-2.5,2.6
			C367.8,200,366.8,198.9,366.8,197.4z"/>
		<path fill="#FFFFFF" d="M389.5,199.5l-9.1-27.6h3.9l4.3,13.6c1.1,3.7,2.2,7.1,3,10.3h0.1c0.8-3.2,1.9-6.7,3.2-10.3l4.7-13.7h3.8
			l-9.9,27.6H389.5z"/>
		<path fill="#FFFFFF" d="M409.6,174.1c0,1.2-0.9,2.2-2.3,2.2c-1.3,0-2.2-1-2.2-2.2s0.9-2.3,2.3-2.3
			C408.7,171.8,409.6,172.8,409.6,174.1z M405.6,199.5v-19.8h3.6v19.8H405.6z"/>
		<path fill="#FFFFFF" d="M416.6,179.7l3.9,11.1c0.7,1.8,1.2,3.5,1.6,5.1h0.1c0.5-1.6,1-3.3,1.7-5.1l3.9-11.1h3.8l-7.8,19.8h-3.4
			l-7.5-19.8H416.6z"/>
		<path fill="#FFFFFF" d="M448.7,194.8c0,1.7,0.1,3.4,0.3,4.8h-3.2l-0.3-2.5h-0.1c-1.1,1.6-3.2,3-6.1,3c-4,0-6.1-2.8-6.1-5.7
			c0-4.8,4.3-7.4,11.9-7.4v-0.4c0-1.6-0.5-4.6-4.5-4.6c-1.9,0-3.8,0.5-5.2,1.5l-0.8-2.4c1.6-1,4.1-1.7,6.6-1.7
			c6.1,0,7.5,4.1,7.5,8.1V194.8z M445.2,189.4c-3.9-0.1-8.4,0.6-8.4,4.5c0,2.4,1.6,3.4,3.4,3.4c2.6,0,4.3-1.6,4.9-3.3
			c0.1-0.4,0.2-0.8,0.2-1.1V189.4z"/>
		<path fill="#FFFFFF" d="M454.5,185c0-2.1-0.1-3.7-0.2-5.4h3.2l0.2,3.2h0.1c1.1-1.9,3-3.6,6.3-3.6c2.7,0,4.7,1.6,5.6,4h0.1
			c0.6-1.1,1.4-2,2.3-2.6c1.2-0.9,2.5-1.4,4.3-1.4c2.7,0,6.6,1.7,6.6,8.6v11.6h-3.5v-11.2c0-3.9-1.4-6.1-4.3-6.1
			c-2.1,0-3.6,1.5-4.3,3.2c-0.2,0.5-0.3,1.1-0.3,1.8v12.3h-3.5v-11.9c0-3.2-1.4-5.4-4.1-5.4c-2.2,0-3.9,1.8-4.5,3.6
			c-0.2,0.5-0.3,1.1-0.3,1.8v11.9h-3.5V185z"/>
		<path fill="#FFFFFF" d="M505.3,194.1c0,2.1,0,3.9,0.2,5.5h-3.2l-0.2-3.2H502c-0.9,1.6-3,3.7-6.6,3.7c-3.1,0-6.8-1.8-6.8-8.7v-11.6
			h3.6v10.9c0,3.8,1.2,6.4,4.4,6.4c2.4,0,4.1-1.7,4.8-3.3c0.2-0.5,0.3-1.1,0.3-1.8v-12.1h3.6V194.1z"/>
		<path fill="#FFFFFF" d="M510.8,195.9c1.1,0.7,3,1.4,4.8,1.4c2.6,0,3.8-1.3,3.8-3c0-1.7-1-2.6-3.6-3.6c-3.6-1.3-5.3-3.2-5.3-5.6
			c0-3.2,2.6-5.8,6.8-5.8c2,0,3.8,0.5,4.8,1.2l-0.9,2.6c-0.8-0.5-2.2-1.2-4.1-1.2c-2.1,0-3.3,1.2-3.3,2.7c0,1.6,1.1,2.4,3.7,3.4
			c3.4,1.3,5.2,3,5.2,5.9c0,3.5-2.7,6-7.4,6c-2.2,0-4.2-0.6-5.6-1.4L510.8,195.9z"/>
		<path fill="#FFFFFF" d="M321.1,248c-0.9,0.5-3,1.1-5.7,1.1c-6,0-9.9-4.1-9.9-10.1c0-6.1,4.2-10.6,10.7-10.6c2.1,0,4,0.5,5,1.1
			l-0.8,2.7c-0.9-0.5-2.2-0.9-4.2-0.9c-4.6,0-7,3.4-7,7.5c0,4.6,3,7.4,6.9,7.4c2,0,3.4-0.5,4.4-0.9L321.1,248z"/>
		<path fill="#FFFFFF" d="M343.1,238.6c0,7.3-5.1,10.5-9.9,10.5c-5.3,0-9.5-3.9-9.5-10.2c0-6.6,4.4-10.5,9.8-10.5
			C339.2,228.5,343.1,232.6,343.1,238.6z M327.4,238.8c0,4.3,2.5,7.6,6,7.6c3.4,0,6-3.2,6-7.7c0-3.4-1.7-7.6-5.9-7.6
			C329.2,231.2,327.4,235.1,327.4,238.8z"/>
		<path fill="#FFFFFF" d="M347.6,234.2c0-2.1,0-3.7-0.2-5.4h3.2l0.2,3.3h0.1c1-1.8,3.3-3.7,6.6-3.7c2.7,0,7,1.6,7,8.4v11.8h-3.6
			v-11.4c0-3.2-1.2-5.9-4.6-5.9c-2.3,0-4.2,1.7-4.8,3.7c-0.2,0.5-0.2,1.1-0.2,1.7v11.9h-3.6V234.2z"/>
		<path fill="#FFFFFF" d="M369.9,245.1c1.1,0.7,3,1.4,4.8,1.4c2.6,0,3.8-1.3,3.8-3c0-1.7-1-2.6-3.6-3.6c-3.6-1.3-5.3-3.2-5.3-5.6
			c0-3.2,2.6-5.8,6.8-5.8c2,0,3.8,0.5,4.8,1.2l-0.9,2.6c-0.8-0.5-2.2-1.2-4.1-1.2c-2.1,0-3.3,1.2-3.3,2.7c0,1.6,1.1,2.4,3.7,3.4
			c3.4,1.3,5.2,3,5.2,5.9c0,3.5-2.7,6-7.4,6c-2.2,0-4.2-0.6-5.6-1.4L369.9,245.1z"/>
		<path fill="#FFFFFF" d="M388.6,239.4c0.1,4.9,3.2,6.9,6.8,6.9c2.6,0,4.2-0.5,5.5-1l0.7,2.6c-1.3,0.6-3.5,1.3-6.6,1.3
			c-6.1,0-9.8-4.1-9.8-10c0-6,3.5-10.7,9.3-10.7c6.5,0,8.2,5.7,8.2,9.3c0,0.7,0,1.3-0.1,1.7H388.6z M399.2,236.9
			c0-2.3-0.9-5.8-5-5.8c-3.7,0-5.2,3.3-5.5,5.8H399.2z"/>
		<path fill="#FFFFFF" d="M421.3,248c-0.9,0.5-3,1.1-5.7,1.1c-6,0-9.9-4.1-9.9-10.1c0-6.1,4.2-10.6,10.7-10.6c2.1,0,4,0.5,5,1.1
			l-0.8,2.7c-0.9-0.5-2.2-0.9-4.2-0.9c-4.6,0-7,3.4-7,7.5c0,4.6,3,7.4,6.9,7.4c2,0,3.4-0.5,4.4-0.9L421.3,248z"/>
		<path fill="#FFFFFF" d="M430.4,224.1v4.8h5.2v2.7h-5.2v10.7c0,2.5,0.7,3.9,2.7,3.9c1,0,1.6-0.1,2.1-0.2l0.2,2.7
			c-0.7,0.2-1.8,0.5-3.2,0.5c-1.7,0-3-0.6-3.9-1.5c-1-1.1-1.4-2.9-1.4-5.2v-10.8h-3.1v-2.7h3.1v-3.7L430.4,224.1z"/>
		<path fill="#FFFFFF" d="M441.4,239.4c0.1,4.9,3.2,6.9,6.8,6.9c2.6,0,4.2-0.5,5.5-1l0.7,2.6c-1.3,0.6-3.5,1.3-6.6,1.3
			c-6.1,0-9.8-4.1-9.8-10c0-6,3.5-10.7,9.3-10.7c6.5,0,8.2,5.7,8.2,9.3c0,0.7,0,1.3-0.1,1.7H441.4z M451.9,236.9
			c0-2.3-0.9-5.8-5-5.8c-3.7,0-5.2,3.3-5.5,5.8H451.9z"/>
		<path fill="#FFFFFF" d="M464.2,224.1v4.8h5.2v2.7h-5.2v10.7c0,2.5,0.7,3.9,2.7,3.9c1,0,1.6-0.1,2.1-0.2l0.2,2.7
			c-0.7,0.2-1.8,0.5-3.2,0.5c-1.7,0-3-0.6-3.9-1.5c-1-1.1-1.4-2.9-1.4-5.2v-10.8h-3.1v-2.7h3.1v-3.7L464.2,224.1z"/>
		<path fill="#FFFFFF" d="M490.1,243.3c0,2.1,0,3.9,0.2,5.5H487l-0.2-3.2h-0.1c-0.9,1.6-3,3.7-6.6,3.7c-3.1,0-6.8-1.8-6.8-8.7v-11.6
			h3.6v10.9c0,3.8,1.2,6.4,4.4,6.4c2.4,0,4.1-1.7,4.8-3.3c0.2-0.5,0.3-1.1,0.3-1.8v-12.1h3.6V243.3z"/>
		<path fill="#FFFFFF" d="M498.1,239.4c0.1,4.9,3.2,6.9,6.8,6.9c2.6,0,4.2-0.5,5.5-1l0.7,2.6c-1.3,0.6-3.5,1.3-6.6,1.3
			c-6.1,0-9.8-4.1-9.8-10c0-6,3.5-10.7,9.3-10.7c6.5,0,8.2,5.7,8.2,9.3c0,0.7,0,1.3-0.1,1.7H498.1z M508.7,236.9
			c0-2.3-0.9-5.8-5-5.8c-3.7,0-5.2,3.3-5.5,5.8H508.7z"/>
		<path fill="#FFFFFF" d="M516.6,235.1c0-2.3,0-4.3-0.2-6.2h3.2l0.2,3.9h0.1c0.9-2.7,3.1-4.3,5.5-4.3c0.4,0,0.7,0,1,0.1v3.4
			c-0.4-0.1-0.7-0.1-1.2-0.1c-2.5,0-4.3,1.9-4.8,4.6c-0.1,0.5-0.1,1.1-0.1,1.7v10.6h-3.6V235.1z"/>
		<path fill="#FFFFFF" d="M238.9,268.8h3.6v12.4h0.1c0.6-1,1.5-2,2.6-2.6c1.1-0.6,2.3-1,3.7-1c2.7,0,6.9,1.6,6.9,8.4v11.8h-3.6
			v-11.4c0-3.2-1.2-5.9-4.6-5.9c-2.3,0-4.1,1.6-4.8,3.6c-0.2,0.5-0.2,1.1-0.2,1.7v12h-3.6V268.8z"/>
		<path fill="#FFFFFF" d="M263.7,288.6c0.1,4.9,3.2,6.9,6.8,6.9c2.6,0,4.2-0.5,5.5-1l0.7,2.6c-1.3,0.6-3.5,1.3-6.6,1.3
			c-6.1,0-9.8-4.1-9.8-10c0-6,3.5-10.7,9.3-10.7c6.5,0,8.2,5.7,8.2,9.3c0,0.7,0,1.3-0.1,1.7H263.7z M274.2,286.1
			c0-2.3-0.9-5.8-5-5.8c-3.7,0-5.2,3.3-5.5,5.8H274.2z"/>
		<path fill="#FFFFFF" d="M282.2,283.4c0-2.1,0-3.7-0.2-5.4h3.2l0.2,3.3h0.1c1-1.8,3.3-3.7,6.6-3.7c2.7,0,7,1.6,7,8.4v11.8h-3.6
			v-11.4c0-3.2-1.2-5.9-4.6-5.9c-2.3,0-4.2,1.7-4.8,3.7c-0.2,0.5-0.2,1.1-0.2,1.7v11.9h-3.6V283.4z"/>
		<path fill="#FFFFFF" d="M322,268.8v24c0,1.8,0.1,3.8,0.2,5.1H319l-0.2-3.4h-0.1c-1.1,2.2-3.4,3.9-6.7,3.9c-4.8,0-8.5-4.1-8.5-10.1
			c0-6.6,4.1-10.6,8.9-10.6c3.1,0,5.1,1.4,6,3h0.1v-11.8H322z M318.5,286.1c0-0.5,0-1.1-0.2-1.5c-0.5-2.3-2.5-4.1-5.2-4.1
			c-3.7,0-5.9,3.3-5.9,7.6c0,4,2,7.3,5.9,7.3c2.4,0,4.6-1.6,5.3-4.3c0.1-0.5,0.2-1,0.2-1.6V286.1z"/>
		<path fill="#FFFFFF" d="M328.1,284.3c0-2.3,0-4.3-0.2-6.2h3.2l0.2,3.9h0.1c0.9-2.7,3.1-4.3,5.5-4.3c0.4,0,0.7,0,1,0.1v3.4
			c-0.4-0.1-0.7-0.1-1.2-0.1c-2.5,0-4.3,1.9-4.8,4.6c-0.1,0.5-0.1,1.1-0.1,1.7v10.6h-3.6V284.3z"/>
		<path fill="#FFFFFF" d="M343.1,288.6c0.1,4.9,3.2,6.9,6.8,6.9c2.6,0,4.2-0.5,5.5-1l0.7,2.6c-1.3,0.6-3.5,1.3-6.6,1.3
			c-6.1,0-9.8-4.1-9.8-10c0-6,3.5-10.7,9.3-10.7c6.5,0,8.2,5.7,8.2,9.3c0,0.7,0,1.3-0.1,1.7H343.1z M353.7,286.1
			c0-2.3-0.9-5.8-5-5.8c-3.7,0-5.2,3.3-5.5,5.8H353.7z"/>
		<path fill="#FFFFFF" d="M361.6,284.3c0-2.3,0-4.3-0.2-6.2h3.2l0.2,3.9h0.1c0.9-2.7,3.1-4.3,5.5-4.3c0.4,0,0.7,0,1,0.1v3.4
			c-0.4-0.1-0.7-0.1-1.2-0.1c-2.5,0-4.3,1.9-4.8,4.6c-0.1,0.5-0.1,1.1-0.1,1.7v10.6h-3.6V284.3z"/>
		<path fill="#FFFFFF" d="M379.2,272.5c0,1.2-0.9,2.2-2.3,2.2c-1.3,0-2.2-1-2.2-2.2c0-1.2,0.9-2.3,2.3-2.3
			C378.3,270.2,379.2,271.2,379.2,272.5z M375.2,297.9v-19.8h3.6v19.8H375.2z"/>
		<path fill="#FFFFFF" d="M389.1,273.3v4.8h5.2v2.7h-5.2v10.7c0,2.5,0.7,3.9,2.7,3.9c1,0,1.6-0.1,2.1-0.2l0.2,2.7
			c-0.7,0.2-1.8,0.5-3.2,0.5c-1.7,0-3-0.6-3.9-1.5c-1-1.1-1.4-2.9-1.4-5.2v-10.8h-3.1v-2.7h3.1v-3.7L389.1,273.3z"/>
		<path fill="#FFFFFF" d="M407,268.8h3.6v29.1H407V268.8z"/>
		<path fill="#FFFFFF" d="M430.6,293.2c0,1.7,0.1,3.4,0.3,4.8h-3.2l-0.3-2.5h-0.1c-1.1,1.6-3.2,3-6.1,3c-4,0-6.1-2.8-6.1-5.7
			c0-4.8,4.3-7.4,11.9-7.4v-0.4c0-1.6-0.5-4.6-4.5-4.6c-1.9,0-3.8,0.5-5.2,1.5l-0.8-2.4c1.6-1,4.1-1.7,6.6-1.7
			c6.1,0,7.5,4.1,7.5,8.1V293.2z M427.2,287.8c-3.9-0.1-8.4,0.6-8.4,4.5c0,2.4,1.6,3.4,3.4,3.4c2.6,0,4.3-1.6,4.9-3.3
			c0.1-0.4,0.2-0.8,0.2-1.1V287.8z"/>
		<path fill="#FFFFFF" d="M450.6,297.2c-0.9,0.5-3,1.1-5.7,1.1c-6,0-9.9-4.1-9.9-10.1c0-6.1,4.2-10.6,10.7-10.6c2.1,0,4,0.5,5,1.1
			l-0.8,2.7c-0.9-0.5-2.2-0.9-4.2-0.9c-4.6,0-7,3.4-7,7.5c0,4.6,3,7.4,6.9,7.4c2,0,3.4-0.5,4.4-0.9L450.6,297.2z"/>
		<path fill="#FFFFFF" d="M468.8,293.2c0,1.7,0.1,3.4,0.3,4.8h-3.2l-0.3-2.5h-0.1c-1.1,1.6-3.2,3-6.1,3c-4,0-6.1-2.8-6.1-5.7
			c0-4.8,4.3-7.4,11.9-7.4v-0.4c0-1.6-0.5-4.6-4.5-4.6c-1.9,0-3.8,0.5-5.2,1.5l-0.8-2.4c1.6-1,4.1-1.7,6.6-1.7
			c6.1,0,7.5,4.1,7.5,8.1V293.2z M465.3,287.8c-3.9-0.1-8.4,0.6-8.4,4.5c0,2.4,1.6,3.4,3.4,3.4c2.6,0,4.3-1.6,4.9-3.3
			c0.1-0.4,0.2-0.8,0.2-1.1V287.8z"/>
		<path fill="#FFFFFF" d="M474.6,283.4c0-2.1,0-3.7-0.2-5.4h3.2l0.2,3.3h0.1c1-1.8,3.3-3.7,6.6-3.7c2.7,0,7,1.6,7,8.4v11.8h-3.6
			v-11.4c0-3.2-1.2-5.9-4.6-5.9c-2.3,0-4.2,1.7-4.8,3.7c-0.2,0.5-0.2,1.1-0.2,1.7v11.9h-3.6V283.4z"/>
		<path fill="#FFFFFF" d="M510.4,273.3v4.8h5.2v2.7h-5.2v10.7c0,2.5,0.7,3.9,2.7,3.9c1,0,1.6-0.1,2.1-0.2l0.2,2.7
			c-0.7,0.2-1.8,0.5-3.2,0.5c-1.7,0-3-0.6-3.9-1.5c-1-1.1-1.4-2.9-1.4-5.2v-10.8h-3.1v-2.7h3.1v-3.7L510.4,273.3z"/>
		<path fill="#FFFFFF" d="M521.4,288.6c0.1,4.9,3.2,6.9,6.8,6.9c2.6,0,4.2-0.5,5.5-1l0.7,2.6c-1.3,0.6-3.5,1.3-6.6,1.3
			c-6.1,0-9.8-4.1-9.8-10c0-6,3.5-10.7,9.3-10.7c6.5,0,8.2,5.7,8.2,9.3c0,0.7,0,1.3-0.1,1.7H521.4z M532,286.1c0-2.3-0.9-5.8-5-5.8
			c-3.7,0-5.2,3.3-5.5,5.8H532z"/>
		<path fill="#FFFFFF" d="M539.9,268.8h3.6v29.1h-3.6V268.8z"/>
		<path fill="#FFFFFF" d="M549.6,268.8h3.6v29.1h-3.6V268.8z"/>
		<path fill="#FFFFFF" d="M575.9,292.5c0,2.1,0,3.9,0.2,5.5h-3.2l-0.2-3.2h-0.1c-0.9,1.6-3,3.7-6.6,3.7c-3.1,0-6.8-1.8-6.8-8.7
			v-11.6h3.6V289c0,3.8,1.2,6.4,4.4,6.4c2.4,0,4.1-1.7,4.8-3.3c0.2-0.5,0.3-1.1,0.3-1.8v-12.1h3.6V292.5z"/>
		<path fill="#FFFFFF" d="M581.4,294.3c1.1,0.7,3,1.4,4.8,1.4c2.6,0,3.8-1.3,3.8-3c0-1.7-1-2.6-3.6-3.6c-3.6-1.3-5.3-3.2-5.3-5.6
			c0-3.2,2.6-5.8,6.8-5.8c2,0,3.8,0.5,4.8,1.2l-0.9,2.6c-0.8-0.5-2.2-1.2-4.1-1.2c-2.1,0-3.3,1.2-3.3,2.7c0,1.6,1.1,2.4,3.7,3.4
			c3.4,1.3,5.2,3,5.2,5.9c0,3.5-2.7,6-7.4,6c-2.2,0-4.2-0.6-5.6-1.4L581.4,294.3z"/>
		<path fill="#FFFFFF" d="M266.8,332.6c0-2.1-0.1-3.7-0.2-5.4h3.2l0.2,3.2h0.1c1.1-1.9,3-3.6,6.3-3.6c2.7,0,4.7,1.6,5.6,4h0.1
			c0.6-1.1,1.4-2,2.3-2.6c1.2-0.9,2.5-1.4,4.3-1.4c2.7,0,6.6,1.7,6.6,8.6v11.6h-3.5v-11.2c0-3.9-1.4-6.1-4.3-6.1
			c-2.1,0-3.6,1.5-4.3,3.2c-0.2,0.5-0.3,1.1-0.3,1.8v12.3h-3.5v-11.9c0-3.2-1.4-5.4-4.1-5.4c-2.2,0-3.9,1.8-4.5,3.6
			c-0.2,0.5-0.3,1.1-0.3,1.8v11.9h-3.5V332.6z"/>
		<path fill="#FFFFFF" d="M303,337.8c0.1,4.9,3.2,6.9,6.8,6.9c2.6,0,4.2-0.5,5.5-1l0.7,2.6c-1.3,0.6-3.5,1.3-6.6,1.3
			c-6.1,0-9.8-4.1-9.8-10c0-6,3.5-10.7,9.3-10.7c6.5,0,8.2,5.7,8.2,9.3c0,0.7,0,1.3-0.1,1.7H303z M313.6,335.3c0-2.3-0.9-5.8-5-5.8
			c-3.7,0-5.2,3.3-5.5,5.8H313.6z"/>
		<path fill="#FFFFFF" d="M325.9,322.5v4.8h5.2v2.7h-5.2v10.7c0,2.5,0.7,3.9,2.7,3.9c1,0,1.6-0.1,2.1-0.2l0.2,2.7
			c-0.7,0.2-1.8,0.5-3.2,0.5c-1.7,0-3-0.6-3.9-1.5c-1-1.1-1.4-2.9-1.4-5.2V330h-3.1v-2.7h3.1v-3.7L325.9,322.5z"/>
		<path fill="#FFFFFF" d="M351.7,341.7c0,2.1,0,3.9,0.2,5.5h-3.2l-0.2-3.2h-0.1c-0.9,1.6-3,3.7-6.6,3.7c-3.1,0-6.8-1.8-6.8-8.7
			v-11.6h3.6v10.9c0,3.8,1.2,6.4,4.4,6.4c2.4,0,4.1-1.7,4.8-3.3c0.2-0.5,0.3-1.1,0.3-1.8v-12.1h3.6V341.7z"/>
		<path fill="#FFFFFF" d="M357.2,343.5c1.1,0.7,3,1.4,4.8,1.4c2.6,0,3.8-1.3,3.8-3c0-1.7-1-2.6-3.6-3.6c-3.6-1.3-5.3-3.2-5.3-5.6
			c0-3.2,2.6-5.8,6.8-5.8c2,0,3.8,0.5,4.8,1.2l-0.9,2.6c-0.8-0.5-2.2-1.2-4.1-1.2c-2.1,0-3.3,1.2-3.3,2.7c0,1.6,1.1,2.4,3.7,3.4
			c3.4,1.3,5.2,3,5.2,5.9c0,3.5-2.7,6-7.4,6c-2.2,0-4.2-0.6-5.6-1.4L357.2,343.5z"/>
		<path fill="#FFFFFF" d="M371.2,352.2c0.9-2.5,2-6.8,2.5-9.8l4-0.4c-1,3.5-2.8,8-3.9,10L371.2,352.2z"/>
		<path fill="#FFFFFF" d="M390.7,318h3.6v12.5h0.1c1.3-2.2,3.6-3.6,6.8-3.6c5,0,8.4,4.1,8.4,10.1c0,7.1-4.5,10.6-8.9,10.6
			c-2.9,0-5.2-1.1-6.7-3.7h-0.1l-0.2,3.2h-3.1c0.1-1.4,0.2-3.4,0.2-5.1V318z M394.3,339.2c0,0.5,0,0.9,0.2,1.3
			c0.7,2.5,2.8,4.2,5.4,4.2c3.8,0,6-3.1,6-7.6c0-4-2-7.4-5.9-7.4c-2.4,0-4.7,1.7-5.5,4.4c-0.1,0.5-0.2,0.9-0.2,1.5V339.2z"/>
		<path fill="#FFFFFF" d="M418,321.7c0,1.2-0.9,2.2-2.3,2.2c-1.3,0-2.2-1-2.2-2.2c0-1.2,0.9-2.3,2.3-2.3
			C417.1,319.4,418,320.4,418,321.7z M414,347.1v-19.8h3.6v19.8H414z"/>
		<path fill="#FFFFFF" d="M423.6,318h3.6v12.5h0.1c1.3-2.2,3.6-3.6,6.8-3.6c5,0,8.4,4.1,8.4,10.1c0,7.1-4.5,10.6-8.9,10.6
			c-2.9,0-5.2-1.1-6.7-3.7h-0.1l-0.2,3.2h-3.1c0.1-1.4,0.2-3.4,0.2-5.1V318z M427.2,339.2c0,0.5,0,0.9,0.2,1.3
			c0.7,2.5,2.8,4.2,5.4,4.2c3.8,0,6-3.1,6-7.6c0-4-2-7.4-5.9-7.4c-2.4,0-4.7,1.7-5.5,4.4c-0.1,0.5-0.2,0.9-0.2,1.5V339.2z"/>
		<path fill="#FFFFFF" d="M449,337.8c0.1,4.9,3.2,6.9,6.8,6.9c2.6,0,4.2-0.5,5.5-1l0.7,2.6c-1.3,0.6-3.5,1.3-6.6,1.3
			c-6.1,0-9.8-4.1-9.8-10c0-6,3.5-10.7,9.3-10.7c6.5,0,8.2,5.7,8.2,9.3c0,0.7,0,1.3-0.1,1.7H449z M459.5,335.3c0-2.3-0.9-5.8-5-5.8
			c-3.7,0-5.2,3.3-5.5,5.8H459.5z"/>
		<path fill="#FFFFFF" d="M467.5,332.6c0-2.1,0-3.7-0.2-5.4h3.2l0.2,3.3h0.1c1-1.8,3.3-3.7,6.6-3.7c2.7,0,7,1.6,7,8.4v11.8h-3.6
			v-11.4c0-3.2-1.2-5.9-4.6-5.9c-2.3,0-4.2,1.7-4.8,3.7c-0.2,0.5-0.2,1.1-0.2,1.7v11.9h-3.6V332.6z"/>
		<path fill="#FFFFFF" d="M507.3,318v24c0,1.8,0.1,3.8,0.2,5.1h-3.2l-0.2-3.4H504c-1.1,2.2-3.4,3.9-6.7,3.9c-4.8,0-8.5-4.1-8.5-10.1
			c0-6.6,4.1-10.6,8.9-10.6c3.1,0,5.1,1.4,6,3h0.1V318H507.3z M503.8,335.3c0-0.5,0-1.1-0.2-1.5c-0.5-2.3-2.5-4.1-5.2-4.1
			c-3.7,0-5.9,3.3-5.9,7.6c0,4,2,7.3,5.9,7.3c2.4,0,4.6-1.6,5.3-4.3c0.1-0.5,0.2-1,0.2-1.6V335.3z"/>
		<path fill="#FFFFFF" d="M530,341.7c0,2.1,0,3.9,0.2,5.5h-3.2l-0.2-3.2h-0.1c-0.9,1.6-3,3.7-6.6,3.7c-3.1,0-6.8-1.8-6.8-8.7v-11.6
			h3.6v10.9c0,3.8,1.2,6.4,4.4,6.4c2.4,0,4.1-1.7,4.8-3.3c0.2-0.5,0.3-1.1,0.3-1.8v-12.1h3.6V341.7z"/>
		<path fill="#FFFFFF" d="M536,332.6c0-2.1-0.1-3.7-0.2-5.4h3.2l0.2,3.2h0.1c1.1-1.9,3-3.6,6.3-3.6c2.7,0,4.7,1.6,5.6,4h0.1
			c0.6-1.1,1.4-2,2.3-2.6c1.2-0.9,2.5-1.4,4.3-1.4c2.7,0,6.6,1.7,6.6,8.6v11.6h-3.5v-11.2c0-3.9-1.4-6.1-4.3-6.1
			c-2.1,0-3.6,1.5-4.3,3.2c-0.2,0.5-0.3,1.1-0.3,1.8v12.3h-3.5v-11.9c0-3.2-1.4-5.4-4.1-5.4c-2.2,0-3.9,1.8-4.5,3.6
			c-0.2,0.5-0.3,1.1-0.3,1.8v11.9H536V332.6z"/>
	</g>
</g>
<path fill="#003366" d="M688.3,468.3L534.7,314.6c21.7-26.1,34.7-59.7,34.7-96.2c0-83.2-67.7-150.9-150.9-150.9
	c-83.2,0-150.9,67.7-150.9,150.9c0,83.2,67.7,150.9,150.9,150.9c36.5,0,70.1-13.1,96.2-34.7l153.7,153.7c2.8,2.8,6.4,4.2,10,4.2
	c3.6,0,7.3-1.4,10-4.2C693.9,482.8,693.9,473.8,688.3,468.3z M418.4,341.1c-67.6,0-122.6-55-122.6-122.6
	c0-67.6,55-122.6,122.6-122.6c67.6,0,122.6,55,122.6,122.6C541.1,286.1,486.1,341.1,418.4,341.1z"/>
</svg>
