<?xml version="1.0" encoding="utf-8"?>
<!-- Generator: Adobe Illustrator 18.1.1, SVG Export Plug-In . SVG Version: 6.00 Build 0)  -->
<svg version="1.1" id="Layer_1" xmlns="http://www.w3.org/2000/svg" xmlns:xlink="http://www.w3.org/1999/xlink" x="0px" y="0px"
	 viewBox="0 0 205 158" enable-background="new 0 0 205 158" xml:space="preserve">
<g>
	<rect x="-1209.7" y="4.5" fill="#EDF4FE" width="205" height="158"/>
	<path fill="#F7931E" stroke="#000000" stroke-width="3" stroke-miterlimit="10" d="M-1102.6,26.4l15.5,31.3
		c0.7,1.5,2.2,2.5,3.8,2.8l34.6,5c4.2,0.6,5.8,5.7,2.8,8.7l-25,24.4c-1.2,1.2-1.7,2.9-1.5,4.5l5.9,34.4c0.7,4.2-3.7,7.3-7.4,5.4
		l-30.9-16.3c-1.5-0.8-3.3-0.8-4.7,0l-30.9,16.3c-3.7,2-8.1-1.2-7.4-5.4l5.9-34.4c0.3-1.7-0.3-3.3-1.5-4.5l-25-24.4
		c-3-2.9-1.4-8.1,2.8-8.7l34.6-5c1.7-0.2,3.1-1.3,3.8-2.8l15.5-31.3C-1109.9,22.6-1104.5,22.6-1102.6,26.4z"/>
</g>
<g>
	<rect x="-549" y="-3" fill="#EDF4FE" width="205" height="158"/>
	<g>
		<g>
			<path fill="#0055AA" stroke="#000000" stroke-width="2" stroke-miterlimit="10" d="M-388.5,16h-116c-1.1,0-2,0.9-2,2v76
				c0,1.1,0.9,2,2,2h56v13.2l-23.4,23.4c-0.8,0.8-0.8,2,0,2.8c0.8,0.8,2,0.8,2.8,0l22.6-22.6l22.6,22.6c0.4,0.4,0.9,0.6,1.4,0.6
				c0.5,0,1-0.2,1.4-0.6c0.8-0.8,0.8-2,0-2.8l-23.4-23.4V96h56c1.1,0,2-0.9,2-2V18C-386.5,16.9-387.4,16-388.5,16z M-398.5,82
				c0,1.1-0.9,2-2,2h-92c-1.1,0-2-0.9-2-2V58V30c0-1.1,0.9-2,2-2h92c1.1,0,2,0.9,2,2V82z"/>
		</g>
		<path fill="#F15A24" d="M-430.8,62.7c-1.8-1.8-4.4-2.4-6.7-1.5l-4.8-4.8l4.8-4.8c0.7,0.2,1.4,0.4,2.2,0.4c1.7,0,3.4-0.7,4.6-1.9
			c1.9-1.9,2.4-4.6,1.4-7c-0.1-0.2-0.2-0.3-0.5-0.4c-0.2,0-0.4,0-0.5,0.2l-2.6,3.1h-2.7V43l3-2.7c0.2-0.1,0.2-0.3,0.2-0.5
			c0-0.2-0.2-0.4-0.3-0.4c-0.8-0.3-1.7-0.5-2.5-0.5c-1.7,0-3.4,0.7-4.6,1.9c-1.8,1.8-2.4,4.4-1.5,6.7l-4.8,4.8l-4.8-4.8
			c0.8-2.4,0.3-5-1.5-6.7c-1.9-1.9-4.6-2.4-7-1.4c-0.2,0.1-0.3,0.2-0.4,0.4c0,0.2,0,0.4,0.2,0.5l3.1,2.7v2.9h-2.9l-2.6-3.1
			c-0.1-0.2-0.3-0.2-0.5-0.2c-0.2,0-0.4,0.2-0.5,0.4c-1,2.4-0.5,5.2,1.4,7.1c1.8,1.8,4.4,2.3,6.7,1.5l4.8,4.8l-4.8,4.8
			c-0.7-0.2-1.4-0.4-2.2-0.4c-1.7,0-3.4,0.7-4.6,1.9c-1.9,1.9-2.4,4.7-1.4,7.1c0.1,0.2,0.2,0.3,0.4,0.3c0.2,0,0.4,0,0.5-0.2l2.6-3
			h2.9v2.7l-3.1,2.7c-0.2,0.1-0.2,0.3-0.2,0.5c0,0.2,0.2,0.4,0.4,0.4c0.8,0.3,1.7,0.5,2.5,0.5h0c1.7,0,3.3-0.7,4.5-1.9
			c1.8-1.8,2.3-4.4,1.5-6.7l4.8-4.8l4.8,4.8c-0.8,2.4-0.3,5,1.5,6.7c1.2,1.2,2.9,1.9,4.6,1.9c0.9,0,1.7-0.2,2.5-0.5
			c0.2-0.1,0.3-0.2,0.4-0.4c0-0.2,0-0.4-0.2-0.5l-3-2.6v-2.7h2.7l2.7,3c0.1,0.2,0.3,0.2,0.5,0.2c0.2,0,0.4-0.2,0.4-0.3
			C-428.3,67.3-428.9,64.5-430.8,62.7z"/>
	</g>
</g>
<g>
	<rect x="-273" y="-1" fill="#EDF4FE" width="205" height="158"/>
	<g>
		<path fill="#0088FF" stroke="#000000" stroke-width="3" stroke-miterlimit="10" d="M-216.7,85.9c0.4,0,0.8-0.1,1.1-0.3l90.1-59.3
			l-1.6,14.2c-0.1,1.1,0.7,2.2,1.8,2.3c0.1,0,0.2,0,0.2,0c1,0,1.9-0.8,2.1-1.8l2.1-18.6c0-0.1,0-0.2,0-0.3c0-0.1,0-0.3,0-0.4
			c0-0.1-0.1-0.3-0.2-0.4c0-0.1,0-0.2-0.1-0.3c0,0,0,0-0.1-0.1c-0.1-0.1-0.2-0.2-0.3-0.3c-0.1-0.1-0.2-0.2-0.3-0.2
			c-0.1-0.1-0.2-0.1-0.3-0.1c-0.1-0.1-0.3-0.1-0.4-0.1c0,0-0.1,0-0.1,0l-18.6-2.1c-1.1-0.1-2.2,0.7-2.3,1.8
			c-0.1,1.1,0.7,2.2,1.8,2.3l12.9,1.4l-89,58.6c-1,0.6-1.2,1.9-0.6,2.9C-218.1,85.6-217.4,85.9-216.7,85.9z"/>
		<path fill="#003366" stroke="#000000" stroke-width="3" stroke-miterlimit="10" d="M-110.5,133.9h-6.2V57.3c0-1.1-0.9-2.1-2.1-2.1
			h-16.6c-1.1,0-2.1,0.9-2.1,2.1v76.6h-8.3V78c0-1.1-0.9-2.1-2.1-2.1h-16.6c-1.1,0-2.1,0.9-2.1,2.1v55.9h-8.3V98.7
			c0-1.1-0.9-2.1-2.1-2.1h-16.6c-1.1,0-2.1,0.9-2.1,2.1v35.2h-8.3v-14.5c0-1.1-0.9-2.1-2.1-2.1h-16.6c-1.1,0-2.1,0.9-2.1,2.1v14.5
			h-6.2c-1.1,0-2.1,0.9-2.1,2.1s0.9,2.1,2.1,2.1h8.3h16.6h12.4h16.6h12.4h16.6h12.4h16.6h8.3c1.1,0,2.1-0.9,2.1-2.1
			S-109.4,133.9-110.5,133.9z"/>
	</g>
</g>
<g>
	<rect x="0" y="0" fill="#EDF4FE" width="205" height="158"/>
	<g>
		<path fill="#00FF00" stroke="#000000" stroke-width="3" stroke-miterlimit="10" d="M32.8,107.3c0,0.9,0.5,1.7,1.3,2.1L97.9,139
			v-1.5v-3.6V90.2v0l-65-30.4V107.3z"/>
		<path fill="#FF0000" stroke="#000000" stroke-width="3" stroke-miterlimit="10" d="M161.2,52.9c1.4-1.5,2.2-3.3,2.2-5.2
			c0-6.3-8.6-11.1-19.9-11.1c-5.4,0-10.1,1.1-13.7,2.9l-9.6-4.2c1.4-1.5,2.2-3.3,2.2-5.2c0-6.3-8.6-11.1-19.9-11.1
			s-19.9,4.8-19.9,11.1c0,1.9,0.8,3.7,2.2,5.2l-8.1,3.5c-3.3-1.4-7.5-2.2-12.2-2.2c-11.3,0-19.9,4.8-19.9,11.1c0,1.5,0.5,3,1.4,4.3
			l-10.5,3.9l64.8,30.2l69.2-30.3L161.2,52.9z M64.4,54.1c-8.7,0-15.3-3.4-15.3-6.5c0-3.1,6.5-6.5,15.3-6.5s15.3,3.4,15.3,6.5
			C79.7,50.7,73.2,54.1,64.4,54.1z M102.5,68.8c-8.7,0-15.3-3.4-15.3-6.5c0-3.1,6.5-6.5,15.3-6.5c8.7,0,15.2,3.4,15.2,6.5
			C117.7,65.4,111.2,68.8,102.5,68.8z M102.5,36.6c-8.7,0-15.3-3.4-15.3-6.5c0-3.1,6.5-6.5,15.3-6.5c8.7,0,15.2,3.4,15.2,6.5
			C117.7,33.2,111.2,36.6,102.5,36.6z M143.5,54.1c-8.7,0-15.3-3.4-15.3-6.5c0-3.1,6.5-6.5,15.3-6.5c8.7,0,15.2,3.4,15.2,6.5
			C158.8,50.7,152.2,54.1,143.5,54.1z"/>
		<path fill="#0000FF" stroke="#000000" stroke-width="3" stroke-miterlimit="10" d="M102.5,90.2L102.5,90.2v43.7v3.5v1.5l68.3-29.6
			c0.9-0.4,1.4-1.2,1.4-2.1V59.7L102.5,90.2z"/>
	</g>
</g>
<g>
	<rect x="-833" y="1" fill="#EDF4FE" width="205" height="158"/>
	<g>
		<path fill="#55BBFF" stroke="#020202" stroke-width="3" stroke-miterlimit="10" d="M-790.5,60v78c0,1.1,0.9,2,2,2h116
			c1.1,0,2-0.9,2-2V60H-790.5z M-730.5,78c0-1.1,0.9-2,2-2h24c0.7,0,1.3,0.3,1.7,0.9c0.4,0.5,0.4,1.2,0.2,1.9l-6.9,17.3h1.7
			c1.1,0,2,0.9,2,2s-0.9,2-2,2h-3.3l-7.4,18.6c-0.3,0.8-1.1,1.3-1.9,1.3c-0.2,0-0.5,0-0.7-0.1c-1-0.4-1.5-1.6-1.1-2.6l6.8-17.1h-7.5
			c-1.1,0-2-0.9-2-2s0.9-2,2-2h9.1l6.4-16h-19v2.5c0,1.1-0.9,2-2,2s-2-0.9-2-2V78z M-753.1,89.4c-0.8,0.8-2,0.8-2.8,0
			c-0.8-0.8-0.8-2,0-2.8l10-10c0.6-0.6,1.4-0.8,2.2-0.4c0.7,0.3,1.2,1,1.2,1.8v38h8c1.1,0,2,0.9,2,2s-0.9,2-2,2h-20
			c-1.1,0-2-0.9-2-2s0.9-2,2-2h8V82.8L-753.1,89.4z"/>
		<path fill="#55BBFF" stroke="#020202" stroke-width="3" stroke-miterlimit="10" d="M-670.5,56V34c0-1.1-0.9-2-2-2h-18V22
			c0-1.1-0.9-2-2-2h-16c-1.1,0-2,0.9-2,2v10h-40V22c0-1.1-0.9-2-2-2h-16c-1.1,0-2,0.9-2,2v10h-18c-1.1,0-2,0.9-2,2v22H-670.5z
			 M-706.5,24h12v16h-12V24z M-754.5,40h-12V24h12V40z"/>
	</g>
</g>
</svg>
