<?xml version="1.0" encoding="utf-8"?>
<!-- Generator: Adobe Illustrator 18.1.1, SVG Export Plug-In . SVG Version: 6.00 Build 0)  -->
<svg version="1.1" id="Layer_1" xmlns="http://www.w3.org/2000/svg" xmlns:xlink="http://www.w3.org/1999/xlink" x="0px" y="0px"
	 viewBox="0 0 347.9 98.8" enable-background="new 0 0 347.9 98.8" xml:space="preserve">
<g>
	<g>
		<g>
			<path fill="#437EC0" d="M182.1,30.1v8.2h-20.3v-8.2H182.1z"/>
		</g>
		<path fill="#437EC0" d="M347.9,71l-36.5-21.1V35.8c1.1,0.2,2.5,0.3,4,0.3c7,0,12.9-1.9,16.9-5.7c3.2-3,4.8-7.6,4.8-13
			c0-5.3-2.2-9.9-5.6-12.6c-3.5-2.9-8.7-4.4-15.9-4.4c-7.2,0-12.3,0.5-15.9,1.1v53.9h-21.6c9.2-2.2,13.6-8.7,13.6-16.1
			c0-7.7-4.2-12.7-13.5-16.3c-6.8-2.7-9.7-4.2-9.7-7.7c0-2.8,2.5-5.3,7.6-5.3c5,0,8.8,1.5,10.8,2.6l2.6-9.9
			c-3.1-1.5-7.4-2.8-13.3-2.8c-12.2,0-19.7,7.1-19.7,16.4c0,7.9,5.7,13,14.4,16.2c6.3,2.3,8.7,4.2,8.7,7.6c0,3.6-2.9,5.9-8.3,5.9
			c-5,0-10-1.7-13.1-3.4l-2.4,10.1c1.7,1,4.3,1.9,7.3,2.6h-24.8c4.2-0.6,7.9-1.7,10.3-2.5V24.2h-19.4v9.6h8.1v11.5
			c-0.9,0.4-3.1,0.7-5.7,0.7c-9.7,0-16.5-6.6-16.5-17.9c0-11.9,7.5-17.7,17.3-17.7c5.7,0,9.2,1,12.1,2.3l2.5-10
			c-2.6-1.2-7.7-2.6-14.5-2.6c-17.1,0-29.7,10.4-29.8,28.5c0,8,2.6,15.1,7.4,19.9c3.5,3.5,8.1,5.7,13.9,6.7H115.8V35.8
			c1.1,0.2,2.5,0.3,4,0.3c7,0,12.9-1.9,16.9-5.7c3.2-3,4.8-7.6,4.8-13c0-5.3-2.2-9.9-5.6-12.6c-3.5-2.9-8.7-4.4-15.9-4.4
			c-7.2,0-12.3,0.5-15.9,1.1v53.9h-6.9L81,0.8H65.5L49.7,55.4h-6.5V0.8H32.3v15.9c0,8.3,0.2,15.6,0.9,22.8h-0.2
			c-2.4-6.2-5.4-13-8.5-18.7l-10.8-20H0v85.7h299.7v12.3L347.9,71z M311.4,10.2c0.8-0.2,2.5-0.4,4.8-0.4c6,0,9.3,3,9.3,8
			c0,5.5-3.9,8.8-10.1,8.8c-1.8,0-2.9-0.1-3.9-0.3V10.2z M115.8,10.2c0.9-0.2,2.5-0.4,4.8-0.4c6,0,9.3,3,9.3,8
			c0,5.5-3.9,8.8-10.1,8.8c-1.8,0-2.9-0.1-3.9-0.3V10.2z M10.8,55.4V39c0-8.9-0.2-16.6-0.5-23.9h0.3c2.5,6.4,6,13.5,9,19.3
			l11.1,21.1H10.8z M70.3,20.6c0.9-3.2,1.6-7.3,2.4-10.5h0.2c0.8,3.2,1.7,7.3,2.6,10.5l3.2,11.6H67.2L70.3,20.6z M61.8,55.4l3.7-14
			h14.9l4,14H61.8z"/>
	</g>
	<text transform="matrix(1 0 0 1 9.3774 74.6895)" fill="#FFFFFF" font-family="'MyriadPro-Bold'" font-size="10.6945">NATIONAL ADAPTATION PLAN GLOBAL SUPPORT PROGRAMME</text>
</g>
</svg>
