<?xml version="1.0" encoding="utf-8"?>
<!-- Generator: Adobe Illustrator 18.1.1, SVG Export Plug-In . SVG Version: 6.00 Build 0)  -->
<svg version="1.1" id="Layer_1" xmlns="http://www.w3.org/2000/svg" xmlns:xlink="http://www.w3.org/1999/xlink" x="0px" y="0px"
	 viewBox="0 0 1616 207.5" enable-background="new 0 0 1616 207.5" xml:space="preserve">
<path fill="#F7931E" stroke="#000000" stroke-width="3" stroke-miterlimit="10" d="M116.6,6.4l26.4,53.5c1.3,2.6,3.7,4.3,6.6,4.8
	l59.1,8.6c7.1,1,10,9.8,4.8,14.8l-42.8,41.7c-2.1,2-3,4.9-2.5,7.7l10.1,58.8c1.2,7.1-6.2,12.5-12.6,9.2l-52.8-27.8
	c-2.5-1.3-5.6-1.3-8.1,0l-52.8,27.8c-6.4,3.4-13.8-2.1-12.6-9.2l10.1-58.8c0.5-2.8-0.5-5.7-2.5-7.7L4.1,88.1C-1,83,1.8,74.3,9,73.2
	L68,64.7c2.8-0.4,5.3-2.2,6.6-4.8L101,6.4C104.2-0.1,113.4-0.1,116.6,6.4z"/>
<g>
	<g>
		<path fill="#0055AA" stroke="#000000" stroke-width="2" stroke-miterlimit="10" d="M897.4,1.5H699.2c-1.9,0-3.4,1.5-3.4,3.4v129.8
			c0,1.9,1.5,3.4,3.4,3.4h95.7v22.5l-40,40c-1.3,1.3-1.3,3.5,0,4.8c1.3,1.3,3.5,1.3,4.8,0l38.6-38.6l38.6,38.6c0.7,0.7,1.5,1,2.4,1
			s1.7-0.3,2.4-1c1.3-1.3,1.3-3.5,0-4.8l-40-40v-22.5h95.7c1.9,0,3.4-1.5,3.4-3.4V4.9C900.8,3,899.2,1.5,897.4,1.5z M880.3,114.2
			c0,1.9-1.5,3.4-3.4,3.4H719.7c-1.9,0-3.4-1.5-3.4-3.4v-41V25.4c0-1.9,1.5-3.4,3.4-3.4h157.2c1.9,0,3.4,1.5,3.4,3.4V114.2z"/>
	</g>
	<path fill="#F15A24" d="M825.2,81.2c-3-3-7.5-4-11.5-2.6l-8.3-8.3l8.3-8.3c1.2,0.4,2.4,0.6,3.7,0.6c3,0,5.7-1.2,7.8-3.2
		c3.2-3.2,4.1-7.8,2.4-12c-0.1-0.3-0.4-0.5-0.8-0.6c-0.3-0.1-0.7,0.1-0.9,0.3l-4.5,5.3h-4.5v-4.9l5.1-4.5c0.3-0.2,0.4-0.6,0.3-0.9
		c-0.1-0.3-0.3-0.6-0.6-0.8c-1.4-0.6-2.8-0.9-4.3-0.9c-3,0-5.7,1.2-7.8,3.2c-3,3-4,7.5-2.6,11.5l-8.3,8.3l-8.3-8.3
		c1.4-4,0.4-8.5-2.6-11.5c-3.2-3.2-7.8-4.1-12-2.4c-0.3,0.1-0.5,0.4-0.6,0.8c-0.1,0.3,0.1,0.7,0.3,0.9l5.3,4.5v4.9h-4.9l-4.5-5.3
		c-0.2-0.3-0.6-0.4-0.9-0.3c-0.3,0.1-0.6,0.3-0.8,0.6c-1.8,4.1-0.8,8.9,2.4,12.1c3,3,7.5,4,11.5,2.6l8.3,8.2l-8.3,8.3
		c-1.2-0.4-2.4-0.6-3.7-0.6c-3,0-5.7,1.2-7.8,3.2c-3.2,3.2-4.1,8-2.4,12.2c0.1,0.3,0.4,0.5,0.8,0.6c0.3,0.1,0.7-0.1,0.9-0.3l4.5-5.1
		h4.9V93l-5.3,4.5c-0.3,0.2-0.4,0.6-0.3,0.9c0.1,0.3,0.3,0.6,0.6,0.8c1.4,0.6,2.8,0.9,4.3,0.9h0c2.9,0,5.7-1.2,7.8-3.2
		c3-3,4-7.5,2.5-11.5l8.3-8.3l8.3,8.3c-1.4,4-0.4,8.5,2.6,11.5c2.1,2.1,4.9,3.2,7.8,3.2c1.5,0,2.9-0.3,4.3-0.9
		c0.3-0.1,0.5-0.4,0.6-0.8c0.1-0.3-0.1-0.7-0.3-0.9l-5.1-4.5v-4.6h4.5l4.5,5.1c0.2,0.3,0.6,0.4,0.9,0.3c0.3-0.1,0.6-0.3,0.8-0.6
		C829.3,89.2,828.4,84.4,825.2,81.2z"/>
</g>
<g>
	<path fill="#0088FF" stroke="#000000" stroke-width="3" stroke-miterlimit="10" d="M1068.4,117.6c0.7,0,1.3-0.2,1.9-0.6l154-101.3
		l-2.7,24.3c-0.2,1.9,1.2,3.7,3.1,3.9c0.1,0,0.3,0,0.4,0c1.8,0,3.3-1.3,3.5-3.1l3.5-31.8c0-0.2,0-0.3,0-0.5c0-0.2,0-0.5-0.1-0.7
		c-0.1-0.3-0.2-0.5-0.3-0.7c-0.1-0.1-0.1-0.3-0.2-0.4c0,0-0.1-0.1-0.1-0.1c-0.1-0.2-0.3-0.4-0.5-0.5c-0.2-0.1-0.3-0.3-0.5-0.4
		c-0.2-0.1-0.4-0.2-0.6-0.2c-0.2-0.1-0.5-0.2-0.7-0.2c-0.1,0-0.1,0-0.2,0l-31.8-3.5c-1.9-0.2-3.7,1.2-3.9,3.1
		c-0.2,1.9,1.2,3.7,3.1,3.9l22.1,2.5l-152.1,100.1c-1.6,1.1-2.1,3.3-1,4.9C1066.1,117,1067.2,117.6,1068.4,117.6z"/>
	<path fill="#003366" stroke="#000000" stroke-width="3" stroke-miterlimit="10" d="M1249.9,199.4h-10.6V68.7c0-2-1.6-3.5-3.5-3.5
		h-28.3c-2,0-3.5,1.6-3.5,3.5v130.8h-14.1V104c0-2-1.6-3.5-3.5-3.5H1158c-2,0-3.5,1.6-3.5,3.5v95.4h-14.1v-60.1c0-2-1.6-3.5-3.5-3.5
		h-28.3c-2,0-3.5,1.6-3.5,3.5v60.1h-14.1v-24.7c0-2-1.6-3.5-3.5-3.5H1059c-2,0-3.5,1.6-3.5,3.5v24.7h-10.6c-2,0-3.5,1.6-3.5,3.5
		s1.6,3.5,3.5,3.5h14.1h28.3h21.2h28.3h21.2h28.3h21.2h28.3h14.1c2,0,3.5-1.6,3.5-3.5S1251.8,199.4,1249.9,199.4z"/>
</g>
<g>
	<path fill="#00FF00" stroke="#000000" stroke-width="3" stroke-miterlimit="10" d="M1375.4,152.3c0,1.5,0.9,2.9,2.3,3.6l108.8,50.5
		v-2.5v-6.2v-74.6v0l-111.1-51.9V152.3z"/>
	<path fill="#FF0000" stroke="#000000" stroke-width="3" stroke-miterlimit="10" d="M1594.8,59.3c2.3-2.6,3.7-5.6,3.7-8.8
		c0-10.8-14.6-19-34-19c-9.2,0-17.3,1.9-23.3,5l-16.4-7.1c2.4-2.6,3.7-5.6,3.7-8.8c0-10.8-14.6-19-34-19c-19.4,0-34,8.2-34,19
		c0,3.2,1.3,6.2,3.7,8.9l-13.8,6c-5.7-2.4-12.9-3.8-20.9-3.8c-19.4,0-34,8.2-34,19c0,2.6,0.9,5.1,2.4,7.3l-18,6.7l110.7,51.7
		l118.3-51.7L1594.8,59.3z M1429.4,61.5c-14.9,0-26.1-5.8-26.1-11c0-5.2,11.1-11,26.1-11s26.1,5.8,26.1,11
		C1455.4,55.7,1444.3,61.5,1429.4,61.5z M1494.4,86.6c-14.9,0-26.1-5.8-26.1-11c0-5.2,11.1-11,26.1-11c14.9,0,26.1,5.8,26.1,11
		C1520.5,80.7,1509.4,86.6,1494.4,86.6z M1494.4,31.5c-14.9,0-26.1-5.8-26.1-11c0-5.2,11.1-11,26.1-11c14.9,0,26.1,5.8,26.1,11
		C1520.5,25.7,1509.4,31.5,1494.4,31.5z M1564.5,61.5c-14.9,0-26.1-5.8-26.1-11c0-5.2,11.1-11,26.1-11c14.9,0,26.1,5.8,26.1,11
		C1590.5,55.7,1579.4,61.5,1564.5,61.5z"/>
	<path fill="#0000FF" stroke="#000000" stroke-width="3" stroke-miterlimit="10" d="M1494.4,123.2L1494.4,123.2v74.7v6v2.6
		l116.7-50.6c1.5-0.6,2.4-2.1,2.4-3.6V71.1L1494.4,123.2z"/>
</g>
<g>
	<path fill="#55BBFF" stroke="#020202" stroke-width="3" stroke-miterlimit="10" d="M351,68.3v133.2c0,1.9,1.5,3.4,3.4,3.4h198.2
		c1.9,0,3.4-1.5,3.4-3.4V68.3H351z M453.5,99.1c0-1.9,1.5-3.4,3.4-3.4h41c1.1,0,2.2,0.6,2.8,1.5c0.6,0.9,0.8,2.1,0.3,3.2l-11.8,29.5
		h3c1.9,0,3.4,1.5,3.4,3.4s-1.5,3.4-3.4,3.4h-5.7l-12.7,31.7c-0.5,1.3-1.8,2.1-3.2,2.1c-0.4,0-0.9-0.1-1.3-0.2
		c-1.8-0.7-2.6-2.7-1.9-4.4l11.7-29.2h-12.8c-1.9,0-3.4-1.5-3.4-3.4s1.5-3.4,3.4-3.4H482l10.9-27.3h-32.5v4.3c0,1.9-1.5,3.4-3.4,3.4
		s-3.4-1.5-3.4-3.4V99.1z M414.9,118.6c-1.3,1.3-3.5,1.3-4.8,0c-1.3-1.3-1.3-3.5,0-4.8l17.1-17.1c1-1,2.4-1.3,3.7-0.7
		c1.3,0.5,2.1,1.8,2.1,3.2V164h13.7c1.9,0,3.4,1.5,3.4,3.4c0,1.9-1.5,3.4-3.4,3.4h-34.2c-1.9,0-3.4-1.5-3.4-3.4
		c0-1.9,1.5-3.4,3.4-3.4h13.7v-56.7L414.9,118.6z"/>
	<path fill="#55BBFF" stroke="#020202" stroke-width="3" stroke-miterlimit="10" d="M556,61.5V23.9c0-1.9-1.5-3.4-3.4-3.4h-30.8V3.4
		c0-1.9-1.5-3.4-3.4-3.4h-27.3c-1.9,0-3.4,1.5-3.4,3.4v17.1h-68.3V3.4c0-1.9-1.5-3.4-3.4-3.4h-27.3c-1.9,0-3.4,1.5-3.4,3.4v17.1
		h-30.8c-1.9,0-3.4,1.5-3.4,3.4v37.6H556z M494.5,6.8H515v27.3h-20.5V6.8z M412.5,34.2H392V6.8h20.5V34.2z"/>
</g>
</svg>
