<?xml version="1.0" encoding="utf-8"?>
<!-- Generator: Adobe Illustrator 18.1.1, SVG Export Plug-In . SVG Version: 6.00 Build 0)  -->
<svg version="1.1" xmlns="http://www.w3.org/2000/svg" xmlns:xlink="http://www.w3.org/1999/xlink" x="0px" y="0px"
	 viewBox="0 0 34 74.5" enable-background="new 0 0 34 74.5" xml:space="preserve">
<g id="Layer_2">
	<rect x="-50.2" y="-7.4" fill="#555555" width="259.5" height="116.5"/>
</g>
<g id="Layer_1">
	<g>
		<path fill="#78CBEF" d="M-26.4,74.5c9.4,0,17-7.6,17-17c0-9.4-7.6-17-17-17c-9.4,0-17,7.6-17,17C-43.4,66.9-35.8,74.5-26.4,74.5"
			/>
		<path fill="#FFFFFF" d="M-17.8,53c-0.6,0.3-1.3,0.5-2,0.6c0.7-0.4,1.3-1.1,1.5-1.9c-0.7,0.4-1.4,0.7-2.2,0.8
			c-0.6-0.7-1.5-1.1-2.6-1.1c-1.9,0-3.5,1.6-3.5,3.5c0,0.3,0,0.5,0.1,0.8c-2.9-0.1-5.5-1.5-7.2-3.7c-0.3,0.5-0.5,1.1-0.5,1.8
			c0,1.2,0.6,2.3,1.6,2.9c-0.6,0-1.1-0.2-1.6-0.4v0c0,1.7,1.2,3.1,2.8,3.4c-0.3,0.1-0.6,0.1-0.9,0.1c-0.2,0-0.4,0-0.7-0.1
			c0.4,1.4,1.7,2.4,3.3,2.4c-1.2,0.9-2.7,1.5-4.3,1.5c-0.3,0-0.6,0-0.8,0c1.5,1,3.4,1.6,5.4,1.6c6.4,0,9.9-5.3,9.9-9.9
			c0-0.2,0-0.3,0-0.5C-18.9,54.4-18.3,53.7-17.8,53"/>
	</g>
	<g>
		<path fill="#547BBC" d="M17,74.5c9.4,0,17-7.6,17-17c0-9.4-7.6-17-17-17c-9.4,0-17,7.6-17,17C0,66.9,7.6,74.5,17,74.5"/>
		<path fill="#FFFFFF" d="M12.9,54.6h1.8v-1.7c0-0.8,0-1.9,0.6-2.6c0.6-0.8,1.4-1.3,2.7-1.3c2.2,0,3.2,0.3,3.2,0.3l-0.4,2.6
			c0,0-0.7-0.2-1.4-0.2c-0.7,0-1.3,0.2-1.3,0.9v2h2.8l-0.2,2.5H18V66h-3.3v-8.8h-1.8V54.6z"/>
	</g>
	<g>
		<path fill="#999999" d="M-26.4,33.2c9.4,0,17-7.6,17-17c0-9.4-7.6-17-17-17c-9.4,0-17,7.6-17,17C-43.4,25.6-35.8,33.2-26.4,33.2"
			/>
		<path fill="#FFFFFF" d="M-17.8,11.7c-0.6,0.3-1.3,0.5-2,0.6c0.7-0.4,1.3-1.1,1.5-1.9c-0.7,0.4-1.4,0.7-2.2,0.8
			c-0.6-0.7-1.5-1.1-2.6-1.1c-1.9,0-3.5,1.6-3.5,3.5c0,0.3,0,0.5,0.1,0.8c-2.9-0.1-5.5-1.5-7.2-3.7c-0.3,0.5-0.5,1.1-0.5,1.8
			c0,1.2,0.6,2.3,1.6,2.9c-0.6,0-1.1-0.2-1.6-0.4v0c0,1.7,1.2,3.1,2.8,3.4c-0.3,0.1-0.6,0.1-0.9,0.1c-0.2,0-0.4,0-0.7-0.1
			c0.4,1.4,1.7,2.4,3.3,2.4c-1.2,0.9-2.7,1.5-4.3,1.5c-0.3,0-0.6,0-0.8,0c1.5,1,3.4,1.6,5.4,1.6c6.4,0,9.9-5.3,9.9-9.9
			c0-0.2,0-0.3,0-0.5C-18.9,13-18.3,12.4-17.8,11.7"/>
	</g>
	<g>
		<path fill="#999999" d="M17,34c9.4,0,17-7.6,17-17c0-9.4-7.6-17-17-17C7.6,0,0,7.6,0,17C0,26.4,7.6,34,17,34"/>
		<path fill="#FFFFFF" d="M12.9,14.1h1.8v-1.7c0-0.8,0-1.9,0.6-2.6C15.8,9,16.6,8.5,18,8.5c2.2,0,3.2,0.3,3.2,0.3l-0.4,2.6
			c0,0-0.7-0.2-1.4-0.2c-0.7,0-1.3,0.2-1.3,0.9v2h2.8l-0.2,2.5H18v8.8h-3.3v-8.8h-1.8V14.1z"/>
	</g>
</g>
</svg>
